  0
SECTION
  2
HEADER
  9
$MEASUREMENT
  70
  1
  9
$INSUNITS
  70
  4
  0
ENDSEC
  0
SECTION
  2
TABLES
  0
TABLE
  2
LTYPE
 70
     1
  0
LTYPE
  2
CONTINUOUS
 70
    64
  3
Ausgezogene Linie
 72
    65
 73
     0
 40
0.0
  0
ENDTAB
  0
TABLE
  2
LAYER
 70
     3
  0
LAYER
  2
Contour
 70
    64
 62
     7
  6
CONTINUOUS
  0
LAYER
  2
Engraving
 70
    64
 62
     7
  6
CONTINUOUS
  0
LAYER
  2
Reference_points
 70
    64
 62
     1
  6
CONTINUOUS
  0
ENDTAB
  0
TABLE
  2
STYLE
 70
     1
  0
STYLE
  2
TXT
 70
    64
 40
0.0
 41
1.0
 50
0.0
 71
     0
 42
3.500000
  3
TXT
  0
ENDTAB
  0
ENDSEC
  0
SECTION
  2
BLOCKS
  0
ENDSEC
  0
SECTION
  2
ENTITIES
  0
LINE
  8
Contour
 62
   7
 39
0.100
  6
CONTINUOUS
 10
100.85000
 20
128.30000
 30
 0
 11
100.85000
 21
0.00000
  0
LINE
  8
Contour
 62
   7
 39
0.100
  6
CONTINUOUS
 10
100.85000
 20
0.00000
 30
 0
 11
0.00000
 21
0.00000
  0
LINE
  8
Contour
 62
   7
 39
0.100
  6
CONTINUOUS
 10
0.00000
 20
0.00000
 30
 0
 11
0.00000
 21
128.30000
  0
LINE
  8
Contour
 62
   7
 39
0.100
  6
CONTINUOUS
 10
0.00000
 20
128.30000
 30
 0
 11
100.85000
 21
128.30000
  0
CIRCLE
  8
Contour
 62
   7
 39
0.100
  6
CONTINUOUS
 10
7.38200
 20
78.41300
 30
 0
 40
3.30000
  0
CIRCLE
  8
Contour
 62
   7
 39
0.100
  6
CONTINUOUS
 10
50.58000
 20
15.44700
 30
 0
 40
3.30000
  0
CIRCLE
  8
Contour
 62
   7
 39
0.100
  6
CONTINUOUS
 10
61.86500
 20
15.37000
 30
 0
 40
3.30000
  0
CIRCLE
  8
Contour
 62
   7
 39
0.100
  6
CONTINUOUS
 10
38.83500
 20
15.44700
 30
 0
 40
3.30000
  0
CIRCLE
  8
Contour
 62
   7
 39
0.100
  6
CONTINUOUS
 10
70.34200
 20
15.42200
 30
 0
 40
1.60000
  0
CIRCLE
  8
Contour
 62
   7
 39
0.100
  6
CONTINUOUS
 10
81.72900
 20
15.39600
 30
 0
 40
3.30000
  0
CIRCLE
  8
Contour
 62
   7
 39
0.100
  6
CONTINUOUS
 10
93.65300
 20
15.42200
 30
 0
 40
3.30000
  0
CIRCLE
  8
Contour
 62
   7
 39
0.100
  6
CONTINUOUS
 10
68.26800
 20
27.43800
 30
 0
 40
3.30000
  0
CIRCLE
  8
Contour
 62
   7
 39
0.100
  6
CONTINUOUS
 10
76.81800
 20
23.81400
 30
 0
 40
1.60000
  0
CIRCLE
  8
Contour
 62
   7
 39
0.100
  6
CONTINUOUS
 10
87.84100
 20
23.81400
 30
 0
 40
1.60000
  0
CIRCLE
  8
Contour
 62
   7
 39
0.100
  6
CONTINUOUS
 10
56.38700
 20
27.39000
 30
 0
 40
3.30000
  0
CIRCLE
  8
Contour
 62
   7
 39
0.100
  6
CONTINUOUS
 10
44.84600
 20
27.39000
 30
 0
 40
3.30000
  0
CIRCLE
  8
Contour
 62
   7
 39
0.100
  6
CONTINUOUS
 10
32.84500
 20
27.33200
 30
 0
 40
3.30000
  0
CIRCLE
  8
Contour
 62
   7
 39
0.100
  6
CONTINUOUS
 10
24.92100
 20
23.77200
 30
 0
 40
1.60000
  0
CIRCLE
  8
Contour
 62
   7
 39
0.100
  6
CONTINUOUS
 10
19.39000
 20
15.44800
 30
 0
 40
3.30000
  0
CIRCLE
  8
Contour
 62
   7
 39
0.100
  6
CONTINUOUS
 10
13.32200
 20
23.77200
 30
 0
 40
1.60000
  0
CIRCLE
  8
Contour
 62
   7
 39
0.100
  6
CONTINUOUS
 10
7.35000
 20
15.38900
 30
 0
 40
3.30000
  0
CIRCLE
  8
Contour
 62
   7
 39
0.100
  6
CONTINUOUS
 10
9.93400
 20
42.72100
 30
 0
 40
3.30000
  0
CIRCLE
  8
Contour
 62
   7
 39
0.100
  6
CONTINUOUS
 10
7.35000
 20
54.83700
 30
 0
 40
3.30000
  0
CIRCLE
  8
Contour
 62
   7
 39
0.100
  6
CONTINUOUS
 10
9.87600
 20
66.89500
 30
 0
 40
3.30000
  0
CIRCLE
  8
Contour
 62
   7
 39
0.100
  6
CONTINUOUS
 10
19.00600
 20
113.34900
 30
 0
 40
3.30000
  0
CIRCLE
  8
Contour
 62
   7
 39
0.100
  6
CONTINUOUS
 10
7.46500
 20
113.17700
 30
 0
 40
3.30000
  0
CIRCLE
  8
Contour
 62
   7
 39
0.100
  6
CONTINUOUS
 10
35.60100
 20
113.40600
 30
 0
 40
3.30000
  0
CIRCLE
  8
Contour
 62
   7
 39
0.100
  6
CONTINUOUS
 10
65.46000
 20
113.34900
 30
 0
 40
3.30000
  0
CIRCLE
  8
Contour
 62
   7
 39
0.100
  6
CONTINUOUS
 10
50.47300
 20
105.82700
 30
 0
 40
3.80000
  0
CIRCLE
  8
Contour
 62
   7
 39
0.100
  6
CONTINUOUS
 10
50.41600
 20
85.55700
 30
 0
 40
3.80000
  0
CIRCLE
  8
Contour
 62
   7
 39
0.100
  6
CONTINUOUS
 10
50.39100
 20
66.29500
 30
 0
 40
3.80000
  0
CIRCLE
  8
Contour
 62
   7
 39
0.100
  6
CONTINUOUS
 10
71.48100
 20
95.25000
 30
 0
 40
3.80000
  0
CIRCLE
  8
Contour
 62
   7
 39
0.100
  6
CONTINUOUS
 10
29.90600
 20
95.25000
 30
 0
 40
3.80000
  0
CIRCLE
  8
Contour
 62
   7
 39
0.100
  6
CONTINUOUS
 10
29.90600
 20
73.29600
 30
 0
 40
3.80000
  0
CIRCLE
  8
Contour
 62
   7
 39
0.100
  6
CONTINUOUS
 10
71.39400
 20
73.20900
 30
 0
 40
3.80000
  0
CIRCLE
  8
Contour
 62
   7
 39
0.100
  6
CONTINUOUS
 10
71.43900
 20
48.56600
 30
 0
 40
3.80000
  0
CIRCLE
  8
Contour
 62
   7
 39
0.100
  6
CONTINUOUS
 10
29.85100
 20
48.50700
 30
 0
 40
3.80000
  0
CIRCLE
  8
Contour
 62
   7
 39
0.100
  6
CONTINUOUS
 10
50.34400
 20
46.72800
 30
 0
 40
3.80000
  0
CIRCLE
  8
Contour
 62
   7
 39
0.100
  6
CONTINUOUS
 10
91.04400
 20
42.82400
 30
 0
 40
3.30000
  0
CIRCLE
  8
Contour
 62
   7
 39
0.100
  6
CONTINUOUS
 10
93.74200
 20
54.76400
 30
 0
 40
3.30000
  0
CIRCLE
  8
Contour
 62
   7
 39
0.100
  6
CONTINUOUS
 10
91.15900
 20
66.81900
 30
 0
 40
3.30000
  0
CIRCLE
  8
Contour
 62
   7
 39
0.100
  6
CONTINUOUS
 10
93.68500
 20
78.24300
 30
 0
 40
3.30000
  0
CIRCLE
  8
Contour
 62
   7
 39
0.100
  6
CONTINUOUS
 10
82.31900
 20
113.20300
 30
 0
 40
3.30000
  0
CIRCLE
  8
Contour
 62
   7
 39
0.100
  6
CONTINUOUS
 10
93.74200
 20
113.31700
 30
 0
 40
3.30000
  0
CIRCLE
  8
Contour
 62
   7
 39
0.100
  6
CONTINUOUS
 10
87.94400
 20
105.51000
 30
 0
 40
1.60000
  0
CIRCLE
  8
Contour
 62
   7
 39
0.100
  6
CONTINUOUS
 10
91.16000
 20
96.72800
 30
 0
 40
4.82200
  0
CIRCLE
  8
Contour
 62
   7
 39
0.100
  6
CONTINUOUS
 10
9.79500
 20
96.42600
 30
 0
 40
4.82200
  0
CIRCLE
  8
Contour
 62
   7
 39
0.100
  6
CONTINUOUS
 10
13.15500
 20
105.49600
 30
 0
 40
1.60000
  0
CIRCLE
  8
Contour
 62
   7
 39
0.100
  6
CONTINUOUS
 10
30.35200
 20
15.35000
 30
 0
 40
1.60000
  0
LINE
  8
Reference_points
 62
   1
 39
0.100
  6
CONTINUOUS
 10
-0.65600
 20
0.00000
 30
 0
 11
0.65600
 21
0.00000
  0
LINE
  8
Reference_points
 62
   1
 39
0.100
  6
CONTINUOUS
 10
0.00000
 20
-0.65600
 30
 0
 11
0.00000
 21
0.65600
  0
LINE
  8
Reference_points
 62
   1
 39
0.100
  6
CONTINUOUS
 10
6.72600
 20
78.41300
 30
 0
 11
8.03800
 21
78.41300
  0
LINE
  8
Reference_points
 62
   1
 39
0.100
  6
CONTINUOUS
 10
7.38200
 20
77.75700
 30
 0
 11
7.38200
 21
79.06900
  0
LINE
  8
Reference_points
 62
   1
 39
0.100
  6
CONTINUOUS
 10
49.92400
 20
15.44700
 30
 0
 11
51.23600
 21
15.44700
  0
LINE
  8
Reference_points
 62
   1
 39
0.100
  6
CONTINUOUS
 10
50.58000
 20
14.79100
 30
 0
 11
50.58000
 21
16.10300
  0
LINE
  8
Reference_points
 62
   1
 39
0.100
  6
CONTINUOUS
 10
61.20900
 20
15.37000
 30
 0
 11
62.52100
 21
15.37000
  0
LINE
  8
Reference_points
 62
   1
 39
0.100
  6
CONTINUOUS
 10
61.86500
 20
14.71400
 30
 0
 11
61.86500
 21
16.02600
  0
LINE
  8
Reference_points
 62
   1
 39
0.100
  6
CONTINUOUS
 10
38.17900
 20
15.44700
 30
 0
 11
39.49100
 21
15.44700
  0
LINE
  8
Reference_points
 62
   1
 39
0.100
  6
CONTINUOUS
 10
38.83500
 20
14.79100
 30
 0
 11
38.83500
 21
16.10300
  0
LINE
  8
Reference_points
 62
   1
 39
0.100
  6
CONTINUOUS
 10
69.68600
 20
15.42200
 30
 0
 11
70.99800
 21
15.42200
  0
LINE
  8
Reference_points
 62
   1
 39
0.100
  6
CONTINUOUS
 10
70.34200
 20
14.76600
 30
 0
 11
70.34200
 21
16.07800
  0
LINE
  8
Reference_points
 62
   1
 39
0.100
  6
CONTINUOUS
 10
81.07300
 20
15.39600
 30
 0
 11
82.38500
 21
15.39600
  0
LINE
  8
Reference_points
 62
   1
 39
0.100
  6
CONTINUOUS
 10
81.72900
 20
14.74000
 30
 0
 11
81.72900
 21
16.05200
  0
LINE
  8
Reference_points
 62
   1
 39
0.100
  6
CONTINUOUS
 10
92.99700
 20
15.42200
 30
 0
 11
94.30900
 21
15.42200
  0
LINE
  8
Reference_points
 62
   1
 39
0.100
  6
CONTINUOUS
 10
93.65300
 20
14.76600
 30
 0
 11
93.65300
 21
16.07800
  0
LINE
  8
Reference_points
 62
   1
 39
0.100
  6
CONTINUOUS
 10
67.61200
 20
27.43800
 30
 0
 11
68.92400
 21
27.43800
  0
LINE
  8
Reference_points
 62
   1
 39
0.100
  6
CONTINUOUS
 10
68.26800
 20
26.78200
 30
 0
 11
68.26800
 21
28.09400
  0
LINE
  8
Reference_points
 62
   1
 39
0.100
  6
CONTINUOUS
 10
76.16200
 20
23.81400
 30
 0
 11
77.47400
 21
23.81400
  0
LINE
  8
Reference_points
 62
   1
 39
0.100
  6
CONTINUOUS
 10
76.81800
 20
23.15800
 30
 0
 11
76.81800
 21
24.47000
  0
LINE
  8
Reference_points
 62
   1
 39
0.100
  6
CONTINUOUS
 10
87.18500
 20
23.81400
 30
 0
 11
88.49700
 21
23.81400
  0
LINE
  8
Reference_points
 62
   1
 39
0.100
  6
CONTINUOUS
 10
87.84100
 20
23.15800
 30
 0
 11
87.84100
 21
24.47000
  0
LINE
  8
Reference_points
 62
   1
 39
0.100
  6
CONTINUOUS
 10
55.73100
 20
27.39000
 30
 0
 11
57.04300
 21
27.39000
  0
LINE
  8
Reference_points
 62
   1
 39
0.100
  6
CONTINUOUS
 10
56.38700
 20
26.73400
 30
 0
 11
56.38700
 21
28.04600
  0
LINE
  8
Reference_points
 62
   1
 39
0.100
  6
CONTINUOUS
 10
44.19000
 20
27.39000
 30
 0
 11
45.50200
 21
27.39000
  0
LINE
  8
Reference_points
 62
   1
 39
0.100
  6
CONTINUOUS
 10
44.84600
 20
26.73400
 30
 0
 11
44.84600
 21
28.04600
  0
LINE
  8
Reference_points
 62
   1
 39
0.100
  6
CONTINUOUS
 10
32.18900
 20
27.33200
 30
 0
 11
33.50100
 21
27.33200
  0
LINE
  8
Reference_points
 62
   1
 39
0.100
  6
CONTINUOUS
 10
32.84500
 20
26.67600
 30
 0
 11
32.84500
 21
27.98800
  0
LINE
  8
Reference_points
 62
   1
 39
0.100
  6
CONTINUOUS
 10
24.26500
 20
23.77200
 30
 0
 11
25.57700
 21
23.77200
  0
LINE
  8
Reference_points
 62
   1
 39
0.100
  6
CONTINUOUS
 10
24.92100
 20
23.11600
 30
 0
 11
24.92100
 21
24.42800
  0
LINE
  8
Reference_points
 62
   1
 39
0.100
  6
CONTINUOUS
 10
18.73400
 20
15.44800
 30
 0
 11
20.04600
 21
15.44800
  0
LINE
  8
Reference_points
 62
   1
 39
0.100
  6
CONTINUOUS
 10
19.39000
 20
14.79200
 30
 0
 11
19.39000
 21
16.10400
  0
LINE
  8
Reference_points
 62
   1
 39
0.100
  6
CONTINUOUS
 10
12.66600
 20
23.77200
 30
 0
 11
13.97800
 21
23.77200
  0
LINE
  8
Reference_points
 62
   1
 39
0.100
  6
CONTINUOUS
 10
13.32200
 20
23.11600
 30
 0
 11
13.32200
 21
24.42800
  0
LINE
  8
Reference_points
 62
   1
 39
0.100
  6
CONTINUOUS
 10
6.69400
 20
15.38900
 30
 0
 11
8.00600
 21
15.38900
  0
LINE
  8
Reference_points
 62
   1
 39
0.100
  6
CONTINUOUS
 10
7.35000
 20
14.73300
 30
 0
 11
7.35000
 21
16.04500
  0
LINE
  8
Reference_points
 62
   1
 39
0.100
  6
CONTINUOUS
 10
9.27800
 20
42.72100
 30
 0
 11
10.59000
 21
42.72100
  0
LINE
  8
Reference_points
 62
   1
 39
0.100
  6
CONTINUOUS
 10
9.93400
 20
42.06500
 30
 0
 11
9.93400
 21
43.37700
  0
LINE
  8
Reference_points
 62
   1
 39
0.100
  6
CONTINUOUS
 10
6.69400
 20
54.83700
 30
 0
 11
8.00600
 21
54.83700
  0
LINE
  8
Reference_points
 62
   1
 39
0.100
  6
CONTINUOUS
 10
7.35000
 20
54.18100
 30
 0
 11
7.35000
 21
55.49300
  0
LINE
  8
Reference_points
 62
   1
 39
0.100
  6
CONTINUOUS
 10
9.22000
 20
66.89500
 30
 0
 11
10.53200
 21
66.89500
  0
LINE
  8
Reference_points
 62
   1
 39
0.100
  6
CONTINUOUS
 10
9.87600
 20
66.23900
 30
 0
 11
9.87600
 21
67.55100
  0
LINE
  8
Reference_points
 62
   1
 39
0.100
  6
CONTINUOUS
 10
18.35000
 20
113.34900
 30
 0
 11
19.66200
 21
113.34900
  0
LINE
  8
Reference_points
 62
   1
 39
0.100
  6
CONTINUOUS
 10
19.00600
 20
112.69300
 30
 0
 11
19.00600
 21
114.00500
  0
LINE
  8
Reference_points
 62
   1
 39
0.100
  6
CONTINUOUS
 10
6.80900
 20
113.17700
 30
 0
 11
8.12100
 21
113.17700
  0
LINE
  8
Reference_points
 62
   1
 39
0.100
  6
CONTINUOUS
 10
7.46500
 20
112.52100
 30
 0
 11
7.46500
 21
113.83300
  0
LINE
  8
Reference_points
 62
   1
 39
0.100
  6
CONTINUOUS
 10
34.94500
 20
113.40600
 30
 0
 11
36.25700
 21
113.40600
  0
LINE
  8
Reference_points
 62
   1
 39
0.100
  6
CONTINUOUS
 10
35.60100
 20
112.75000
 30
 0
 11
35.60100
 21
114.06200
  0
LINE
  8
Reference_points
 62
   1
 39
0.100
  6
CONTINUOUS
 10
64.80400
 20
113.34900
 30
 0
 11
66.11600
 21
113.34900
  0
LINE
  8
Reference_points
 62
   1
 39
0.100
  6
CONTINUOUS
 10
65.46000
 20
112.69300
 30
 0
 11
65.46000
 21
114.00500
  0
LINE
  8
Reference_points
 62
   1
 39
0.100
  6
CONTINUOUS
 10
49.81700
 20
105.82700
 30
 0
 11
51.12900
 21
105.82700
  0
LINE
  8
Reference_points
 62
   1
 39
0.100
  6
CONTINUOUS
 10
50.47300
 20
105.17100
 30
 0
 11
50.47300
 21
106.48300
  0
LINE
  8
Reference_points
 62
   1
 39
0.100
  6
CONTINUOUS
 10
49.76000
 20
85.55700
 30
 0
 11
51.07200
 21
85.55700
  0
LINE
  8
Reference_points
 62
   1
 39
0.100
  6
CONTINUOUS
 10
50.41600
 20
84.90100
 30
 0
 11
50.41600
 21
86.21300
  0
LINE
  8
Reference_points
 62
   1
 39
0.100
  6
CONTINUOUS
 10
49.73500
 20
66.29500
 30
 0
 11
51.04700
 21
66.29500
  0
LINE
  8
Reference_points
 62
   1
 39
0.100
  6
CONTINUOUS
 10
50.39100
 20
65.63900
 30
 0
 11
50.39100
 21
66.95100
  0
LINE
  8
Reference_points
 62
   1
 39
0.100
  6
CONTINUOUS
 10
70.82500
 20
95.25000
 30
 0
 11
72.13700
 21
95.25000
  0
LINE
  8
Reference_points
 62
   1
 39
0.100
  6
CONTINUOUS
 10
71.48100
 20
94.59400
 30
 0
 11
71.48100
 21
95.90600
  0
LINE
  8
Reference_points
 62
   1
 39
0.100
  6
CONTINUOUS
 10
29.25000
 20
95.25000
 30
 0
 11
30.56200
 21
95.25000
  0
LINE
  8
Reference_points
 62
   1
 39
0.100
  6
CONTINUOUS
 10
29.90600
 20
94.59400
 30
 0
 11
29.90600
 21
95.90600
  0
LINE
  8
Reference_points
 62
   1
 39
0.100
  6
CONTINUOUS
 10
29.25000
 20
73.29600
 30
 0
 11
30.56200
 21
73.29600
  0
LINE
  8
Reference_points
 62
   1
 39
0.100
  6
CONTINUOUS
 10
29.90600
 20
72.64000
 30
 0
 11
29.90600
 21
73.95200
  0
LINE
  8
Reference_points
 62
   1
 39
0.100
  6
CONTINUOUS
 10
70.73800
 20
73.20900
 30
 0
 11
72.05000
 21
73.20900
  0
LINE
  8
Reference_points
 62
   1
 39
0.100
  6
CONTINUOUS
 10
71.39400
 20
72.55300
 30
 0
 11
71.39400
 21
73.86500
  0
LINE
  8
Reference_points
 62
   1
 39
0.100
  6
CONTINUOUS
 10
70.78300
 20
48.56600
 30
 0
 11
72.09500
 21
48.56600
  0
LINE
  8
Reference_points
 62
   1
 39
0.100
  6
CONTINUOUS
 10
71.43900
 20
47.91000
 30
 0
 11
71.43900
 21
49.22200
  0
LINE
  8
Reference_points
 62
   1
 39
0.100
  6
CONTINUOUS
 10
29.19500
 20
48.50700
 30
 0
 11
30.50700
 21
48.50700
  0
LINE
  8
Reference_points
 62
   1
 39
0.100
  6
CONTINUOUS
 10
29.85100
 20
47.85100
 30
 0
 11
29.85100
 21
49.16300
  0
LINE
  8
Reference_points
 62
   1
 39
0.100
  6
CONTINUOUS
 10
49.68800
 20
46.72800
 30
 0
 11
51.00000
 21
46.72800
  0
LINE
  8
Reference_points
 62
   1
 39
0.100
  6
CONTINUOUS
 10
50.34400
 20
46.07200
 30
 0
 11
50.34400
 21
47.38400
  0
LINE
  8
Reference_points
 62
   1
 39
0.100
  6
CONTINUOUS
 10
90.38800
 20
42.82400
 30
 0
 11
91.70000
 21
42.82400
  0
LINE
  8
Reference_points
 62
   1
 39
0.100
  6
CONTINUOUS
 10
91.04400
 20
42.16800
 30
 0
 11
91.04400
 21
43.48000
  0
LINE
  8
Reference_points
 62
   1
 39
0.100
  6
CONTINUOUS
 10
93.08600
 20
54.76400
 30
 0
 11
94.39800
 21
54.76400
  0
LINE
  8
Reference_points
 62
   1
 39
0.100
  6
CONTINUOUS
 10
93.74200
 20
54.10800
 30
 0
 11
93.74200
 21
55.42000
  0
LINE
  8
Reference_points
 62
   1
 39
0.100
  6
CONTINUOUS
 10
90.50300
 20
66.81900
 30
 0
 11
91.81500
 21
66.81900
  0
LINE
  8
Reference_points
 62
   1
 39
0.100
  6
CONTINUOUS
 10
91.15900
 20
66.16300
 30
 0
 11
91.15900
 21
67.47500
  0
LINE
  8
Reference_points
 62
   1
 39
0.100
  6
CONTINUOUS
 10
93.02900
 20
78.24300
 30
 0
 11
94.34100
 21
78.24300
  0
LINE
  8
Reference_points
 62
   1
 39
0.100
  6
CONTINUOUS
 10
93.68500
 20
77.58700
 30
 0
 11
93.68500
 21
78.89900
  0
LINE
  8
Reference_points
 62
   1
 39
0.100
  6
CONTINUOUS
 10
81.66300
 20
113.20300
 30
 0
 11
82.97500
 21
113.20300
  0
LINE
  8
Reference_points
 62
   1
 39
0.100
  6
CONTINUOUS
 10
82.31900
 20
112.54700
 30
 0
 11
82.31900
 21
113.85900
  0
LINE
  8
Reference_points
 62
   1
 39
0.100
  6
CONTINUOUS
 10
93.08600
 20
113.31700
 30
 0
 11
94.39800
 21
113.31700
  0
LINE
  8
Reference_points
 62
   1
 39
0.100
  6
CONTINUOUS
 10
93.74200
 20
112.66100
 30
 0
 11
93.74200
 21
113.97300
  0
LINE
  8
Reference_points
 62
   1
 39
0.100
  6
CONTINUOUS
 10
87.28800
 20
105.51000
 30
 0
 11
88.60000
 21
105.51000
  0
LINE
  8
Reference_points
 62
   1
 39
0.100
  6
CONTINUOUS
 10
87.94400
 20
104.85400
 30
 0
 11
87.94400
 21
106.16600
  0
LINE
  8
Reference_points
 62
   1
 39
0.100
  6
CONTINUOUS
 10
90.50400
 20
96.72800
 30
 0
 11
91.81600
 21
96.72800
  0
LINE
  8
Reference_points
 62
   1
 39
0.100
  6
CONTINUOUS
 10
91.16000
 20
96.07200
 30
 0
 11
91.16000
 21
97.38400
  0
LINE
  8
Reference_points
 62
   1
 39
0.100
  6
CONTINUOUS
 10
9.13900
 20
96.42600
 30
 0
 11
10.45100
 21
96.42600
  0
LINE
  8
Reference_points
 62
   1
 39
0.100
  6
CONTINUOUS
 10
9.79500
 20
95.77000
 30
 0
 11
9.79500
 21
97.08200
  0
LINE
  8
Reference_points
 62
   1
 39
0.100
  6
CONTINUOUS
 10
12.49900
 20
105.49600
 30
 0
 11
13.81100
 21
105.49600
  0
LINE
  8
Reference_points
 62
   1
 39
0.100
  6
CONTINUOUS
 10
13.15500
 20
104.84000
 30
 0
 11
13.15500
 21
106.15200
  0
LINE
  8
Reference_points
 62
   1
 39
0.100
  6
CONTINUOUS
 10
29.69600
 20
15.35000
 30
 0
 11
31.00800
 21
15.35000
  0
LINE
  8
Reference_points
 62
   1
 39
0.100
  6
CONTINUOUS
 10
30.35200
 20
14.69400
 30
 0
 11
30.35200
 21
16.00600
  0
ENDSEC
  0
EOF
