G04 #@! TF.GenerationSoftware,KiCad,Pcbnew,(6.99.0-1801-gf14dc9e305)*
G04 #@! TF.CreationDate,2022-05-05T06:36:27+03:00*
G04 #@! TF.ProjectId,Blades,426c6164-6573-42e6-9b69-6361645f7063,rev?*
G04 #@! TF.SameCoordinates,Original*
G04 #@! TF.FileFunction,Copper,L1,Top*
G04 #@! TF.FilePolarity,Positive*
%FSLAX46Y46*%
G04 Gerber Fmt 4.6, Leading zero omitted, Abs format (unit mm)*
G04 Created by KiCad (PCBNEW (6.99.0-1801-gf14dc9e305)) date 2022-05-05 06:36:27*
%MOMM*%
%LPD*%
G01*
G04 APERTURE LIST*
G04 #@! TA.AperFunction,NonConductor*
%ADD10C,0.200000*%
G04 #@! TD*
G04 APERTURE END LIST*
D10*
X145850001Y-152050000D02*
G75*
G03*
X145850001Y-152050000I-1J0D01*
G01*
G04 #@! TA.AperFunction,NonConductor*
G36*
X229551621Y-27442502D02*
G01*
X229598114Y-27496158D01*
X229609500Y-27548500D01*
X229609500Y-155495500D01*
X229589498Y-155563621D01*
X229535842Y-155610114D01*
X229483500Y-155621500D01*
X138836500Y-155621500D01*
X138768379Y-155601498D01*
X138721886Y-155547842D01*
X138710500Y-155495500D01*
X138710500Y-152746000D01*
X144291451Y-152746000D01*
X144291803Y-152750697D01*
X144310838Y-153004704D01*
X144311617Y-153015103D01*
X144312667Y-153019702D01*
X144312667Y-153019704D01*
X144367192Y-153258595D01*
X144371666Y-153278195D01*
X144470257Y-153529398D01*
X144605185Y-153763102D01*
X144608117Y-153766779D01*
X144608120Y-153766783D01*
X144770504Y-153970405D01*
X144773439Y-153974085D01*
X144971259Y-154157635D01*
X145194226Y-154309651D01*
X145268667Y-154345500D01*
X145409098Y-154413128D01*
X145437359Y-154426738D01*
X145695228Y-154506280D01*
X145699878Y-154506981D01*
X145699883Y-154506982D01*
X145814033Y-154524187D01*
X145962071Y-154546500D01*
X146231929Y-154546500D01*
X146379967Y-154524187D01*
X146494117Y-154506982D01*
X146494122Y-154506981D01*
X146498772Y-154506280D01*
X146756641Y-154426738D01*
X146760890Y-154424692D01*
X146995527Y-154311697D01*
X146995530Y-154311695D01*
X146999775Y-154309651D01*
X147222741Y-154157635D01*
X147420561Y-153974085D01*
X147423496Y-153970405D01*
X147585880Y-153766783D01*
X147585883Y-153766779D01*
X147588815Y-153763102D01*
X147723743Y-153529398D01*
X147822334Y-153278195D01*
X147826808Y-153258595D01*
X147881333Y-153019704D01*
X147881333Y-153019702D01*
X147882383Y-153015103D01*
X147883163Y-153004704D01*
X147902197Y-152750697D01*
X147902549Y-152746000D01*
X147901425Y-152731000D01*
X220278451Y-152731000D01*
X220278803Y-152735697D01*
X220297202Y-152981217D01*
X220298617Y-153000103D01*
X220299667Y-153004702D01*
X220299667Y-153004704D01*
X220353434Y-153240273D01*
X220358666Y-153263195D01*
X220457257Y-153514398D01*
X220592185Y-153748102D01*
X220595117Y-153751779D01*
X220595120Y-153751783D01*
X220757504Y-153955405D01*
X220760439Y-153959085D01*
X220958259Y-154142635D01*
X220962158Y-154145293D01*
X221140985Y-154267215D01*
X221181226Y-154294651D01*
X221424359Y-154411738D01*
X221682228Y-154491280D01*
X221686878Y-154491981D01*
X221686883Y-154491982D01*
X221786404Y-154506982D01*
X221949071Y-154531500D01*
X222218929Y-154531500D01*
X222381596Y-154506982D01*
X222481117Y-154491982D01*
X222481122Y-154491981D01*
X222485772Y-154491280D01*
X222743641Y-154411738D01*
X222953225Y-154310808D01*
X222982527Y-154296697D01*
X222982530Y-154296695D01*
X222986775Y-154294651D01*
X223209741Y-154142635D01*
X223407561Y-153959085D01*
X223410496Y-153955405D01*
X223572880Y-153751783D01*
X223572883Y-153751779D01*
X223575815Y-153748102D01*
X223710743Y-153514398D01*
X223809334Y-153263195D01*
X223814566Y-153240273D01*
X223868333Y-153004704D01*
X223868333Y-153004702D01*
X223869383Y-153000103D01*
X223870799Y-152981217D01*
X223889197Y-152735697D01*
X223889549Y-152731000D01*
X223884510Y-152663752D01*
X223869736Y-152466602D01*
X223869735Y-152466596D01*
X223869383Y-152461897D01*
X223817990Y-152236727D01*
X223810384Y-152203405D01*
X223810384Y-152203404D01*
X223809334Y-152198805D01*
X223710743Y-151947602D01*
X223575815Y-151713898D01*
X223572883Y-151710221D01*
X223572880Y-151710217D01*
X223410496Y-151506595D01*
X223410494Y-151506593D01*
X223407561Y-151502915D01*
X223209741Y-151319365D01*
X222986775Y-151167349D01*
X222982530Y-151165305D01*
X222982527Y-151165303D01*
X222747890Y-151052308D01*
X222747888Y-151052307D01*
X222743641Y-151050262D01*
X222485772Y-150970720D01*
X222481122Y-150970019D01*
X222481117Y-150970018D01*
X222366967Y-150952813D01*
X222218929Y-150930500D01*
X221949071Y-150930500D01*
X221801033Y-150952813D01*
X221686883Y-150970018D01*
X221686878Y-150970019D01*
X221682228Y-150970720D01*
X221424359Y-151050262D01*
X221420112Y-151052307D01*
X221420110Y-151052308D01*
X221302792Y-151108806D01*
X221181226Y-151167349D01*
X220958259Y-151319365D01*
X220760439Y-151502915D01*
X220757506Y-151506593D01*
X220757504Y-151506595D01*
X220595120Y-151710217D01*
X220595117Y-151710221D01*
X220592185Y-151713898D01*
X220457257Y-151947602D01*
X220358666Y-152198805D01*
X220357616Y-152203404D01*
X220357616Y-152203405D01*
X220350011Y-152236727D01*
X220298617Y-152461897D01*
X220298265Y-152466596D01*
X220298264Y-152466602D01*
X220283490Y-152663752D01*
X220278451Y-152731000D01*
X147901425Y-152731000D01*
X147890224Y-152581525D01*
X147882736Y-152481602D01*
X147882735Y-152481596D01*
X147882383Y-152476897D01*
X147830990Y-152251727D01*
X147823384Y-152218405D01*
X147823384Y-152218404D01*
X147822334Y-152213805D01*
X147723743Y-151962602D01*
X147588815Y-151728898D01*
X147585883Y-151725221D01*
X147585880Y-151725217D01*
X147423496Y-151521595D01*
X147423494Y-151521593D01*
X147420561Y-151517915D01*
X147222741Y-151334365D01*
X146999775Y-151182349D01*
X146995530Y-151180305D01*
X146995527Y-151180303D01*
X146760890Y-151067308D01*
X146760888Y-151067307D01*
X146756641Y-151065262D01*
X146498772Y-150985720D01*
X146494122Y-150985019D01*
X146494117Y-150985018D01*
X146379967Y-150967813D01*
X146231929Y-150945500D01*
X145962071Y-150945500D01*
X145814033Y-150967813D01*
X145699883Y-150985018D01*
X145699878Y-150985019D01*
X145695228Y-150985720D01*
X145437359Y-151065262D01*
X145194226Y-151182349D01*
X145190332Y-151185004D01*
X145190330Y-151185005D01*
X145131984Y-151224785D01*
X144971259Y-151334365D01*
X144773439Y-151517915D01*
X144770506Y-151521593D01*
X144770504Y-151521595D01*
X144608120Y-151725217D01*
X144608117Y-151725221D01*
X144605185Y-151728898D01*
X144470257Y-151962602D01*
X144371666Y-152213805D01*
X144370616Y-152218404D01*
X144370616Y-152218405D01*
X144363011Y-152251727D01*
X144311617Y-152476897D01*
X144311265Y-152481596D01*
X144311264Y-152481602D01*
X144303776Y-152581525D01*
X144291451Y-152746000D01*
X138710500Y-152746000D01*
X138710500Y-138359000D01*
X144675506Y-138359000D01*
X144695469Y-138727199D01*
X144755125Y-139091081D01*
X144756040Y-139094376D01*
X144852432Y-139441548D01*
X144853773Y-139446379D01*
X144855036Y-139449548D01*
X144988668Y-139784941D01*
X144990257Y-139788930D01*
X145162978Y-140114716D01*
X145164892Y-140117538D01*
X145164892Y-140117539D01*
X145367994Y-140417092D01*
X145368000Y-140417099D01*
X145369910Y-140419917D01*
X145372123Y-140422522D01*
X145592831Y-140682359D01*
X145608627Y-140700956D01*
X145876330Y-140954538D01*
X145879048Y-140956604D01*
X145879049Y-140956605D01*
X145936932Y-141000606D01*
X146169881Y-141177690D01*
X146172810Y-141179453D01*
X146172814Y-141179455D01*
X146476589Y-141362230D01*
X146485838Y-141367795D01*
X146672776Y-141454282D01*
X146817399Y-141521192D01*
X146817404Y-141521194D01*
X146820497Y-141522625D01*
X146929938Y-141559500D01*
X147166698Y-141639274D01*
X147166704Y-141639276D01*
X147169934Y-141640364D01*
X147173271Y-141641098D01*
X147173269Y-141641098D01*
X147526721Y-141718899D01*
X147526725Y-141718900D01*
X147530052Y-141719632D01*
X147533442Y-141720001D01*
X147533444Y-141720001D01*
X147597276Y-141726943D01*
X147896630Y-141759500D01*
X148265370Y-141759500D01*
X148564724Y-141726943D01*
X148628556Y-141720001D01*
X148628558Y-141720001D01*
X148631948Y-141719632D01*
X148635275Y-141718900D01*
X148635279Y-141718899D01*
X148988731Y-141641098D01*
X148988729Y-141641098D01*
X148992066Y-141640364D01*
X148995296Y-141639276D01*
X148995302Y-141639274D01*
X149232062Y-141559500D01*
X149341503Y-141522625D01*
X149344596Y-141521194D01*
X149344601Y-141521192D01*
X149489224Y-141454282D01*
X149676162Y-141367795D01*
X149685411Y-141362230D01*
X149989186Y-141179455D01*
X149989190Y-141179453D01*
X149992119Y-141177690D01*
X150225068Y-141000606D01*
X150282951Y-140956605D01*
X150282952Y-140956604D01*
X150285670Y-140954538D01*
X150553373Y-140700956D01*
X150569170Y-140682359D01*
X150789877Y-140422522D01*
X150792090Y-140419917D01*
X150794000Y-140417099D01*
X150794006Y-140417092D01*
X150997108Y-140117539D01*
X150997108Y-140117538D01*
X150999022Y-140114716D01*
X151171743Y-139788930D01*
X151173333Y-139784941D01*
X151306964Y-139449548D01*
X151308227Y-139446379D01*
X151309569Y-139441548D01*
X151405960Y-139094376D01*
X151406875Y-139091081D01*
X151466531Y-138727199D01*
X151486440Y-138360000D01*
X156661506Y-138360000D01*
X156681469Y-138728199D01*
X156682023Y-138731577D01*
X156739650Y-139083081D01*
X156741125Y-139092081D01*
X156742040Y-139095376D01*
X156838583Y-139443092D01*
X156839773Y-139447379D01*
X156841036Y-139450548D01*
X156969484Y-139772930D01*
X156976257Y-139789930D01*
X157148978Y-140115716D01*
X157150892Y-140118538D01*
X157150892Y-140118539D01*
X157353994Y-140418092D01*
X157354000Y-140418099D01*
X157355910Y-140420917D01*
X157358123Y-140423522D01*
X157578831Y-140683359D01*
X157594627Y-140701956D01*
X157862330Y-140955538D01*
X158155881Y-141178690D01*
X158158810Y-141180453D01*
X158158814Y-141180455D01*
X158460927Y-141362230D01*
X158471838Y-141368795D01*
X158656615Y-141454282D01*
X158803399Y-141522192D01*
X158803404Y-141522194D01*
X158806497Y-141523625D01*
X158978400Y-141581546D01*
X159152698Y-141640274D01*
X159152704Y-141640276D01*
X159155934Y-141641364D01*
X159159271Y-141642098D01*
X159159269Y-141642098D01*
X159512721Y-141719899D01*
X159512725Y-141719900D01*
X159516052Y-141720632D01*
X159519442Y-141721001D01*
X159519444Y-141721001D01*
X159583276Y-141727943D01*
X159882630Y-141760500D01*
X160251370Y-141760500D01*
X160550724Y-141727943D01*
X160614556Y-141721001D01*
X160614558Y-141721001D01*
X160617948Y-141720632D01*
X160621275Y-141719900D01*
X160621279Y-141719899D01*
X160974731Y-141642098D01*
X160974729Y-141642098D01*
X160978066Y-141641364D01*
X160981296Y-141640276D01*
X160981302Y-141640274D01*
X161155600Y-141581546D01*
X161327503Y-141523625D01*
X161330596Y-141522194D01*
X161330601Y-141522192D01*
X161477385Y-141454282D01*
X161662162Y-141368795D01*
X161673073Y-141362230D01*
X161975186Y-141180455D01*
X161975190Y-141180453D01*
X161978119Y-141178690D01*
X162271670Y-140955538D01*
X162539373Y-140701956D01*
X162555170Y-140683359D01*
X162775877Y-140423522D01*
X162778090Y-140420917D01*
X162780000Y-140418099D01*
X162780006Y-140418092D01*
X162983108Y-140118539D01*
X162983108Y-140118538D01*
X162985022Y-140115716D01*
X163157743Y-139789930D01*
X163164517Y-139772930D01*
X163292964Y-139450548D01*
X163294227Y-139447379D01*
X163295418Y-139443092D01*
X163391960Y-139095376D01*
X163392875Y-139092081D01*
X163394351Y-139083081D01*
X163451977Y-138731577D01*
X163452531Y-138728199D01*
X163472494Y-138360000D01*
X163471139Y-138335000D01*
X168702505Y-138335000D01*
X168722468Y-138703199D01*
X168782124Y-139067081D01*
X168789980Y-139095376D01*
X168876982Y-139408728D01*
X168880772Y-139422379D01*
X168975102Y-139659132D01*
X169010595Y-139748211D01*
X169017256Y-139764930D01*
X169189977Y-140090716D01*
X169191891Y-140093538D01*
X169191891Y-140093539D01*
X169394993Y-140393092D01*
X169394999Y-140393099D01*
X169396909Y-140395917D01*
X169635626Y-140676956D01*
X169903329Y-140930538D01*
X169906047Y-140932604D01*
X169906048Y-140932605D01*
X169938935Y-140957605D01*
X170196880Y-141153690D01*
X170199809Y-141155453D01*
X170199813Y-141155455D01*
X170509910Y-141342034D01*
X170512837Y-141343795D01*
X170728051Y-141443364D01*
X170844398Y-141497192D01*
X170844403Y-141497194D01*
X170847496Y-141498625D01*
X171019399Y-141556546D01*
X171193697Y-141615274D01*
X171193703Y-141615276D01*
X171196933Y-141616364D01*
X171241155Y-141626098D01*
X171553720Y-141694899D01*
X171553724Y-141694900D01*
X171557051Y-141695632D01*
X171560441Y-141696001D01*
X171560443Y-141696001D01*
X171623870Y-141702899D01*
X171923629Y-141735500D01*
X172292369Y-141735500D01*
X172592128Y-141702899D01*
X172655555Y-141696001D01*
X172655557Y-141696001D01*
X172658947Y-141695632D01*
X172662274Y-141694900D01*
X172662278Y-141694899D01*
X172974843Y-141626098D01*
X173019065Y-141616364D01*
X173022295Y-141615276D01*
X173022301Y-141615274D01*
X173196599Y-141556546D01*
X173368502Y-141498625D01*
X173371595Y-141497194D01*
X173371600Y-141497192D01*
X173487947Y-141443364D01*
X173703161Y-141343795D01*
X173706088Y-141342034D01*
X174016185Y-141155455D01*
X174016189Y-141155453D01*
X174019118Y-141153690D01*
X174277063Y-140957605D01*
X174309950Y-140932605D01*
X174309951Y-140932604D01*
X174312669Y-140930538D01*
X174580372Y-140676956D01*
X174819089Y-140395917D01*
X174820999Y-140393099D01*
X174821005Y-140393092D01*
X175024107Y-140093539D01*
X175024107Y-140093538D01*
X175026021Y-140090716D01*
X175198742Y-139764930D01*
X175205404Y-139748211D01*
X175240896Y-139659132D01*
X175335226Y-139422379D01*
X175339017Y-139408728D01*
X175426018Y-139095376D01*
X175433874Y-139067081D01*
X175493530Y-138703199D01*
X175512571Y-138352000D01*
X180741507Y-138352000D01*
X180761470Y-138720199D01*
X180778802Y-138825916D01*
X180820355Y-139079376D01*
X180821126Y-139084080D01*
X180919774Y-139439379D01*
X180921037Y-139442548D01*
X180921039Y-139442555D01*
X181054271Y-139776942D01*
X181056258Y-139781929D01*
X181228979Y-140107715D01*
X181230893Y-140110537D01*
X181230893Y-140110538D01*
X181433318Y-140409092D01*
X181435911Y-140412917D01*
X181674627Y-140693956D01*
X181677092Y-140696291D01*
X181677093Y-140696292D01*
X181939857Y-140945195D01*
X181939862Y-140945199D01*
X181942331Y-140947538D01*
X181945037Y-140949595D01*
X181945044Y-140949601D01*
X182102235Y-141069094D01*
X182235881Y-141170689D01*
X182238810Y-141172452D01*
X182238814Y-141172454D01*
X182547251Y-141358034D01*
X182551838Y-141360794D01*
X182753909Y-141454282D01*
X182883399Y-141514191D01*
X182883404Y-141514193D01*
X182886497Y-141515624D01*
X183058400Y-141573545D01*
X183232698Y-141632273D01*
X183232704Y-141632275D01*
X183235934Y-141633363D01*
X183239271Y-141634097D01*
X183239269Y-141634097D01*
X183592722Y-141711898D01*
X183592726Y-141711899D01*
X183596053Y-141712631D01*
X183599443Y-141713000D01*
X183599445Y-141713000D01*
X183653686Y-141718899D01*
X183962630Y-141752499D01*
X184331370Y-141752499D01*
X184640314Y-141718899D01*
X184694555Y-141713000D01*
X184694557Y-141713000D01*
X184697947Y-141712631D01*
X184701274Y-141711899D01*
X184701278Y-141711898D01*
X185054731Y-141634097D01*
X185054729Y-141634097D01*
X185058066Y-141633363D01*
X185061296Y-141632275D01*
X185061302Y-141632273D01*
X185235600Y-141573545D01*
X185407503Y-141515624D01*
X185410596Y-141514193D01*
X185410601Y-141514191D01*
X185540091Y-141454282D01*
X185742162Y-141360794D01*
X185746749Y-141358034D01*
X186055186Y-141172454D01*
X186055190Y-141172452D01*
X186058119Y-141170689D01*
X186191765Y-141069094D01*
X186348956Y-140949601D01*
X186348963Y-140949595D01*
X186351669Y-140947538D01*
X186354138Y-140945199D01*
X186354143Y-140945195D01*
X186616907Y-140696292D01*
X186616908Y-140696291D01*
X186619373Y-140693956D01*
X186858089Y-140412917D01*
X186860683Y-140409092D01*
X187063107Y-140110538D01*
X187063107Y-140110537D01*
X187065021Y-140107715D01*
X187237742Y-139781929D01*
X187239729Y-139776942D01*
X187372961Y-139442555D01*
X187372963Y-139442548D01*
X187374226Y-139439379D01*
X187472874Y-139084080D01*
X187473646Y-139079376D01*
X187515198Y-138825916D01*
X187532530Y-138720199D01*
X187552493Y-138352000D01*
X187552439Y-138351000D01*
X192764506Y-138351000D01*
X192784469Y-138719199D01*
X192844125Y-139083081D01*
X192845040Y-139086376D01*
X192941432Y-139433548D01*
X192942773Y-139438379D01*
X192946359Y-139447379D01*
X193077270Y-139775942D01*
X193079257Y-139780930D01*
X193251978Y-140106716D01*
X193253892Y-140109538D01*
X193253892Y-140109539D01*
X193456994Y-140409092D01*
X193457000Y-140409099D01*
X193458910Y-140411917D01*
X193616451Y-140597388D01*
X193681831Y-140674359D01*
X193697627Y-140692956D01*
X193965330Y-140946538D01*
X194258881Y-141169690D01*
X194261810Y-141171453D01*
X194261814Y-141171455D01*
X194566794Y-141354955D01*
X194574838Y-141359795D01*
X194779068Y-141454282D01*
X194906399Y-141513192D01*
X194906404Y-141513194D01*
X194909497Y-141514625D01*
X195081400Y-141572546D01*
X195255698Y-141631274D01*
X195255704Y-141631276D01*
X195258934Y-141632364D01*
X195303156Y-141642098D01*
X195615721Y-141710899D01*
X195615725Y-141710900D01*
X195619052Y-141711632D01*
X195622442Y-141712001D01*
X195622444Y-141712001D01*
X195631630Y-141713000D01*
X195985630Y-141751500D01*
X196354370Y-141751500D01*
X196708370Y-141713000D01*
X196717556Y-141712001D01*
X196717558Y-141712001D01*
X196720948Y-141711632D01*
X196724275Y-141710900D01*
X196724279Y-141710899D01*
X197036844Y-141642098D01*
X197081066Y-141632364D01*
X197084296Y-141631276D01*
X197084302Y-141631274D01*
X197258600Y-141572546D01*
X197430503Y-141514625D01*
X197433596Y-141513194D01*
X197433601Y-141513192D01*
X197560932Y-141454282D01*
X197765162Y-141359795D01*
X197773206Y-141354955D01*
X198078186Y-141171455D01*
X198078190Y-141171453D01*
X198081119Y-141169690D01*
X198374670Y-140946538D01*
X198642373Y-140692956D01*
X198658170Y-140674359D01*
X198723549Y-140597388D01*
X198881090Y-140411917D01*
X198883000Y-140409099D01*
X198883006Y-140409092D01*
X199086108Y-140109539D01*
X199086108Y-140109538D01*
X199088022Y-140106716D01*
X199260743Y-139780930D01*
X199262731Y-139775942D01*
X199393641Y-139447379D01*
X199397227Y-139438379D01*
X199398569Y-139433548D01*
X199494960Y-139086376D01*
X199495875Y-139083081D01*
X199555531Y-138719199D01*
X199575494Y-138351000D01*
X199575114Y-138344000D01*
X204787506Y-138344000D01*
X204807469Y-138712199D01*
X204809928Y-138727199D01*
X204865650Y-139067081D01*
X204867125Y-139076081D01*
X204872205Y-139094376D01*
X204964583Y-139427092D01*
X204965773Y-139431379D01*
X205102257Y-139773930D01*
X205274978Y-140099716D01*
X205276892Y-140102538D01*
X205276892Y-140102539D01*
X205479994Y-140402092D01*
X205480000Y-140402099D01*
X205481910Y-140404917D01*
X205720627Y-140685956D01*
X205988330Y-140939538D01*
X206281881Y-141162690D01*
X206284810Y-141164453D01*
X206284814Y-141164455D01*
X206593249Y-141350034D01*
X206597838Y-141352795D01*
X206813052Y-141452364D01*
X206929399Y-141506192D01*
X206929404Y-141506194D01*
X206932497Y-141507625D01*
X207083489Y-141558500D01*
X207278698Y-141624274D01*
X207278704Y-141624276D01*
X207281934Y-141625364D01*
X207345128Y-141639274D01*
X207638721Y-141703899D01*
X207638725Y-141703900D01*
X207642052Y-141704632D01*
X207645442Y-141705001D01*
X207645444Y-141705001D01*
X207699676Y-141710899D01*
X208008630Y-141744500D01*
X208377370Y-141744500D01*
X208686324Y-141710899D01*
X208740556Y-141705001D01*
X208740558Y-141705001D01*
X208743948Y-141704632D01*
X208747275Y-141703900D01*
X208747279Y-141703899D01*
X209040872Y-141639274D01*
X209104066Y-141625364D01*
X209107296Y-141624276D01*
X209107302Y-141624274D01*
X209302511Y-141558500D01*
X209453503Y-141507625D01*
X209456596Y-141506194D01*
X209456601Y-141506192D01*
X209572948Y-141452364D01*
X209788162Y-141352795D01*
X209792751Y-141350034D01*
X210101186Y-141164455D01*
X210101190Y-141164453D01*
X210104119Y-141162690D01*
X210397670Y-140939538D01*
X210665373Y-140685956D01*
X210904090Y-140404917D01*
X210906000Y-140402099D01*
X210906006Y-140402092D01*
X211109108Y-140102539D01*
X211109108Y-140102538D01*
X211111022Y-140099716D01*
X211283743Y-139773930D01*
X211420227Y-139431379D01*
X211421418Y-139427092D01*
X211513795Y-139094376D01*
X211518875Y-139076081D01*
X211520351Y-139067081D01*
X211576072Y-138727199D01*
X211578531Y-138712199D01*
X211598494Y-138344000D01*
X211598440Y-138343000D01*
X216809506Y-138343000D01*
X216829469Y-138711199D01*
X216889125Y-139075081D01*
X216893845Y-139092081D01*
X216986432Y-139425548D01*
X216987773Y-139430379D01*
X216995411Y-139449548D01*
X217122270Y-139767942D01*
X217124257Y-139772930D01*
X217296978Y-140098716D01*
X217298892Y-140101538D01*
X217298892Y-140101539D01*
X217501994Y-140401092D01*
X217502000Y-140401099D01*
X217503910Y-140403917D01*
X217742627Y-140684956D01*
X218010330Y-140938538D01*
X218013048Y-140940604D01*
X218013049Y-140940605D01*
X218017758Y-140944185D01*
X218303881Y-141161690D01*
X218306810Y-141163453D01*
X218306814Y-141163455D01*
X218616911Y-141350034D01*
X218619838Y-141351795D01*
X218835052Y-141451364D01*
X218951399Y-141505192D01*
X218951404Y-141505194D01*
X218954497Y-141506625D01*
X219126400Y-141564546D01*
X219300698Y-141623274D01*
X219300704Y-141623276D01*
X219303934Y-141624364D01*
X219371671Y-141639274D01*
X219660721Y-141702899D01*
X219660725Y-141702900D01*
X219664052Y-141703632D01*
X219667442Y-141704001D01*
X219667444Y-141704001D01*
X219730871Y-141710899D01*
X220030630Y-141743500D01*
X220399370Y-141743500D01*
X220699129Y-141710899D01*
X220762556Y-141704001D01*
X220762558Y-141704001D01*
X220765948Y-141703632D01*
X220769275Y-141702900D01*
X220769279Y-141702899D01*
X221058329Y-141639274D01*
X221126066Y-141624364D01*
X221129296Y-141623276D01*
X221129302Y-141623274D01*
X221303600Y-141564546D01*
X221475503Y-141506625D01*
X221478596Y-141505194D01*
X221478601Y-141505192D01*
X221594948Y-141451364D01*
X221810162Y-141351795D01*
X221813089Y-141350034D01*
X222123186Y-141163455D01*
X222123190Y-141163453D01*
X222126119Y-141161690D01*
X222412242Y-140944185D01*
X222416951Y-140940605D01*
X222416952Y-140940604D01*
X222419670Y-140938538D01*
X222687373Y-140684956D01*
X222926090Y-140403917D01*
X222928000Y-140401099D01*
X222928006Y-140401092D01*
X223131108Y-140101539D01*
X223131108Y-140101538D01*
X223133022Y-140098716D01*
X223305743Y-139772930D01*
X223307731Y-139767942D01*
X223434589Y-139449548D01*
X223442227Y-139430379D01*
X223443569Y-139425548D01*
X223536155Y-139092081D01*
X223540875Y-139075081D01*
X223600531Y-138711199D01*
X223620494Y-138343000D01*
X223600531Y-137974801D01*
X223540875Y-137610919D01*
X223512270Y-137507895D01*
X223443140Y-137258908D01*
X223443138Y-137258902D01*
X223442227Y-137255621D01*
X223313380Y-136932237D01*
X223307005Y-136916237D01*
X223307004Y-136916235D01*
X223305743Y-136913070D01*
X223133022Y-136587284D01*
X222981729Y-136364144D01*
X222928006Y-136284908D01*
X222928000Y-136284901D01*
X222926090Y-136282083D01*
X222704019Y-136020641D01*
X222689579Y-136003641D01*
X222689578Y-136003640D01*
X222687373Y-136001044D01*
X222419670Y-135747462D01*
X222126119Y-135524310D01*
X222109890Y-135514545D01*
X221813089Y-135335966D01*
X221813087Y-135335965D01*
X221810162Y-135334205D01*
X221554057Y-135215718D01*
X221478601Y-135180808D01*
X221478596Y-135180806D01*
X221475503Y-135179375D01*
X221303600Y-135121454D01*
X221129302Y-135062726D01*
X221129296Y-135062724D01*
X221126066Y-135061636D01*
X220841967Y-134999101D01*
X220769279Y-134983101D01*
X220769275Y-134983100D01*
X220765948Y-134982368D01*
X220762558Y-134981999D01*
X220762556Y-134981999D01*
X220688997Y-134973999D01*
X220399370Y-134942500D01*
X220030630Y-134942500D01*
X219741003Y-134973999D01*
X219667444Y-134981999D01*
X219667442Y-134981999D01*
X219664052Y-134982368D01*
X219660725Y-134983100D01*
X219660721Y-134983101D01*
X219588033Y-134999101D01*
X219303934Y-135061636D01*
X219300704Y-135062724D01*
X219300698Y-135062726D01*
X219126400Y-135121454D01*
X218954497Y-135179375D01*
X218951404Y-135180806D01*
X218951399Y-135180808D01*
X218875943Y-135215718D01*
X218619838Y-135334205D01*
X218616913Y-135335965D01*
X218616911Y-135335966D01*
X218320111Y-135514545D01*
X218303881Y-135524310D01*
X218010330Y-135747462D01*
X217742627Y-136001044D01*
X217740422Y-136003640D01*
X217740421Y-136003641D01*
X217725981Y-136020641D01*
X217503910Y-136282083D01*
X217502000Y-136284901D01*
X217501994Y-136284908D01*
X217448271Y-136364144D01*
X217296978Y-136587284D01*
X217124257Y-136913070D01*
X217122996Y-136916235D01*
X217122995Y-136916237D01*
X217116620Y-136932237D01*
X216987773Y-137255621D01*
X216986862Y-137258902D01*
X216986860Y-137258908D01*
X216917730Y-137507895D01*
X216889125Y-137610919D01*
X216829469Y-137974801D01*
X216809506Y-138343000D01*
X211598440Y-138343000D01*
X211578531Y-137975801D01*
X211518875Y-137611919D01*
X211432902Y-137302272D01*
X211421140Y-137259908D01*
X211421138Y-137259902D01*
X211420227Y-137256621D01*
X211288918Y-136927058D01*
X211285005Y-136917237D01*
X211285004Y-136917235D01*
X211283743Y-136914070D01*
X211111022Y-136588284D01*
X210959051Y-136364144D01*
X210906006Y-136285908D01*
X210906000Y-136285901D01*
X210904090Y-136283083D01*
X210720842Y-136067347D01*
X210667579Y-136004641D01*
X210667578Y-136004640D01*
X210665373Y-136002044D01*
X210397670Y-135748462D01*
X210393636Y-135745395D01*
X210246974Y-135633906D01*
X210104119Y-135525310D01*
X210086228Y-135514545D01*
X209791089Y-135336966D01*
X209791087Y-135336965D01*
X209788162Y-135335205D01*
X209491184Y-135197808D01*
X209456601Y-135181808D01*
X209456596Y-135181806D01*
X209453503Y-135180375D01*
X209281600Y-135122454D01*
X209107302Y-135063726D01*
X209107296Y-135063724D01*
X209104066Y-135062636D01*
X208815424Y-134999101D01*
X208747279Y-134984101D01*
X208747275Y-134984100D01*
X208743948Y-134983368D01*
X208740558Y-134982999D01*
X208740556Y-134982999D01*
X208657802Y-134973999D01*
X208377370Y-134943500D01*
X208008630Y-134943500D01*
X207728198Y-134973999D01*
X207645444Y-134982999D01*
X207645442Y-134982999D01*
X207642052Y-134983368D01*
X207638725Y-134984100D01*
X207638721Y-134984101D01*
X207570576Y-134999101D01*
X207281934Y-135062636D01*
X207278704Y-135063724D01*
X207278698Y-135063726D01*
X207104400Y-135122454D01*
X206932497Y-135180375D01*
X206929404Y-135181806D01*
X206929399Y-135181808D01*
X206894816Y-135197808D01*
X206597838Y-135335205D01*
X206594913Y-135336965D01*
X206594911Y-135336966D01*
X206299773Y-135514545D01*
X206281881Y-135525310D01*
X206139026Y-135633906D01*
X205992365Y-135745395D01*
X205988330Y-135748462D01*
X205720627Y-136002044D01*
X205718422Y-136004640D01*
X205718421Y-136004641D01*
X205665158Y-136067347D01*
X205481910Y-136283083D01*
X205480000Y-136285901D01*
X205479994Y-136285908D01*
X205426949Y-136364144D01*
X205274978Y-136588284D01*
X205102257Y-136914070D01*
X205100996Y-136917235D01*
X205100995Y-136917237D01*
X205097082Y-136927058D01*
X204965773Y-137256621D01*
X204964862Y-137259902D01*
X204964860Y-137259908D01*
X204953098Y-137302272D01*
X204867125Y-137611919D01*
X204807469Y-137975801D01*
X204787506Y-138344000D01*
X199575114Y-138344000D01*
X199555531Y-137982801D01*
X199497740Y-137630292D01*
X199496428Y-137622292D01*
X199495875Y-137618919D01*
X199408236Y-137303272D01*
X199398140Y-137266908D01*
X199398138Y-137266902D01*
X199397227Y-137263621D01*
X199264329Y-136930070D01*
X199262005Y-136924237D01*
X199262004Y-136924235D01*
X199260743Y-136921070D01*
X199088022Y-136595284D01*
X198931305Y-136364144D01*
X198883006Y-136292908D01*
X198883000Y-136292901D01*
X198881090Y-136290083D01*
X198642373Y-136009044D01*
X198374670Y-135755462D01*
X198081119Y-135532310D01*
X198066552Y-135523545D01*
X197768089Y-135343966D01*
X197768087Y-135343965D01*
X197765162Y-135342205D01*
X197526349Y-135231718D01*
X197433601Y-135188808D01*
X197433596Y-135188806D01*
X197430503Y-135187375D01*
X197258600Y-135129454D01*
X197084302Y-135070726D01*
X197084296Y-135070724D01*
X197081066Y-135069636D01*
X196971849Y-135045595D01*
X196724279Y-134991101D01*
X196724275Y-134991100D01*
X196720948Y-134990368D01*
X196717558Y-134989999D01*
X196717556Y-134989999D01*
X196643997Y-134981999D01*
X196354370Y-134950500D01*
X195985630Y-134950500D01*
X195696003Y-134981999D01*
X195622444Y-134989999D01*
X195622442Y-134989999D01*
X195619052Y-134990368D01*
X195615725Y-134991100D01*
X195615721Y-134991101D01*
X195368151Y-135045595D01*
X195258934Y-135069636D01*
X195255704Y-135070724D01*
X195255698Y-135070726D01*
X195081400Y-135129454D01*
X194909497Y-135187375D01*
X194906404Y-135188806D01*
X194906399Y-135188808D01*
X194813651Y-135231718D01*
X194574838Y-135342205D01*
X194571913Y-135343965D01*
X194571911Y-135343966D01*
X194273449Y-135523545D01*
X194258881Y-135532310D01*
X193965330Y-135755462D01*
X193697627Y-136009044D01*
X193458910Y-136290083D01*
X193457000Y-136292901D01*
X193456994Y-136292908D01*
X193408695Y-136364144D01*
X193251978Y-136595284D01*
X193079257Y-136921070D01*
X193077996Y-136924235D01*
X193077995Y-136924237D01*
X193075671Y-136930070D01*
X192942773Y-137263621D01*
X192941862Y-137266902D01*
X192941860Y-137266908D01*
X192931764Y-137303272D01*
X192844125Y-137618919D01*
X192843572Y-137622292D01*
X192842260Y-137630292D01*
X192784469Y-137982801D01*
X192764506Y-138351000D01*
X187552439Y-138351000D01*
X187532530Y-137983801D01*
X187477321Y-137647044D01*
X187473426Y-137623284D01*
X187473424Y-137623275D01*
X187472874Y-137619920D01*
X187374226Y-137264621D01*
X187372349Y-137259908D01*
X187239004Y-136925238D01*
X187239003Y-136925236D01*
X187237742Y-136922071D01*
X187065021Y-136596285D01*
X186902880Y-136357145D01*
X186859998Y-136293898D01*
X186859994Y-136293893D01*
X186858089Y-136291083D01*
X186619373Y-136010044D01*
X186613669Y-136004641D01*
X186354143Y-135758805D01*
X186354138Y-135758801D01*
X186351669Y-135756462D01*
X186348963Y-135754405D01*
X186348956Y-135754399D01*
X186070050Y-135542381D01*
X186058119Y-135533311D01*
X186048264Y-135527381D01*
X185745089Y-135344967D01*
X185745087Y-135344966D01*
X185742162Y-135343206D01*
X185486055Y-135224718D01*
X185410601Y-135189809D01*
X185410596Y-135189807D01*
X185407503Y-135188376D01*
X185235600Y-135130455D01*
X185061302Y-135071727D01*
X185061296Y-135071725D01*
X185058066Y-135070637D01*
X184949831Y-135046813D01*
X184701278Y-134992102D01*
X184701274Y-134992101D01*
X184697947Y-134991369D01*
X184694557Y-134991000D01*
X184694555Y-134991000D01*
X184611792Y-134981999D01*
X184331370Y-134951501D01*
X183962630Y-134951501D01*
X183682208Y-134981999D01*
X183599445Y-134991000D01*
X183599443Y-134991000D01*
X183596053Y-134991369D01*
X183592726Y-134992101D01*
X183592722Y-134992102D01*
X183344169Y-135046813D01*
X183235934Y-135070637D01*
X183232704Y-135071725D01*
X183232698Y-135071727D01*
X183058400Y-135130455D01*
X182886497Y-135188376D01*
X182883404Y-135189807D01*
X182883399Y-135189809D01*
X182807945Y-135224718D01*
X182551838Y-135343206D01*
X182548913Y-135344966D01*
X182548911Y-135344967D01*
X182245737Y-135527381D01*
X182235881Y-135533311D01*
X182223950Y-135542381D01*
X181945044Y-135754399D01*
X181945037Y-135754405D01*
X181942331Y-135756462D01*
X181939862Y-135758801D01*
X181939857Y-135758805D01*
X181680331Y-136004641D01*
X181674627Y-136010044D01*
X181435911Y-136291083D01*
X181434006Y-136293893D01*
X181434002Y-136293898D01*
X181391120Y-136357145D01*
X181228979Y-136596285D01*
X181056258Y-136922071D01*
X181054997Y-136925236D01*
X181054996Y-136925238D01*
X180921652Y-137259908D01*
X180919774Y-137264621D01*
X180821126Y-137619920D01*
X180820576Y-137623275D01*
X180820574Y-137623284D01*
X180816679Y-137647044D01*
X180761470Y-137983801D01*
X180741507Y-138352000D01*
X175512571Y-138352000D01*
X175513493Y-138335000D01*
X175493530Y-137966801D01*
X175435739Y-137614292D01*
X175434427Y-137606292D01*
X175433874Y-137602919D01*
X175405269Y-137499895D01*
X175336139Y-137250908D01*
X175336137Y-137250902D01*
X175335226Y-137247621D01*
X175208703Y-136930070D01*
X175200004Y-136908237D01*
X175200003Y-136908235D01*
X175198742Y-136905070D01*
X175026021Y-136579284D01*
X175024107Y-136576461D01*
X174821005Y-136276908D01*
X174820999Y-136276901D01*
X174819089Y-136274083D01*
X174597009Y-136012631D01*
X174582578Y-135995641D01*
X174582577Y-135995640D01*
X174580372Y-135993044D01*
X174312669Y-135739462D01*
X174019118Y-135516310D01*
X173744712Y-135351205D01*
X173706088Y-135327966D01*
X173706086Y-135327965D01*
X173703161Y-135326205D01*
X173425636Y-135197808D01*
X173371600Y-135172808D01*
X173371595Y-135172806D01*
X173368502Y-135171375D01*
X173196599Y-135113454D01*
X173022301Y-135054726D01*
X173022295Y-135054724D01*
X173019065Y-135053636D01*
X172909848Y-135029595D01*
X172662278Y-134975101D01*
X172662274Y-134975100D01*
X172658947Y-134974368D01*
X172655557Y-134973999D01*
X172655555Y-134973999D01*
X172591723Y-134967057D01*
X172292369Y-134934500D01*
X171923629Y-134934500D01*
X171624275Y-134967057D01*
X171560443Y-134973999D01*
X171560441Y-134973999D01*
X171557051Y-134974368D01*
X171553724Y-134975100D01*
X171553720Y-134975101D01*
X171306150Y-135029595D01*
X171196933Y-135053636D01*
X171193703Y-135054724D01*
X171193697Y-135054726D01*
X171019399Y-135113454D01*
X170847496Y-135171375D01*
X170844403Y-135172806D01*
X170844398Y-135172808D01*
X170790362Y-135197808D01*
X170512837Y-135326205D01*
X170509912Y-135327965D01*
X170509910Y-135327966D01*
X170471287Y-135351205D01*
X170196880Y-135516310D01*
X169903329Y-135739462D01*
X169635626Y-135993044D01*
X169633421Y-135995640D01*
X169633420Y-135995641D01*
X169618989Y-136012631D01*
X169396909Y-136274083D01*
X169394999Y-136276901D01*
X169394993Y-136276908D01*
X169191891Y-136576461D01*
X169189977Y-136579284D01*
X169017256Y-136905070D01*
X169015995Y-136908235D01*
X169015994Y-136908237D01*
X169007295Y-136930070D01*
X168880772Y-137247621D01*
X168879861Y-137250902D01*
X168879859Y-137250908D01*
X168810729Y-137499895D01*
X168782124Y-137602919D01*
X168781571Y-137606292D01*
X168780259Y-137614292D01*
X168722468Y-137966801D01*
X168702505Y-138335000D01*
X163471139Y-138335000D01*
X163452531Y-137991801D01*
X163392875Y-137627919D01*
X163364270Y-137524895D01*
X163295140Y-137275908D01*
X163295138Y-137275902D01*
X163294227Y-137272621D01*
X163167592Y-136954789D01*
X163159005Y-136933237D01*
X163159004Y-136933235D01*
X163157743Y-136930070D01*
X162985022Y-136604284D01*
X162978920Y-136595284D01*
X162780006Y-136301908D01*
X162780000Y-136301901D01*
X162778090Y-136299083D01*
X162539373Y-136018044D01*
X162271670Y-135764462D01*
X162267636Y-135761395D01*
X162111767Y-135642907D01*
X161978119Y-135541310D01*
X161961892Y-135531546D01*
X161665089Y-135352966D01*
X161665087Y-135352965D01*
X161662162Y-135351205D01*
X161403896Y-135231718D01*
X161330601Y-135197808D01*
X161330596Y-135197806D01*
X161327503Y-135196375D01*
X161146832Y-135135500D01*
X160981302Y-135079726D01*
X160981296Y-135079724D01*
X160978066Y-135078636D01*
X160861155Y-135052902D01*
X160621279Y-135000101D01*
X160621275Y-135000100D01*
X160617948Y-134999368D01*
X160614558Y-134998999D01*
X160614556Y-134998999D01*
X160531802Y-134989999D01*
X160251370Y-134959500D01*
X159882630Y-134959500D01*
X159602198Y-134989999D01*
X159519444Y-134998999D01*
X159519442Y-134998999D01*
X159516052Y-134999368D01*
X159512725Y-135000100D01*
X159512721Y-135000101D01*
X159272845Y-135052902D01*
X159155934Y-135078636D01*
X159152704Y-135079724D01*
X159152698Y-135079726D01*
X158987168Y-135135500D01*
X158806497Y-135196375D01*
X158803404Y-135197806D01*
X158803399Y-135197808D01*
X158730104Y-135231718D01*
X158471838Y-135351205D01*
X158468913Y-135352965D01*
X158468911Y-135352966D01*
X158172109Y-135531546D01*
X158155881Y-135541310D01*
X158022233Y-135642907D01*
X157866365Y-135761395D01*
X157862330Y-135764462D01*
X157594627Y-136018044D01*
X157355910Y-136299083D01*
X157354000Y-136301901D01*
X157353994Y-136301908D01*
X157155080Y-136595284D01*
X157148978Y-136604284D01*
X156976257Y-136930070D01*
X156974996Y-136933235D01*
X156974995Y-136933237D01*
X156966408Y-136954789D01*
X156839773Y-137272621D01*
X156838862Y-137275902D01*
X156838860Y-137275908D01*
X156769730Y-137524895D01*
X156741125Y-137627919D01*
X156681469Y-137991801D01*
X156661506Y-138360000D01*
X151486440Y-138360000D01*
X151486494Y-138359000D01*
X151466531Y-137990801D01*
X151406875Y-137626919D01*
X151317015Y-137303272D01*
X151309140Y-137274908D01*
X151309138Y-137274902D01*
X151308227Y-137271621D01*
X151171743Y-136929070D01*
X150999022Y-136603284D01*
X150993598Y-136595284D01*
X150794006Y-136300908D01*
X150794000Y-136300901D01*
X150792090Y-136298083D01*
X150553373Y-136017044D01*
X150285670Y-135763462D01*
X150251380Y-135737395D01*
X150104718Y-135625906D01*
X149992119Y-135540310D01*
X149977554Y-135531546D01*
X149679089Y-135351966D01*
X149679087Y-135351965D01*
X149676162Y-135350205D01*
X149404927Y-135224718D01*
X149344601Y-135196808D01*
X149344596Y-135196806D01*
X149341503Y-135195375D01*
X149163800Y-135135500D01*
X148995302Y-135078726D01*
X148995296Y-135078724D01*
X148992066Y-135077636D01*
X148879698Y-135052902D01*
X148635279Y-134999101D01*
X148635275Y-134999100D01*
X148631948Y-134998368D01*
X148628558Y-134997999D01*
X148628556Y-134997999D01*
X148554997Y-134989999D01*
X148265370Y-134958500D01*
X147896630Y-134958500D01*
X147607003Y-134989999D01*
X147533444Y-134997999D01*
X147533442Y-134997999D01*
X147530052Y-134998368D01*
X147526725Y-134999100D01*
X147526721Y-134999101D01*
X147282302Y-135052902D01*
X147169934Y-135077636D01*
X147166704Y-135078724D01*
X147166698Y-135078726D01*
X146998200Y-135135500D01*
X146820497Y-135195375D01*
X146817404Y-135196806D01*
X146817399Y-135196808D01*
X146757073Y-135224718D01*
X146485838Y-135350205D01*
X146482913Y-135351965D01*
X146482911Y-135351966D01*
X146184447Y-135531546D01*
X146169881Y-135540310D01*
X146057282Y-135625906D01*
X145910621Y-135737395D01*
X145876330Y-135763462D01*
X145608627Y-136017044D01*
X145369910Y-136298083D01*
X145368000Y-136300901D01*
X145367994Y-136300908D01*
X145168402Y-136595284D01*
X145162978Y-136603284D01*
X144990257Y-136929070D01*
X144853773Y-137271621D01*
X144852862Y-137274902D01*
X144852860Y-137274908D01*
X144844985Y-137303272D01*
X144755125Y-137626919D01*
X144695469Y-137990801D01*
X144675506Y-138359000D01*
X138710500Y-138359000D01*
X138710500Y-123780000D01*
X144654506Y-123780000D01*
X144674469Y-124148199D01*
X144734125Y-124512081D01*
X144735040Y-124515376D01*
X144826863Y-124846092D01*
X144832773Y-124867379D01*
X144969257Y-125209930D01*
X145141978Y-125535716D01*
X145143892Y-125538538D01*
X145143892Y-125538539D01*
X145346994Y-125838092D01*
X145347000Y-125838099D01*
X145348910Y-125840917D01*
X145351123Y-125843522D01*
X145574330Y-126106301D01*
X145587627Y-126121956D01*
X145855330Y-126375538D01*
X146148881Y-126598690D01*
X146151810Y-126600453D01*
X146151814Y-126600455D01*
X146427009Y-126766034D01*
X146464838Y-126788795D01*
X146647451Y-126873281D01*
X146796399Y-126942192D01*
X146796404Y-126942194D01*
X146799497Y-126943625D01*
X146971400Y-127001546D01*
X147145698Y-127060274D01*
X147145704Y-127060276D01*
X147148934Y-127061364D01*
X147152271Y-127062098D01*
X147152269Y-127062098D01*
X147505721Y-127139899D01*
X147505725Y-127139900D01*
X147509052Y-127140632D01*
X147512442Y-127141001D01*
X147512444Y-127141001D01*
X147576276Y-127147943D01*
X147875630Y-127180500D01*
X148244370Y-127180500D01*
X148543724Y-127147943D01*
X148607556Y-127141001D01*
X148607558Y-127141001D01*
X148610948Y-127140632D01*
X148614275Y-127139900D01*
X148614279Y-127139899D01*
X148967731Y-127062098D01*
X148967729Y-127062098D01*
X148971066Y-127061364D01*
X148974296Y-127060276D01*
X148974302Y-127060274D01*
X149148600Y-127001546D01*
X149320503Y-126943625D01*
X149323596Y-126942194D01*
X149323601Y-126942192D01*
X149472549Y-126873281D01*
X149655162Y-126788795D01*
X149692991Y-126766034D01*
X149968186Y-126600455D01*
X149968190Y-126600453D01*
X149971119Y-126598690D01*
X150264670Y-126375538D01*
X150532373Y-126121956D01*
X150545671Y-126106301D01*
X150768877Y-125843522D01*
X150771090Y-125840917D01*
X150773000Y-125838099D01*
X150773006Y-125838092D01*
X150976108Y-125538539D01*
X150976108Y-125538538D01*
X150978022Y-125535716D01*
X151150743Y-125209930D01*
X151287227Y-124867379D01*
X151293138Y-124846092D01*
X151384960Y-124515376D01*
X151385875Y-124512081D01*
X151445531Y-124148199D01*
X151465494Y-123780000D01*
X151464518Y-123762000D01*
X156672506Y-123762000D01*
X156692469Y-124130199D01*
X156752125Y-124494081D01*
X156753038Y-124497368D01*
X156753040Y-124497376D01*
X156849434Y-124844555D01*
X156850773Y-124849379D01*
X156945103Y-125086132D01*
X156977807Y-125168211D01*
X156987257Y-125191930D01*
X157159978Y-125517716D01*
X157161892Y-125520538D01*
X157161892Y-125520539D01*
X157364994Y-125820092D01*
X157365000Y-125820099D01*
X157366910Y-125822917D01*
X157605627Y-126103956D01*
X157873330Y-126357538D01*
X158166881Y-126580690D01*
X158169810Y-126582453D01*
X158169814Y-126582455D01*
X158479911Y-126769034D01*
X158482838Y-126770795D01*
X158680584Y-126862282D01*
X158814399Y-126924192D01*
X158814404Y-126924194D01*
X158817497Y-126925625D01*
X158968489Y-126976500D01*
X159163698Y-127042274D01*
X159163704Y-127042276D01*
X159166934Y-127043364D01*
X159170271Y-127044098D01*
X159170269Y-127044098D01*
X159523721Y-127121899D01*
X159523725Y-127121900D01*
X159527052Y-127122632D01*
X159530442Y-127123001D01*
X159530444Y-127123001D01*
X159594276Y-127129943D01*
X159893630Y-127162500D01*
X160262370Y-127162500D01*
X160561724Y-127129943D01*
X160625556Y-127123001D01*
X160625558Y-127123001D01*
X160628948Y-127122632D01*
X160632275Y-127121900D01*
X160632279Y-127121899D01*
X160985731Y-127044098D01*
X160985729Y-127044098D01*
X160989066Y-127043364D01*
X160992296Y-127042276D01*
X160992302Y-127042274D01*
X161187511Y-126976500D01*
X161338503Y-126925625D01*
X161341596Y-126924194D01*
X161341601Y-126924192D01*
X161475416Y-126862282D01*
X161673162Y-126770795D01*
X161676089Y-126769034D01*
X161986186Y-126582455D01*
X161986190Y-126582453D01*
X161989119Y-126580690D01*
X162282670Y-126357538D01*
X162550373Y-126103956D01*
X162789090Y-125822917D01*
X162791000Y-125820099D01*
X162791006Y-125820092D01*
X162994108Y-125520539D01*
X162994108Y-125520538D01*
X162996022Y-125517716D01*
X163168743Y-125191930D01*
X163178194Y-125168211D01*
X163210897Y-125086132D01*
X163305227Y-124849379D01*
X163306567Y-124844555D01*
X163402960Y-124497376D01*
X163402962Y-124497368D01*
X163403875Y-124494081D01*
X163463531Y-124130199D01*
X163483494Y-123762000D01*
X168729507Y-123762000D01*
X168749470Y-124130199D01*
X168751860Y-124144779D01*
X168808286Y-124488956D01*
X168809126Y-124494080D01*
X168907774Y-124849379D01*
X168909037Y-124852548D01*
X168909039Y-124852555D01*
X169042996Y-125188762D01*
X169042997Y-125188764D01*
X169044258Y-125191929D01*
X169216979Y-125517715D01*
X169218893Y-125520537D01*
X169218893Y-125520538D01*
X169421996Y-125820092D01*
X169423911Y-125822917D01*
X169662627Y-126103956D01*
X169665092Y-126106291D01*
X169665093Y-126106292D01*
X169927857Y-126355195D01*
X169927862Y-126355199D01*
X169930331Y-126357538D01*
X169933037Y-126359595D01*
X169933044Y-126359601D01*
X170054717Y-126452094D01*
X170223881Y-126580689D01*
X170226810Y-126582452D01*
X170226814Y-126582454D01*
X170536911Y-126769033D01*
X170539838Y-126770794D01*
X170737586Y-126862282D01*
X170871399Y-126924191D01*
X170871402Y-126924192D01*
X170874497Y-126925624D01*
X171025492Y-126976500D01*
X171220698Y-127042273D01*
X171220702Y-127042274D01*
X171223934Y-127043363D01*
X171295419Y-127059098D01*
X171580722Y-127121898D01*
X171580726Y-127121899D01*
X171584053Y-127122631D01*
X171587443Y-127123000D01*
X171587445Y-127123000D01*
X171650842Y-127129895D01*
X171950630Y-127162499D01*
X172319370Y-127162499D01*
X172619158Y-127129895D01*
X172682555Y-127123000D01*
X172682557Y-127123000D01*
X172685947Y-127122631D01*
X172689274Y-127121899D01*
X172689278Y-127121898D01*
X172974581Y-127059098D01*
X173046066Y-127043363D01*
X173049298Y-127042274D01*
X173049302Y-127042273D01*
X173244508Y-126976500D01*
X173395503Y-126925624D01*
X173398598Y-126924192D01*
X173398601Y-126924191D01*
X173532414Y-126862282D01*
X173730162Y-126770794D01*
X173733089Y-126769033D01*
X174043186Y-126582454D01*
X174043190Y-126582452D01*
X174046119Y-126580689D01*
X174215283Y-126452094D01*
X174336956Y-126359601D01*
X174336963Y-126359595D01*
X174339669Y-126357538D01*
X174342138Y-126355199D01*
X174342143Y-126355195D01*
X174604907Y-126106292D01*
X174604908Y-126106291D01*
X174607373Y-126103956D01*
X174846089Y-125822917D01*
X174848005Y-125820092D01*
X175051107Y-125520538D01*
X175051107Y-125520537D01*
X175053021Y-125517715D01*
X175225742Y-125191929D01*
X175227003Y-125188764D01*
X175227004Y-125188762D01*
X175360961Y-124852555D01*
X175360963Y-124852548D01*
X175362226Y-124849379D01*
X175460874Y-124494080D01*
X175461715Y-124488956D01*
X175518140Y-124144779D01*
X175520530Y-124130199D01*
X175539680Y-123777000D01*
X180725506Y-123777000D01*
X180745469Y-124145199D01*
X180805125Y-124509081D01*
X180806040Y-124512376D01*
X180898696Y-124846092D01*
X180903773Y-124864379D01*
X180905036Y-124867548D01*
X181035481Y-125194942D01*
X181040257Y-125206930D01*
X181212978Y-125532716D01*
X181214892Y-125535538D01*
X181214892Y-125535539D01*
X181417994Y-125835092D01*
X181418000Y-125835099D01*
X181419910Y-125837917D01*
X181424671Y-125843522D01*
X181645330Y-126103301D01*
X181658627Y-126118956D01*
X181926330Y-126372538D01*
X181929048Y-126374604D01*
X181929049Y-126374605D01*
X181986932Y-126418606D01*
X182219881Y-126595690D01*
X182222810Y-126597453D01*
X182222814Y-126597455D01*
X182502995Y-126766034D01*
X182535838Y-126785795D01*
X182701162Y-126862282D01*
X182867399Y-126939192D01*
X182867404Y-126939194D01*
X182870497Y-126940625D01*
X182985874Y-126979500D01*
X183216698Y-127057274D01*
X183216704Y-127057276D01*
X183219934Y-127058364D01*
X183233563Y-127061364D01*
X183576721Y-127136899D01*
X183576725Y-127136900D01*
X183580052Y-127137632D01*
X183583442Y-127138001D01*
X183583444Y-127138001D01*
X183607636Y-127140632D01*
X183946630Y-127177500D01*
X184315370Y-127177500D01*
X184654364Y-127140632D01*
X184678556Y-127138001D01*
X184678558Y-127138001D01*
X184681948Y-127137632D01*
X184685275Y-127136900D01*
X184685279Y-127136899D01*
X185028437Y-127061364D01*
X185042066Y-127058364D01*
X185045296Y-127057276D01*
X185045302Y-127057274D01*
X185276126Y-126979500D01*
X185391503Y-126940625D01*
X185394596Y-126939194D01*
X185394601Y-126939192D01*
X185560838Y-126862282D01*
X185726162Y-126785795D01*
X185759005Y-126766034D01*
X186039186Y-126597455D01*
X186039190Y-126597453D01*
X186042119Y-126595690D01*
X186275068Y-126418606D01*
X186332951Y-126374605D01*
X186332952Y-126374604D01*
X186335670Y-126372538D01*
X186603373Y-126118956D01*
X186616671Y-126103301D01*
X186837329Y-125843522D01*
X186842090Y-125837917D01*
X186844000Y-125835099D01*
X186844006Y-125835092D01*
X187047108Y-125535539D01*
X187047108Y-125535538D01*
X187049022Y-125532716D01*
X187221743Y-125206930D01*
X187226520Y-125194942D01*
X187356964Y-124867548D01*
X187358227Y-124864379D01*
X187363305Y-124846092D01*
X187455960Y-124512376D01*
X187456875Y-124509081D01*
X187516531Y-124145199D01*
X187536494Y-123777000D01*
X187535518Y-123759000D01*
X192764506Y-123759000D01*
X192784469Y-124127199D01*
X192844125Y-124491081D01*
X192872730Y-124594105D01*
X192941385Y-124841379D01*
X192942773Y-124846379D01*
X192952403Y-124870548D01*
X193076003Y-125180762D01*
X193079257Y-125188930D01*
X193251978Y-125514716D01*
X193253892Y-125517538D01*
X193253892Y-125517539D01*
X193456994Y-125817092D01*
X193457000Y-125817099D01*
X193458910Y-125819917D01*
X193616451Y-126005388D01*
X193691183Y-126093369D01*
X193697627Y-126100956D01*
X193965330Y-126354538D01*
X193968048Y-126356604D01*
X193968049Y-126356605D01*
X193985913Y-126370185D01*
X194258881Y-126577690D01*
X194261810Y-126579453D01*
X194261814Y-126579455D01*
X194545319Y-126750034D01*
X194574838Y-126767795D01*
X194644351Y-126799955D01*
X194906399Y-126921192D01*
X194906404Y-126921194D01*
X194909497Y-126922625D01*
X195018588Y-126959382D01*
X195255698Y-127039274D01*
X195255704Y-127039276D01*
X195258934Y-127040364D01*
X195275898Y-127044098D01*
X195615721Y-127118899D01*
X195615725Y-127118900D01*
X195619052Y-127119632D01*
X195622442Y-127120001D01*
X195622444Y-127120001D01*
X195646627Y-127122631D01*
X195985630Y-127159500D01*
X196354370Y-127159500D01*
X196693373Y-127122631D01*
X196717556Y-127120001D01*
X196717558Y-127120001D01*
X196720948Y-127119632D01*
X196724275Y-127118900D01*
X196724279Y-127118899D01*
X197064102Y-127044098D01*
X197081066Y-127040364D01*
X197084296Y-127039276D01*
X197084302Y-127039274D01*
X197321412Y-126959382D01*
X197430503Y-126922625D01*
X197433596Y-126921194D01*
X197433601Y-126921192D01*
X197695649Y-126799955D01*
X197765162Y-126767795D01*
X197794681Y-126750034D01*
X198078186Y-126579455D01*
X198078190Y-126579453D01*
X198081119Y-126577690D01*
X198354087Y-126370185D01*
X198371951Y-126356605D01*
X198371952Y-126356604D01*
X198374670Y-126354538D01*
X198642373Y-126100956D01*
X198648818Y-126093369D01*
X198723549Y-126005388D01*
X198881090Y-125819917D01*
X198883000Y-125817099D01*
X198883006Y-125817092D01*
X199086108Y-125517539D01*
X199086108Y-125517538D01*
X199088022Y-125514716D01*
X199260743Y-125188930D01*
X199263998Y-125180762D01*
X199387597Y-124870548D01*
X199397227Y-124846379D01*
X199398616Y-124841379D01*
X199467270Y-124594105D01*
X199495875Y-124491081D01*
X199555531Y-124127199D01*
X199575494Y-123759000D01*
X199574627Y-123743000D01*
X204778506Y-123743000D01*
X204798469Y-124111199D01*
X204858125Y-124475081D01*
X204867565Y-124509081D01*
X204948263Y-124799728D01*
X204956773Y-124830379D01*
X204972778Y-124870548D01*
X205081018Y-125142211D01*
X205093257Y-125172930D01*
X205265978Y-125498716D01*
X205267892Y-125501538D01*
X205267892Y-125501539D01*
X205470994Y-125801092D01*
X205471000Y-125801099D01*
X205472910Y-125803917D01*
X205711627Y-126084956D01*
X205979330Y-126338538D01*
X206272881Y-126561690D01*
X206275810Y-126563453D01*
X206275814Y-126563455D01*
X206440678Y-126662650D01*
X206588838Y-126751795D01*
X206804052Y-126851364D01*
X206920399Y-126905192D01*
X206920404Y-126905194D01*
X206923497Y-126906625D01*
X207033309Y-126943625D01*
X207269698Y-127023274D01*
X207269704Y-127023276D01*
X207272934Y-127024364D01*
X207382151Y-127048405D01*
X207629721Y-127102899D01*
X207629725Y-127102900D01*
X207633052Y-127103632D01*
X207636442Y-127104001D01*
X207636444Y-127104001D01*
X207700276Y-127110943D01*
X207999630Y-127143500D01*
X208368370Y-127143500D01*
X208667724Y-127110943D01*
X208731556Y-127104001D01*
X208731558Y-127104001D01*
X208734948Y-127103632D01*
X208738275Y-127102900D01*
X208738279Y-127102899D01*
X208985849Y-127048405D01*
X209095066Y-127024364D01*
X209098296Y-127023276D01*
X209098302Y-127023274D01*
X209334691Y-126943625D01*
X209444503Y-126906625D01*
X209447596Y-126905194D01*
X209447601Y-126905192D01*
X209563948Y-126851364D01*
X209779162Y-126751795D01*
X209927322Y-126662650D01*
X210092186Y-126563455D01*
X210092190Y-126563453D01*
X210095119Y-126561690D01*
X210388670Y-126338538D01*
X210656373Y-126084956D01*
X210895090Y-125803917D01*
X210897000Y-125801099D01*
X210897006Y-125801092D01*
X211100108Y-125501539D01*
X211100108Y-125501538D01*
X211102022Y-125498716D01*
X211274743Y-125172930D01*
X211286983Y-125142211D01*
X211395222Y-124870548D01*
X211411227Y-124830379D01*
X211419738Y-124799728D01*
X211500435Y-124509081D01*
X211509875Y-124475081D01*
X211569531Y-124111199D01*
X211588898Y-123754000D01*
X216798507Y-123754000D01*
X216818470Y-124122199D01*
X216821098Y-124138230D01*
X216876863Y-124478376D01*
X216878126Y-124486080D01*
X216976774Y-124841379D01*
X216978037Y-124844548D01*
X216978039Y-124844555D01*
X217110076Y-125175942D01*
X217113258Y-125183929D01*
X217285979Y-125509715D01*
X217287893Y-125512537D01*
X217287893Y-125512538D01*
X217485453Y-125803917D01*
X217492911Y-125814917D01*
X217731627Y-126095956D01*
X217734092Y-126098291D01*
X217734093Y-126098292D01*
X217996857Y-126347195D01*
X217996862Y-126347199D01*
X217999331Y-126349538D01*
X218002037Y-126351595D01*
X218002044Y-126351601D01*
X218159234Y-126471093D01*
X218292881Y-126572689D01*
X218295810Y-126574452D01*
X218295814Y-126574454D01*
X218592944Y-126753231D01*
X218608838Y-126762794D01*
X218823877Y-126862282D01*
X218940399Y-126916191D01*
X218940404Y-126916193D01*
X218943497Y-126917624D01*
X219115400Y-126975545D01*
X219289698Y-127034273D01*
X219289704Y-127034275D01*
X219292934Y-127035363D01*
X219329283Y-127043364D01*
X219649722Y-127113898D01*
X219649726Y-127113899D01*
X219653053Y-127114631D01*
X219656443Y-127115000D01*
X219656445Y-127115000D01*
X219692296Y-127118899D01*
X220019630Y-127154499D01*
X220388370Y-127154499D01*
X220715704Y-127118899D01*
X220751555Y-127115000D01*
X220751557Y-127115000D01*
X220754947Y-127114631D01*
X220758274Y-127113899D01*
X220758278Y-127113898D01*
X221078717Y-127043364D01*
X221115066Y-127035363D01*
X221118296Y-127034275D01*
X221118302Y-127034273D01*
X221292600Y-126975545D01*
X221464503Y-126917624D01*
X221467596Y-126916193D01*
X221467601Y-126916191D01*
X221584123Y-126862282D01*
X221799162Y-126762794D01*
X221815056Y-126753231D01*
X222112186Y-126574454D01*
X222112190Y-126574452D01*
X222115119Y-126572689D01*
X222248766Y-126471093D01*
X222405956Y-126351601D01*
X222405963Y-126351595D01*
X222408669Y-126349538D01*
X222411138Y-126347199D01*
X222411143Y-126347195D01*
X222673907Y-126098292D01*
X222673908Y-126098291D01*
X222676373Y-126095956D01*
X222915089Y-125814917D01*
X222922548Y-125803917D01*
X223120107Y-125512538D01*
X223120107Y-125512537D01*
X223122021Y-125509715D01*
X223294742Y-125183929D01*
X223297924Y-125175942D01*
X223429961Y-124844555D01*
X223429963Y-124844548D01*
X223431226Y-124841379D01*
X223529874Y-124486080D01*
X223531138Y-124478376D01*
X223586902Y-124138230D01*
X223589530Y-124122199D01*
X223609493Y-123754000D01*
X223589530Y-123385801D01*
X223536944Y-123065044D01*
X223530426Y-123025284D01*
X223530424Y-123025275D01*
X223529874Y-123021920D01*
X223431226Y-122666621D01*
X223426844Y-122655621D01*
X223296004Y-122327238D01*
X223296003Y-122327236D01*
X223294742Y-122324071D01*
X223122021Y-121998285D01*
X222975474Y-121782144D01*
X222916998Y-121695898D01*
X222916994Y-121695893D01*
X222915089Y-121693083D01*
X222676373Y-121412044D01*
X222667502Y-121403641D01*
X222411143Y-121160805D01*
X222411138Y-121160801D01*
X222408669Y-121158462D01*
X222405963Y-121156405D01*
X222405956Y-121156399D01*
X222146998Y-120959545D01*
X222115119Y-120935311D01*
X222100278Y-120926381D01*
X221802089Y-120746967D01*
X221802087Y-120746966D01*
X221799162Y-120745206D01*
X221560349Y-120634719D01*
X221467601Y-120591809D01*
X221467596Y-120591807D01*
X221464503Y-120590376D01*
X221292600Y-120532455D01*
X221118302Y-120473727D01*
X221118296Y-120473725D01*
X221115066Y-120472637D01*
X220859433Y-120416368D01*
X220758278Y-120394102D01*
X220758274Y-120394101D01*
X220754947Y-120393369D01*
X220751557Y-120393000D01*
X220751555Y-120393000D01*
X220650402Y-120381999D01*
X220388370Y-120353501D01*
X220019630Y-120353501D01*
X219757598Y-120381999D01*
X219656445Y-120393000D01*
X219656443Y-120393000D01*
X219653053Y-120393369D01*
X219649726Y-120394101D01*
X219649722Y-120394102D01*
X219548567Y-120416368D01*
X219292934Y-120472637D01*
X219289704Y-120473725D01*
X219289698Y-120473727D01*
X219115400Y-120532455D01*
X218943497Y-120590376D01*
X218940404Y-120591807D01*
X218940399Y-120591809D01*
X218847651Y-120634719D01*
X218608838Y-120745206D01*
X218605913Y-120746966D01*
X218605911Y-120746967D01*
X218307723Y-120926381D01*
X218292881Y-120935311D01*
X218261002Y-120959545D01*
X218002044Y-121156399D01*
X218002037Y-121156405D01*
X217999331Y-121158462D01*
X217996862Y-121160801D01*
X217996857Y-121160805D01*
X217740498Y-121403641D01*
X217731627Y-121412044D01*
X217492911Y-121693083D01*
X217491006Y-121695893D01*
X217491002Y-121695898D01*
X217432526Y-121782144D01*
X217285979Y-121998285D01*
X217113258Y-122324071D01*
X217111997Y-122327236D01*
X217111996Y-122327238D01*
X216981157Y-122655621D01*
X216976774Y-122666621D01*
X216878126Y-123021920D01*
X216877576Y-123025275D01*
X216877574Y-123025284D01*
X216871056Y-123065044D01*
X216818470Y-123385801D01*
X216798507Y-123754000D01*
X211588898Y-123754000D01*
X211589494Y-123743000D01*
X211569531Y-123374801D01*
X211511679Y-123021920D01*
X211510428Y-123014292D01*
X211509875Y-123010919D01*
X211430010Y-122723272D01*
X211412140Y-122658908D01*
X211412138Y-122658902D01*
X211411227Y-122655621D01*
X211287090Y-122344058D01*
X211276005Y-122316237D01*
X211276004Y-122316235D01*
X211274743Y-122313070D01*
X211102022Y-121987284D01*
X211100108Y-121984461D01*
X210897006Y-121684908D01*
X210897000Y-121684901D01*
X210895090Y-121682083D01*
X210672512Y-121420044D01*
X210658579Y-121403641D01*
X210658578Y-121403640D01*
X210656373Y-121401044D01*
X210388670Y-121147462D01*
X210095119Y-120924310D01*
X210050312Y-120897350D01*
X209782089Y-120735966D01*
X209782087Y-120735965D01*
X209779162Y-120734205D01*
X209540349Y-120623718D01*
X209447601Y-120580808D01*
X209447596Y-120580806D01*
X209444503Y-120579375D01*
X209208113Y-120499726D01*
X209098302Y-120462726D01*
X209098296Y-120462724D01*
X209095066Y-120461636D01*
X208903041Y-120419368D01*
X208738279Y-120383101D01*
X208738275Y-120383100D01*
X208734948Y-120382368D01*
X208731558Y-120381999D01*
X208731556Y-120381999D01*
X208667724Y-120375057D01*
X208368370Y-120342500D01*
X207999630Y-120342500D01*
X207700276Y-120375057D01*
X207636444Y-120381999D01*
X207636442Y-120381999D01*
X207633052Y-120382368D01*
X207629725Y-120383100D01*
X207629721Y-120383101D01*
X207464959Y-120419368D01*
X207272934Y-120461636D01*
X207269704Y-120462724D01*
X207269698Y-120462726D01*
X207159887Y-120499726D01*
X206923497Y-120579375D01*
X206920404Y-120580806D01*
X206920399Y-120580808D01*
X206827651Y-120623718D01*
X206588838Y-120734205D01*
X206585913Y-120735965D01*
X206585911Y-120735966D01*
X206317689Y-120897350D01*
X206272881Y-120924310D01*
X205979330Y-121147462D01*
X205711627Y-121401044D01*
X205709422Y-121403640D01*
X205709421Y-121403641D01*
X205695488Y-121420044D01*
X205472910Y-121682083D01*
X205471000Y-121684901D01*
X205470994Y-121684908D01*
X205267892Y-121984461D01*
X205265978Y-121987284D01*
X205093257Y-122313070D01*
X205091996Y-122316235D01*
X205091995Y-122316237D01*
X205080910Y-122344058D01*
X204956773Y-122655621D01*
X204955862Y-122658902D01*
X204955860Y-122658908D01*
X204937990Y-122723272D01*
X204858125Y-123010919D01*
X204857572Y-123014292D01*
X204856321Y-123021920D01*
X204798469Y-123374801D01*
X204778506Y-123743000D01*
X199574627Y-123743000D01*
X199555531Y-123390801D01*
X199496920Y-123033292D01*
X199496428Y-123030292D01*
X199495875Y-123026919D01*
X199406570Y-122705272D01*
X199398140Y-122674908D01*
X199398138Y-122674902D01*
X199397227Y-122671621D01*
X199260743Y-122329070D01*
X199088022Y-122003284D01*
X198938085Y-121782144D01*
X198883006Y-121700908D01*
X198883000Y-121700901D01*
X198881090Y-121698083D01*
X198696368Y-121480612D01*
X198644579Y-121419641D01*
X198644578Y-121419640D01*
X198642373Y-121417044D01*
X198374670Y-121163462D01*
X198081119Y-120940310D01*
X198069878Y-120933546D01*
X197768089Y-120751966D01*
X197768087Y-120751965D01*
X197765162Y-120750205D01*
X197515544Y-120634719D01*
X197433601Y-120596808D01*
X197433596Y-120596806D01*
X197430503Y-120595375D01*
X197143392Y-120498636D01*
X197084302Y-120478726D01*
X197084296Y-120478724D01*
X197081066Y-120477636D01*
X196971849Y-120453595D01*
X196724279Y-120399101D01*
X196724275Y-120399100D01*
X196720948Y-120398368D01*
X196717558Y-120397999D01*
X196717556Y-120397999D01*
X196653724Y-120391057D01*
X196354370Y-120358500D01*
X195985630Y-120358500D01*
X195686276Y-120391057D01*
X195622444Y-120397999D01*
X195622442Y-120397999D01*
X195619052Y-120398368D01*
X195615725Y-120399100D01*
X195615721Y-120399101D01*
X195368151Y-120453595D01*
X195258934Y-120477636D01*
X195255704Y-120478724D01*
X195255698Y-120478726D01*
X195196608Y-120498636D01*
X194909497Y-120595375D01*
X194906404Y-120596806D01*
X194906399Y-120596808D01*
X194824456Y-120634719D01*
X194574838Y-120750205D01*
X194571913Y-120751965D01*
X194571911Y-120751966D01*
X194270123Y-120933546D01*
X194258881Y-120940310D01*
X193965330Y-121163462D01*
X193697627Y-121417044D01*
X193695422Y-121419640D01*
X193695421Y-121419641D01*
X193643632Y-121480612D01*
X193458910Y-121698083D01*
X193457000Y-121700901D01*
X193456994Y-121700908D01*
X193401915Y-121782144D01*
X193251978Y-122003284D01*
X193079257Y-122329070D01*
X192942773Y-122671621D01*
X192941862Y-122674902D01*
X192941860Y-122674908D01*
X192933430Y-122705272D01*
X192844125Y-123026919D01*
X192843572Y-123030292D01*
X192843080Y-123033292D01*
X192784469Y-123390801D01*
X192764506Y-123759000D01*
X187535518Y-123759000D01*
X187516531Y-123408801D01*
X187456875Y-123044919D01*
X187367570Y-122723272D01*
X187359140Y-122692908D01*
X187359138Y-122692902D01*
X187358227Y-122689621D01*
X187232389Y-122373789D01*
X187223005Y-122350237D01*
X187223004Y-122350235D01*
X187221743Y-122347070D01*
X187049022Y-122021284D01*
X186886881Y-121782144D01*
X186844006Y-121718908D01*
X186844000Y-121718901D01*
X186842090Y-121716083D01*
X186603373Y-121435044D01*
X186335670Y-121181462D01*
X186042119Y-120958310D01*
X186020633Y-120945382D01*
X185729089Y-120769966D01*
X185729087Y-120769965D01*
X185726162Y-120768205D01*
X185454927Y-120642718D01*
X185394601Y-120614808D01*
X185394596Y-120614806D01*
X185391503Y-120613375D01*
X185216771Y-120554501D01*
X185045302Y-120496726D01*
X185045296Y-120496724D01*
X185042066Y-120495636D01*
X184932849Y-120471595D01*
X184685279Y-120417101D01*
X184685275Y-120417100D01*
X184681948Y-120416368D01*
X184678558Y-120415999D01*
X184678556Y-120415999D01*
X184614724Y-120409057D01*
X184315370Y-120376500D01*
X183946630Y-120376500D01*
X183647276Y-120409057D01*
X183583444Y-120415999D01*
X183583442Y-120415999D01*
X183580052Y-120416368D01*
X183576725Y-120417100D01*
X183576721Y-120417101D01*
X183329151Y-120471595D01*
X183219934Y-120495636D01*
X183216704Y-120496724D01*
X183216698Y-120496726D01*
X183045229Y-120554501D01*
X182870497Y-120613375D01*
X182867404Y-120614806D01*
X182867399Y-120614808D01*
X182807073Y-120642718D01*
X182535838Y-120768205D01*
X182532913Y-120769965D01*
X182532911Y-120769966D01*
X182241368Y-120945382D01*
X182219881Y-120958310D01*
X181926330Y-121181462D01*
X181658627Y-121435044D01*
X181419910Y-121716083D01*
X181418000Y-121718901D01*
X181417994Y-121718908D01*
X181375119Y-121782144D01*
X181212978Y-122021284D01*
X181040257Y-122347070D01*
X181038996Y-122350235D01*
X181038995Y-122350237D01*
X181029611Y-122373789D01*
X180903773Y-122689621D01*
X180902862Y-122692902D01*
X180902860Y-122692908D01*
X180894430Y-122723272D01*
X180805125Y-123044919D01*
X180745469Y-123408801D01*
X180725506Y-123777000D01*
X175539680Y-123777000D01*
X175540493Y-123762000D01*
X175520530Y-123393801D01*
X175503198Y-123288084D01*
X175461426Y-123033284D01*
X175461424Y-123033275D01*
X175460874Y-123029920D01*
X175362226Y-122674621D01*
X175357774Y-122663445D01*
X175227004Y-122335238D01*
X175227003Y-122335236D01*
X175225742Y-122332071D01*
X175053021Y-122006285D01*
X174890880Y-121767145D01*
X174847998Y-121703898D01*
X174847994Y-121703893D01*
X174846089Y-121701083D01*
X174607373Y-121420044D01*
X174601659Y-121414631D01*
X174342143Y-121168805D01*
X174342138Y-121168801D01*
X174339669Y-121166462D01*
X174336963Y-121164405D01*
X174336956Y-121164399D01*
X174134853Y-121010765D01*
X174046119Y-120943311D01*
X174041132Y-120940310D01*
X173733089Y-120754967D01*
X173733087Y-120754966D01*
X173730162Y-120753206D01*
X173437505Y-120617808D01*
X173398601Y-120599809D01*
X173398596Y-120599807D01*
X173395503Y-120598376D01*
X173223600Y-120540455D01*
X173049302Y-120481727D01*
X173049296Y-120481725D01*
X173046066Y-120480637D01*
X172771048Y-120420101D01*
X172689278Y-120402102D01*
X172689274Y-120402101D01*
X172685947Y-120401369D01*
X172682557Y-120401000D01*
X172682555Y-120401000D01*
X172608996Y-120393000D01*
X172319370Y-120361501D01*
X171950630Y-120361501D01*
X171661004Y-120393000D01*
X171587445Y-120401000D01*
X171587443Y-120401000D01*
X171584053Y-120401369D01*
X171580726Y-120402101D01*
X171580722Y-120402102D01*
X171498952Y-120420101D01*
X171223934Y-120480637D01*
X171220704Y-120481725D01*
X171220698Y-120481727D01*
X171046400Y-120540455D01*
X170874497Y-120598376D01*
X170871404Y-120599807D01*
X170871399Y-120599809D01*
X170832495Y-120617808D01*
X170539838Y-120753206D01*
X170536913Y-120754966D01*
X170536911Y-120754967D01*
X170228869Y-120940310D01*
X170223881Y-120943311D01*
X170135147Y-121010765D01*
X169933044Y-121164399D01*
X169933037Y-121164405D01*
X169930331Y-121166462D01*
X169927862Y-121168801D01*
X169927857Y-121168805D01*
X169668341Y-121414631D01*
X169662627Y-121420044D01*
X169423911Y-121701083D01*
X169422006Y-121703893D01*
X169422002Y-121703898D01*
X169379120Y-121767145D01*
X169216979Y-122006285D01*
X169044258Y-122332071D01*
X169042997Y-122335236D01*
X169042996Y-122335238D01*
X168912227Y-122663445D01*
X168907774Y-122674621D01*
X168809126Y-123029920D01*
X168808576Y-123033275D01*
X168808574Y-123033284D01*
X168766802Y-123288084D01*
X168749470Y-123393801D01*
X168729507Y-123762000D01*
X163483494Y-123762000D01*
X163463531Y-123393801D01*
X163403875Y-123029919D01*
X163317902Y-122720272D01*
X163306140Y-122677908D01*
X163306138Y-122677902D01*
X163305227Y-122674621D01*
X163174715Y-122347058D01*
X163170005Y-122335237D01*
X163170004Y-122335235D01*
X163168743Y-122332070D01*
X162996022Y-122006284D01*
X162990599Y-121998285D01*
X162791006Y-121703908D01*
X162791000Y-121703901D01*
X162789090Y-121701083D01*
X162565320Y-121437641D01*
X162552579Y-121422641D01*
X162552570Y-121422631D01*
X162550373Y-121420044D01*
X162282670Y-121166462D01*
X162276005Y-121161395D01*
X162015522Y-120963381D01*
X161989119Y-120943310D01*
X161972892Y-120933546D01*
X161676089Y-120754966D01*
X161676087Y-120754965D01*
X161673162Y-120753205D01*
X161380507Y-120617808D01*
X161341601Y-120599808D01*
X161341596Y-120599806D01*
X161338503Y-120598375D01*
X161166600Y-120540454D01*
X160992302Y-120481726D01*
X160992296Y-120481724D01*
X160989066Y-120480636D01*
X160710723Y-120419368D01*
X160632279Y-120402101D01*
X160632275Y-120402100D01*
X160628948Y-120401368D01*
X160625558Y-120400999D01*
X160625556Y-120400999D01*
X160552006Y-120393000D01*
X160262370Y-120361500D01*
X159893630Y-120361500D01*
X159603994Y-120393000D01*
X159530444Y-120400999D01*
X159530442Y-120400999D01*
X159527052Y-120401368D01*
X159523725Y-120402100D01*
X159523721Y-120402101D01*
X159445277Y-120419368D01*
X159166934Y-120480636D01*
X159163704Y-120481724D01*
X159163698Y-120481726D01*
X158989400Y-120540454D01*
X158817497Y-120598375D01*
X158814404Y-120599806D01*
X158814399Y-120599808D01*
X158775493Y-120617808D01*
X158482838Y-120753205D01*
X158479913Y-120754965D01*
X158479911Y-120754966D01*
X158183109Y-120933546D01*
X158166881Y-120943310D01*
X158140478Y-120963381D01*
X157879996Y-121161395D01*
X157873330Y-121166462D01*
X157605627Y-121420044D01*
X157603430Y-121422631D01*
X157603421Y-121422641D01*
X157590680Y-121437641D01*
X157366910Y-121701083D01*
X157365000Y-121703901D01*
X157364994Y-121703908D01*
X157165401Y-121998285D01*
X157159978Y-122006284D01*
X156987257Y-122332070D01*
X156985996Y-122335235D01*
X156985995Y-122335237D01*
X156981285Y-122347058D01*
X156850773Y-122674621D01*
X156849862Y-122677902D01*
X156849860Y-122677908D01*
X156838098Y-122720272D01*
X156752125Y-123029919D01*
X156692469Y-123393801D01*
X156672506Y-123762000D01*
X151464518Y-123762000D01*
X151445531Y-123411801D01*
X151385875Y-123047919D01*
X151357270Y-122944895D01*
X151288140Y-122695908D01*
X151288138Y-122695902D01*
X151287227Y-122692621D01*
X151166170Y-122388789D01*
X151152005Y-122353237D01*
X151152004Y-122353235D01*
X151150743Y-122350070D01*
X150978022Y-122024284D01*
X150963784Y-122003284D01*
X150773006Y-121721908D01*
X150773000Y-121721901D01*
X150771090Y-121719083D01*
X150532373Y-121438044D01*
X150264670Y-121184462D01*
X150258005Y-121179395D01*
X150111343Y-121067906D01*
X149971119Y-120961310D01*
X149944647Y-120945382D01*
X149658089Y-120772966D01*
X149658087Y-120772965D01*
X149655162Y-120771205D01*
X149377445Y-120642719D01*
X149323601Y-120617808D01*
X149323596Y-120617806D01*
X149320503Y-120616375D01*
X149148600Y-120558454D01*
X148974302Y-120499726D01*
X148974296Y-120499724D01*
X148971066Y-120498636D01*
X148849617Y-120471903D01*
X148614279Y-120420101D01*
X148614275Y-120420100D01*
X148610948Y-120419368D01*
X148607558Y-120418999D01*
X148607556Y-120418999D01*
X148543724Y-120412057D01*
X148244370Y-120379500D01*
X147875630Y-120379500D01*
X147576276Y-120412057D01*
X147512444Y-120418999D01*
X147512442Y-120418999D01*
X147509052Y-120419368D01*
X147505725Y-120420100D01*
X147505721Y-120420101D01*
X147270383Y-120471903D01*
X147148934Y-120498636D01*
X147145704Y-120499724D01*
X147145698Y-120499726D01*
X146971400Y-120558454D01*
X146799497Y-120616375D01*
X146796404Y-120617806D01*
X146796399Y-120617808D01*
X146742555Y-120642719D01*
X146464838Y-120771205D01*
X146461913Y-120772965D01*
X146461911Y-120772966D01*
X146175354Y-120945382D01*
X146148881Y-120961310D01*
X146008657Y-121067906D01*
X145861996Y-121179395D01*
X145855330Y-121184462D01*
X145587627Y-121438044D01*
X145348910Y-121719083D01*
X145347000Y-121721901D01*
X145346994Y-121721908D01*
X145156216Y-122003284D01*
X145141978Y-122024284D01*
X144969257Y-122350070D01*
X144967996Y-122353235D01*
X144967995Y-122353237D01*
X144953830Y-122388789D01*
X144832773Y-122692621D01*
X144831862Y-122695902D01*
X144831860Y-122695908D01*
X144762730Y-122944895D01*
X144734125Y-123047919D01*
X144674469Y-123411801D01*
X144654506Y-123780000D01*
X138710500Y-123780000D01*
X138710500Y-109157000D01*
X144663506Y-109157000D01*
X144683469Y-109525199D01*
X144743125Y-109889081D01*
X144764980Y-109967796D01*
X144833263Y-110213728D01*
X144841773Y-110244379D01*
X144915676Y-110429862D01*
X144974605Y-110577763D01*
X144978257Y-110586930D01*
X145150978Y-110912716D01*
X145152892Y-110915538D01*
X145152892Y-110915539D01*
X145355994Y-111215092D01*
X145356000Y-111215099D01*
X145357910Y-111217917D01*
X145479299Y-111360827D01*
X145591531Y-111492956D01*
X145596627Y-111498956D01*
X145864330Y-111752538D01*
X146157881Y-111975690D01*
X146160810Y-111977453D01*
X146160814Y-111977455D01*
X146470911Y-112164034D01*
X146473838Y-112165795D01*
X146689052Y-112265364D01*
X146805399Y-112319192D01*
X146805404Y-112319194D01*
X146808497Y-112320625D01*
X146980400Y-112378546D01*
X147154698Y-112437274D01*
X147154704Y-112437276D01*
X147157934Y-112438364D01*
X147161271Y-112439098D01*
X147161269Y-112439098D01*
X147514721Y-112516899D01*
X147514725Y-112516900D01*
X147518052Y-112517632D01*
X147521442Y-112518001D01*
X147521444Y-112518001D01*
X147585276Y-112524943D01*
X147884630Y-112557500D01*
X148253370Y-112557500D01*
X148552724Y-112524943D01*
X148616556Y-112518001D01*
X148616558Y-112518001D01*
X148619948Y-112517632D01*
X148623275Y-112516900D01*
X148623279Y-112516899D01*
X148976731Y-112439098D01*
X148976729Y-112439098D01*
X148980066Y-112438364D01*
X148983296Y-112437276D01*
X148983302Y-112437274D01*
X149157600Y-112378546D01*
X149329503Y-112320625D01*
X149332596Y-112319194D01*
X149332601Y-112319192D01*
X149448948Y-112265364D01*
X149664162Y-112165795D01*
X149667089Y-112164034D01*
X149977186Y-111977455D01*
X149977190Y-111977453D01*
X149980119Y-111975690D01*
X150273670Y-111752538D01*
X150541373Y-111498956D01*
X150546470Y-111492956D01*
X150658701Y-111360827D01*
X150780090Y-111217917D01*
X150782000Y-111215099D01*
X150782006Y-111215092D01*
X150985108Y-110915539D01*
X150985108Y-110915538D01*
X150987022Y-110912716D01*
X151159743Y-110586930D01*
X151163396Y-110577763D01*
X151222324Y-110429862D01*
X151296227Y-110244379D01*
X151304738Y-110213728D01*
X151373020Y-109967796D01*
X151394875Y-109889081D01*
X151454531Y-109525199D01*
X151474494Y-109157000D01*
X151454531Y-108788801D01*
X151394875Y-108424919D01*
X151346960Y-108252345D01*
X151297140Y-108072908D01*
X151297138Y-108072902D01*
X151296227Y-108069621D01*
X151215496Y-107867000D01*
X156532627Y-107867000D01*
X156532800Y-107870301D01*
X156542932Y-108063621D01*
X156552104Y-108238638D01*
X156552619Y-108241889D01*
X156581192Y-108422292D01*
X156610320Y-108606204D01*
X156706639Y-108965671D01*
X156776471Y-109147588D01*
X156831299Y-109290419D01*
X156840005Y-109313100D01*
X156841497Y-109316028D01*
X156841500Y-109316035D01*
X156847105Y-109327035D01*
X157008957Y-109644687D01*
X157211643Y-109956796D01*
X157445843Y-110246009D01*
X157708991Y-110509157D01*
X157998204Y-110743357D01*
X158310313Y-110946043D01*
X158407590Y-110995608D01*
X158638965Y-111113500D01*
X158638972Y-111113503D01*
X158641900Y-111114995D01*
X158644972Y-111116174D01*
X158644976Y-111116176D01*
X158686186Y-111131995D01*
X158989329Y-111248361D01*
X159348796Y-111344680D01*
X159352046Y-111345195D01*
X159352052Y-111345196D01*
X159625231Y-111388463D01*
X159716362Y-111402896D01*
X159719647Y-111403068D01*
X159719655Y-111403069D01*
X160084699Y-111422200D01*
X160088000Y-111422373D01*
X160091301Y-111422200D01*
X160456345Y-111403069D01*
X160456353Y-111403068D01*
X160459638Y-111402896D01*
X160550769Y-111388463D01*
X160823948Y-111345196D01*
X160823954Y-111345195D01*
X160827204Y-111344680D01*
X161186671Y-111248361D01*
X161489814Y-111131995D01*
X161531024Y-111116176D01*
X161531028Y-111116174D01*
X161534100Y-111114995D01*
X161537028Y-111113503D01*
X161537035Y-111113500D01*
X161768410Y-110995608D01*
X161865687Y-110946043D01*
X162177796Y-110743357D01*
X162467009Y-110509157D01*
X162730157Y-110246009D01*
X162964357Y-109956796D01*
X163167043Y-109644687D01*
X163328895Y-109327035D01*
X163334500Y-109316035D01*
X163334503Y-109316028D01*
X163335995Y-109313100D01*
X163344702Y-109290419D01*
X163399529Y-109147588D01*
X163469361Y-108965671D01*
X163565680Y-108606204D01*
X163594809Y-108422292D01*
X163623381Y-108241889D01*
X163623896Y-108238638D01*
X163633069Y-108063621D01*
X163642482Y-107884000D01*
X168582627Y-107884000D01*
X168582800Y-107887301D01*
X168601908Y-108251889D01*
X168602104Y-108255638D01*
X168602619Y-108258889D01*
X168659370Y-108617204D01*
X168660320Y-108623204D01*
X168756639Y-108982671D01*
X168823558Y-109157000D01*
X168888445Y-109326035D01*
X168890005Y-109330100D01*
X169058957Y-109661687D01*
X169261643Y-109973796D01*
X169495843Y-110263009D01*
X169758991Y-110526157D01*
X170048204Y-110760357D01*
X170360313Y-110963043D01*
X170532625Y-111050840D01*
X170688965Y-111130500D01*
X170688972Y-111130503D01*
X170691900Y-111131995D01*
X170694972Y-111133174D01*
X170694976Y-111133176D01*
X170728009Y-111145856D01*
X171039329Y-111265361D01*
X171398796Y-111361680D01*
X171402046Y-111362195D01*
X171402052Y-111362196D01*
X171655775Y-111402381D01*
X171766362Y-111419896D01*
X171769647Y-111420068D01*
X171769655Y-111420069D01*
X172134699Y-111439200D01*
X172138000Y-111439373D01*
X172141301Y-111439200D01*
X172506345Y-111420069D01*
X172506353Y-111420068D01*
X172509638Y-111419896D01*
X172620225Y-111402381D01*
X172873948Y-111362196D01*
X172873954Y-111362195D01*
X172877204Y-111361680D01*
X173236671Y-111265361D01*
X173547991Y-111145856D01*
X173581024Y-111133176D01*
X173581028Y-111133174D01*
X173584100Y-111131995D01*
X173587028Y-111130503D01*
X173587035Y-111130500D01*
X173743375Y-111050840D01*
X173915687Y-110963043D01*
X174227796Y-110760357D01*
X174517009Y-110526157D01*
X174780157Y-110263009D01*
X175014357Y-109973796D01*
X175217043Y-109661687D01*
X175385995Y-109330100D01*
X175387556Y-109326035D01*
X175452442Y-109157000D01*
X175519361Y-108982671D01*
X175615680Y-108623204D01*
X175616631Y-108617204D01*
X175673381Y-108258889D01*
X175673896Y-108255638D01*
X175674093Y-108251889D01*
X175693200Y-107887301D01*
X175693373Y-107884000D01*
X175692482Y-107867000D01*
X180599627Y-107867000D01*
X180599800Y-107870301D01*
X180609932Y-108063621D01*
X180619104Y-108238638D01*
X180619619Y-108241889D01*
X180648192Y-108422292D01*
X180677320Y-108606204D01*
X180773639Y-108965671D01*
X180843471Y-109147588D01*
X180898299Y-109290419D01*
X180907005Y-109313100D01*
X180908497Y-109316028D01*
X180908500Y-109316035D01*
X180914105Y-109327035D01*
X181075957Y-109644687D01*
X181278643Y-109956796D01*
X181512843Y-110246009D01*
X181775991Y-110509157D01*
X182065204Y-110743357D01*
X182377313Y-110946043D01*
X182474590Y-110995608D01*
X182705965Y-111113500D01*
X182705972Y-111113503D01*
X182708900Y-111114995D01*
X182711972Y-111116174D01*
X182711976Y-111116176D01*
X182753186Y-111131995D01*
X183056329Y-111248361D01*
X183415796Y-111344680D01*
X183419046Y-111345195D01*
X183419052Y-111345196D01*
X183692231Y-111388463D01*
X183783362Y-111402896D01*
X183786647Y-111403068D01*
X183786655Y-111403069D01*
X184151699Y-111422200D01*
X184155000Y-111422373D01*
X184158301Y-111422200D01*
X184523345Y-111403069D01*
X184523353Y-111403068D01*
X184526638Y-111402896D01*
X184617769Y-111388463D01*
X184890948Y-111345196D01*
X184890954Y-111345195D01*
X184894204Y-111344680D01*
X185253671Y-111248361D01*
X185556814Y-111131995D01*
X185598024Y-111116176D01*
X185598028Y-111116174D01*
X185601100Y-111114995D01*
X185604028Y-111113503D01*
X185604035Y-111113500D01*
X185835410Y-110995608D01*
X185932687Y-110946043D01*
X186244796Y-110743357D01*
X186534009Y-110509157D01*
X186797157Y-110246009D01*
X187031357Y-109956796D01*
X187234043Y-109644687D01*
X187395895Y-109327035D01*
X187401500Y-109316035D01*
X187401503Y-109316028D01*
X187402995Y-109313100D01*
X187411702Y-109290419D01*
X187466529Y-109147588D01*
X187536361Y-108965671D01*
X187632680Y-108606204D01*
X187661809Y-108422292D01*
X187690381Y-108241889D01*
X187690896Y-108238638D01*
X187700069Y-108063621D01*
X187709797Y-107878000D01*
X192619627Y-107878000D01*
X192619800Y-107881301D01*
X192638698Y-108241889D01*
X192639104Y-108249638D01*
X192639619Y-108252889D01*
X192696082Y-108609386D01*
X192697320Y-108617204D01*
X192793639Y-108976671D01*
X192797127Y-108985757D01*
X192921602Y-109310024D01*
X192927005Y-109324100D01*
X192928495Y-109327024D01*
X192928500Y-109327035D01*
X193008160Y-109483375D01*
X193095957Y-109655687D01*
X193298643Y-109967796D01*
X193532843Y-110257009D01*
X193795991Y-110520157D01*
X194085204Y-110754357D01*
X194397313Y-110957043D01*
X194569625Y-111044840D01*
X194725965Y-111124500D01*
X194725972Y-111124503D01*
X194728900Y-111125995D01*
X194731972Y-111127174D01*
X194731976Y-111127176D01*
X194744530Y-111131995D01*
X195076329Y-111259361D01*
X195435796Y-111355680D01*
X195439046Y-111356195D01*
X195439052Y-111356196D01*
X195712231Y-111399463D01*
X195803362Y-111413896D01*
X195806647Y-111414068D01*
X195806655Y-111414069D01*
X196171699Y-111433200D01*
X196175000Y-111433373D01*
X196178301Y-111433200D01*
X196543345Y-111414069D01*
X196543353Y-111414068D01*
X196546638Y-111413896D01*
X196637769Y-111399463D01*
X196910948Y-111356196D01*
X196910954Y-111356195D01*
X196914204Y-111355680D01*
X197273671Y-111259361D01*
X197605470Y-111131995D01*
X197618024Y-111127176D01*
X197618028Y-111127174D01*
X197621100Y-111125995D01*
X197624028Y-111124503D01*
X197624035Y-111124500D01*
X197780375Y-111044840D01*
X197952687Y-110957043D01*
X198264796Y-110754357D01*
X198554009Y-110520157D01*
X198817157Y-110257009D01*
X199051357Y-109967796D01*
X199254043Y-109655687D01*
X199341840Y-109483375D01*
X199421500Y-109327035D01*
X199421505Y-109327024D01*
X199422995Y-109324100D01*
X199428399Y-109310024D01*
X199552873Y-108985757D01*
X199556361Y-108976671D01*
X199652680Y-108617204D01*
X199653919Y-108609386D01*
X199710381Y-108252889D01*
X199710896Y-108249638D01*
X199711303Y-108241889D01*
X199730200Y-107881301D01*
X199730373Y-107878000D01*
X199730321Y-107877000D01*
X204636627Y-107877000D01*
X204636800Y-107880301D01*
X204655659Y-108240145D01*
X204656104Y-108248638D01*
X204656619Y-108251889D01*
X204711444Y-108598043D01*
X204714320Y-108616204D01*
X204810639Y-108975671D01*
X204880245Y-109157000D01*
X204938986Y-109310024D01*
X204944005Y-109323100D01*
X204945497Y-109326028D01*
X204945500Y-109326035D01*
X204949067Y-109333035D01*
X205112957Y-109654687D01*
X205315643Y-109966796D01*
X205549843Y-110256009D01*
X205812991Y-110519157D01*
X206102204Y-110753357D01*
X206414313Y-110956043D01*
X206491964Y-110995608D01*
X206742965Y-111123500D01*
X206742972Y-111123503D01*
X206745900Y-111124995D01*
X206748972Y-111126174D01*
X206748976Y-111126176D01*
X206815875Y-111151856D01*
X207093329Y-111258361D01*
X207452796Y-111354680D01*
X207456046Y-111355195D01*
X207456052Y-111355196D01*
X207729231Y-111398463D01*
X207820362Y-111412896D01*
X207823647Y-111413068D01*
X207823655Y-111413069D01*
X208188699Y-111432200D01*
X208192000Y-111432373D01*
X208195301Y-111432200D01*
X208560345Y-111413069D01*
X208560353Y-111413068D01*
X208563638Y-111412896D01*
X208654769Y-111398463D01*
X208927948Y-111355196D01*
X208927954Y-111355195D01*
X208931204Y-111354680D01*
X209290671Y-111258361D01*
X209568125Y-111151856D01*
X209635024Y-111126176D01*
X209635028Y-111126174D01*
X209638100Y-111124995D01*
X209641028Y-111123503D01*
X209641035Y-111123500D01*
X209892036Y-110995608D01*
X209969687Y-110956043D01*
X210281796Y-110753357D01*
X210571009Y-110519157D01*
X210834157Y-110256009D01*
X211068357Y-109966796D01*
X211271043Y-109654687D01*
X211434933Y-109333035D01*
X211438500Y-109326035D01*
X211438503Y-109326028D01*
X211439995Y-109323100D01*
X211445015Y-109310024D01*
X211503755Y-109157000D01*
X211506058Y-109151000D01*
X216824506Y-109151000D01*
X216844469Y-109519199D01*
X216904125Y-109883081D01*
X216911885Y-109911031D01*
X216995929Y-110213728D01*
X217002773Y-110238379D01*
X217075082Y-110419862D01*
X217117434Y-110526157D01*
X217139257Y-110580930D01*
X217311978Y-110906716D01*
X217313892Y-110909538D01*
X217313892Y-110909539D01*
X217516994Y-111209092D01*
X217517000Y-111209099D01*
X217518910Y-111211917D01*
X217757627Y-111492956D01*
X218025330Y-111746538D01*
X218028048Y-111748604D01*
X218028049Y-111748605D01*
X218033223Y-111752538D01*
X218318881Y-111969690D01*
X218321810Y-111971453D01*
X218321814Y-111971455D01*
X218425183Y-112033650D01*
X218634838Y-112159795D01*
X218850052Y-112259364D01*
X218966399Y-112313192D01*
X218966404Y-112313194D01*
X218969497Y-112314625D01*
X219093778Y-112356500D01*
X219315698Y-112431274D01*
X219315704Y-112431276D01*
X219318934Y-112432364D01*
X219349527Y-112439098D01*
X219675721Y-112510899D01*
X219675725Y-112510900D01*
X219679052Y-112511632D01*
X219682442Y-112512001D01*
X219682444Y-112512001D01*
X219727481Y-112516899D01*
X220045630Y-112551500D01*
X220414370Y-112551500D01*
X220732519Y-112516899D01*
X220777556Y-112512001D01*
X220777558Y-112512001D01*
X220780948Y-112511632D01*
X220784275Y-112510900D01*
X220784279Y-112510899D01*
X221110473Y-112439098D01*
X221141066Y-112432364D01*
X221144296Y-112431276D01*
X221144302Y-112431274D01*
X221366222Y-112356500D01*
X221490503Y-112314625D01*
X221493596Y-112313194D01*
X221493601Y-112313192D01*
X221609948Y-112259364D01*
X221825162Y-112159795D01*
X222034817Y-112033650D01*
X222138186Y-111971455D01*
X222138190Y-111971453D01*
X222141119Y-111969690D01*
X222426777Y-111752538D01*
X222431951Y-111748605D01*
X222431952Y-111748604D01*
X222434670Y-111746538D01*
X222702373Y-111492956D01*
X222941090Y-111211917D01*
X222943000Y-111209099D01*
X222943006Y-111209092D01*
X223146108Y-110909539D01*
X223146108Y-110909538D01*
X223148022Y-110906716D01*
X223320743Y-110580930D01*
X223342567Y-110526157D01*
X223384918Y-110419862D01*
X223457227Y-110238379D01*
X223464072Y-110213728D01*
X223548115Y-109911031D01*
X223555875Y-109883081D01*
X223615531Y-109519199D01*
X223635494Y-109151000D01*
X223615531Y-108782801D01*
X223555875Y-108418919D01*
X223507905Y-108246145D01*
X223458140Y-108066908D01*
X223458138Y-108066902D01*
X223457227Y-108063621D01*
X223337365Y-107762789D01*
X223322005Y-107724237D01*
X223322004Y-107724235D01*
X223320743Y-107721070D01*
X223148022Y-107395284D01*
X222985881Y-107156144D01*
X222943006Y-107092908D01*
X222943000Y-107092901D01*
X222941090Y-107090083D01*
X222709675Y-106817641D01*
X222704579Y-106811641D01*
X222704578Y-106811640D01*
X222702373Y-106809044D01*
X222434670Y-106555462D01*
X222141119Y-106332310D01*
X221832748Y-106146769D01*
X221828089Y-106143966D01*
X221828087Y-106143965D01*
X221825162Y-106142205D01*
X221586349Y-106031718D01*
X221493601Y-105988808D01*
X221493596Y-105988806D01*
X221490503Y-105987375D01*
X221318600Y-105929454D01*
X221144302Y-105870726D01*
X221144296Y-105870724D01*
X221141066Y-105869636D01*
X221006288Y-105839969D01*
X220784279Y-105791101D01*
X220784275Y-105791100D01*
X220780948Y-105790368D01*
X220777558Y-105789999D01*
X220777556Y-105789999D01*
X220685423Y-105779979D01*
X220414370Y-105750500D01*
X220045630Y-105750500D01*
X219774577Y-105779979D01*
X219682444Y-105789999D01*
X219682442Y-105789999D01*
X219679052Y-105790368D01*
X219675725Y-105791100D01*
X219675721Y-105791101D01*
X219453712Y-105839969D01*
X219318934Y-105869636D01*
X219315704Y-105870724D01*
X219315698Y-105870726D01*
X219141400Y-105929454D01*
X218969497Y-105987375D01*
X218966404Y-105988806D01*
X218966399Y-105988808D01*
X218873651Y-106031718D01*
X218634838Y-106142205D01*
X218631913Y-106143965D01*
X218631911Y-106143966D01*
X218627253Y-106146769D01*
X218318881Y-106332310D01*
X218025330Y-106555462D01*
X217757627Y-106809044D01*
X217755422Y-106811640D01*
X217755421Y-106811641D01*
X217750325Y-106817641D01*
X217518910Y-107090083D01*
X217517000Y-107092901D01*
X217516994Y-107092908D01*
X217474119Y-107156144D01*
X217311978Y-107395284D01*
X217139257Y-107721070D01*
X217137996Y-107724235D01*
X217137995Y-107724237D01*
X217122635Y-107762789D01*
X217002773Y-108063621D01*
X217001862Y-108066902D01*
X217001860Y-108066908D01*
X216952095Y-108246145D01*
X216904125Y-108418919D01*
X216844469Y-108782801D01*
X216824506Y-109151000D01*
X211506058Y-109151000D01*
X211573361Y-108975671D01*
X211669680Y-108616204D01*
X211672557Y-108598043D01*
X211727381Y-108251889D01*
X211727896Y-108248638D01*
X211728342Y-108240145D01*
X211747200Y-107880301D01*
X211747373Y-107877000D01*
X211741387Y-107762789D01*
X211728069Y-107508655D01*
X211728068Y-107508647D01*
X211727896Y-107505362D01*
X211710014Y-107392461D01*
X211670196Y-107141052D01*
X211670195Y-107141046D01*
X211669680Y-107137796D01*
X211573361Y-106778329D01*
X211441560Y-106434976D01*
X211441176Y-106433976D01*
X211441174Y-106433972D01*
X211439995Y-106430900D01*
X211434900Y-106420900D01*
X211272542Y-106102255D01*
X211272538Y-106102248D01*
X211271043Y-106099314D01*
X211201539Y-105992286D01*
X211074308Y-105796368D01*
X211068357Y-105787204D01*
X210834157Y-105497991D01*
X210571009Y-105234843D01*
X210281796Y-105000643D01*
X209969687Y-104797957D01*
X209692237Y-104656589D01*
X209641035Y-104630500D01*
X209641028Y-104630497D01*
X209638100Y-104629005D01*
X209635028Y-104627826D01*
X209635024Y-104627824D01*
X209491226Y-104572625D01*
X209290671Y-104495639D01*
X208931204Y-104399320D01*
X208927954Y-104398805D01*
X208927948Y-104398804D01*
X208611086Y-104348619D01*
X208563638Y-104341104D01*
X208560353Y-104340932D01*
X208560345Y-104340931D01*
X208195301Y-104321800D01*
X208192000Y-104321627D01*
X208188699Y-104321800D01*
X207823655Y-104340931D01*
X207823647Y-104340932D01*
X207820362Y-104341104D01*
X207772914Y-104348619D01*
X207456052Y-104398804D01*
X207456046Y-104398805D01*
X207452796Y-104399320D01*
X207093329Y-104495639D01*
X206892774Y-104572625D01*
X206748976Y-104627824D01*
X206748972Y-104627826D01*
X206745900Y-104629005D01*
X206742972Y-104630497D01*
X206742965Y-104630500D01*
X206417255Y-104796458D01*
X206417252Y-104796460D01*
X206414314Y-104797957D01*
X206411548Y-104799753D01*
X206411545Y-104799755D01*
X206245361Y-104907676D01*
X206102204Y-105000643D01*
X205812991Y-105234843D01*
X205549843Y-105497991D01*
X205315643Y-105787204D01*
X205309692Y-105796368D01*
X205182462Y-105992286D01*
X205112957Y-106099314D01*
X205111462Y-106102248D01*
X205111458Y-106102255D01*
X204949100Y-106420900D01*
X204944005Y-106430900D01*
X204942826Y-106433972D01*
X204942824Y-106433976D01*
X204942440Y-106434976D01*
X204810639Y-106778329D01*
X204714320Y-107137796D01*
X204713805Y-107141046D01*
X204713804Y-107141052D01*
X204673986Y-107392461D01*
X204656104Y-107505362D01*
X204655932Y-107508647D01*
X204655931Y-107508655D01*
X204642613Y-107762789D01*
X204636627Y-107877000D01*
X199730321Y-107877000D01*
X199729624Y-107863699D01*
X199711069Y-107509655D01*
X199711068Y-107509647D01*
X199710896Y-107506362D01*
X199696463Y-107415231D01*
X199653196Y-107142052D01*
X199653195Y-107142046D01*
X199652680Y-107138796D01*
X199556361Y-106779329D01*
X199469633Y-106553395D01*
X199424176Y-106434976D01*
X199424174Y-106434972D01*
X199422995Y-106431900D01*
X199418958Y-106423976D01*
X199255542Y-106103255D01*
X199255538Y-106103248D01*
X199254043Y-106100314D01*
X199251596Y-106096545D01*
X199092117Y-105850969D01*
X199051357Y-105788204D01*
X198817157Y-105498991D01*
X198554009Y-105235843D01*
X198264796Y-105001643D01*
X197952687Y-104798957D01*
X197780375Y-104711160D01*
X197624035Y-104631500D01*
X197624028Y-104631497D01*
X197621100Y-104630005D01*
X197618028Y-104628826D01*
X197618024Y-104628824D01*
X197487251Y-104578625D01*
X197273671Y-104496639D01*
X196914204Y-104400320D01*
X196910954Y-104399805D01*
X196910948Y-104399804D01*
X196637769Y-104356537D01*
X196546638Y-104342104D01*
X196543353Y-104341932D01*
X196543345Y-104341931D01*
X196178301Y-104322800D01*
X196175000Y-104322627D01*
X196171699Y-104322800D01*
X195806655Y-104341931D01*
X195806647Y-104341932D01*
X195803362Y-104342104D01*
X195712231Y-104356537D01*
X195439052Y-104399804D01*
X195439046Y-104399805D01*
X195435796Y-104400320D01*
X195076329Y-104496639D01*
X194862749Y-104578625D01*
X194731976Y-104628824D01*
X194731972Y-104628826D01*
X194728900Y-104630005D01*
X194725972Y-104631497D01*
X194725965Y-104631500D01*
X194400255Y-104797458D01*
X194400252Y-104797460D01*
X194397314Y-104798957D01*
X194394548Y-104800753D01*
X194394545Y-104800755D01*
X194229901Y-104907676D01*
X194085204Y-105001643D01*
X193795991Y-105235843D01*
X193532843Y-105498991D01*
X193298643Y-105788204D01*
X193257883Y-105850969D01*
X193098405Y-106096545D01*
X193095957Y-106100314D01*
X193094462Y-106103248D01*
X193094458Y-106103255D01*
X192931042Y-106423976D01*
X192927005Y-106431900D01*
X192925826Y-106434972D01*
X192925824Y-106434976D01*
X192880367Y-106553395D01*
X192793639Y-106779329D01*
X192697320Y-107138796D01*
X192696805Y-107142046D01*
X192696804Y-107142052D01*
X192653537Y-107415231D01*
X192639104Y-107506362D01*
X192638932Y-107509647D01*
X192638931Y-107509655D01*
X192620376Y-107863699D01*
X192619627Y-107878000D01*
X187709797Y-107878000D01*
X187710200Y-107870301D01*
X187710373Y-107867000D01*
X187705226Y-107768789D01*
X187691069Y-107498655D01*
X187691068Y-107498647D01*
X187690896Y-107495362D01*
X187674598Y-107392461D01*
X187633196Y-107131052D01*
X187633195Y-107131046D01*
X187632680Y-107127796D01*
X187536361Y-106768329D01*
X187413362Y-106447906D01*
X187404176Y-106423976D01*
X187404174Y-106423972D01*
X187402995Y-106420900D01*
X187401500Y-106417965D01*
X187235542Y-106092255D01*
X187235538Y-106092248D01*
X187234043Y-106089314D01*
X187171033Y-105992286D01*
X187043802Y-105796368D01*
X187031357Y-105777204D01*
X186797157Y-105487991D01*
X186534009Y-105224843D01*
X186244796Y-104990643D01*
X185932687Y-104787957D01*
X185674863Y-104656589D01*
X185604035Y-104620500D01*
X185604028Y-104620497D01*
X185601100Y-104619005D01*
X185598028Y-104617826D01*
X185598024Y-104617824D01*
X185471730Y-104569344D01*
X185253671Y-104485639D01*
X184894204Y-104389320D01*
X184890954Y-104388805D01*
X184890948Y-104388804D01*
X184588684Y-104340931D01*
X184526638Y-104331104D01*
X184523353Y-104330932D01*
X184523345Y-104330931D01*
X184158301Y-104311800D01*
X184155000Y-104311627D01*
X184151699Y-104311800D01*
X183786655Y-104330931D01*
X183786647Y-104330932D01*
X183783362Y-104331104D01*
X183721316Y-104340931D01*
X183419052Y-104388804D01*
X183419046Y-104388805D01*
X183415796Y-104389320D01*
X183056329Y-104485639D01*
X182838270Y-104569344D01*
X182711976Y-104617824D01*
X182711972Y-104617826D01*
X182708900Y-104619005D01*
X182705972Y-104620497D01*
X182705965Y-104620500D01*
X182380255Y-104786458D01*
X182380252Y-104786460D01*
X182377314Y-104787957D01*
X182374548Y-104789753D01*
X182374545Y-104789755D01*
X182348366Y-104806756D01*
X182065204Y-104990643D01*
X181775991Y-105224843D01*
X181512843Y-105487991D01*
X181278643Y-105777204D01*
X181266198Y-105796368D01*
X181138968Y-105992286D01*
X181075957Y-106089314D01*
X181074462Y-106092248D01*
X181074458Y-106092255D01*
X180908500Y-106417965D01*
X180907005Y-106420900D01*
X180905826Y-106423972D01*
X180905824Y-106423976D01*
X180896638Y-106447906D01*
X180773639Y-106768329D01*
X180677320Y-107127796D01*
X180676805Y-107131046D01*
X180676804Y-107131052D01*
X180635402Y-107392461D01*
X180619104Y-107495362D01*
X180618932Y-107498647D01*
X180618931Y-107498655D01*
X180604774Y-107768789D01*
X180599627Y-107867000D01*
X175692482Y-107867000D01*
X175673896Y-107512362D01*
X175618428Y-107162144D01*
X175616196Y-107148052D01*
X175616195Y-107148046D01*
X175615680Y-107144796D01*
X175519361Y-106785329D01*
X175398540Y-106470581D01*
X175387176Y-106440976D01*
X175387174Y-106440972D01*
X175385995Y-106437900D01*
X175382938Y-106431900D01*
X175218542Y-106109255D01*
X175218538Y-106109248D01*
X175217043Y-106106314D01*
X175215057Y-106103255D01*
X175055117Y-105856969D01*
X175014357Y-105794204D01*
X174780157Y-105504991D01*
X174517009Y-105241843D01*
X174227796Y-105007643D01*
X173915687Y-104804957D01*
X173743375Y-104717160D01*
X173587035Y-104637500D01*
X173587028Y-104637497D01*
X173584100Y-104636005D01*
X173581028Y-104634826D01*
X173581024Y-104634824D01*
X173454730Y-104586344D01*
X173236671Y-104502639D01*
X172877204Y-104406320D01*
X172873954Y-104405805D01*
X172873948Y-104405804D01*
X172600769Y-104362537D01*
X172509638Y-104348104D01*
X172506353Y-104347932D01*
X172506345Y-104347931D01*
X172141301Y-104328800D01*
X172138000Y-104328627D01*
X172134699Y-104328800D01*
X171769655Y-104347931D01*
X171769647Y-104347932D01*
X171766362Y-104348104D01*
X171675231Y-104362537D01*
X171402052Y-104405804D01*
X171402046Y-104405805D01*
X171398796Y-104406320D01*
X171039329Y-104502639D01*
X170821270Y-104586344D01*
X170694976Y-104634824D01*
X170694972Y-104634826D01*
X170691900Y-104636005D01*
X170688972Y-104637497D01*
X170688965Y-104637500D01*
X170363255Y-104803458D01*
X170363252Y-104803460D01*
X170360314Y-104804957D01*
X170357548Y-104806753D01*
X170357545Y-104806755D01*
X170202140Y-104907676D01*
X170048204Y-105007643D01*
X169758991Y-105241843D01*
X169495843Y-105504991D01*
X169261643Y-105794204D01*
X169220883Y-105856969D01*
X169060944Y-106103255D01*
X169058957Y-106106314D01*
X169057462Y-106109248D01*
X169057458Y-106109255D01*
X168893062Y-106431900D01*
X168890005Y-106437900D01*
X168888826Y-106440972D01*
X168888824Y-106440976D01*
X168877460Y-106470581D01*
X168756639Y-106785329D01*
X168660320Y-107144796D01*
X168659805Y-107148046D01*
X168659804Y-107148052D01*
X168657572Y-107162144D01*
X168602104Y-107512362D01*
X168582627Y-107884000D01*
X163642482Y-107884000D01*
X163643200Y-107870301D01*
X163643373Y-107867000D01*
X163638226Y-107768789D01*
X163624069Y-107498655D01*
X163624068Y-107498647D01*
X163623896Y-107495362D01*
X163607598Y-107392461D01*
X163566196Y-107131052D01*
X163566195Y-107131046D01*
X163565680Y-107127796D01*
X163469361Y-106768329D01*
X163346362Y-106447906D01*
X163337176Y-106423976D01*
X163337174Y-106423972D01*
X163335995Y-106420900D01*
X163334500Y-106417965D01*
X163168542Y-106092255D01*
X163168538Y-106092248D01*
X163167043Y-106089314D01*
X163104033Y-105992286D01*
X162976802Y-105796368D01*
X162964357Y-105777204D01*
X162730157Y-105487991D01*
X162467009Y-105224843D01*
X162177796Y-104990643D01*
X161865687Y-104787957D01*
X161607863Y-104656589D01*
X161537035Y-104620500D01*
X161537028Y-104620497D01*
X161534100Y-104619005D01*
X161531028Y-104617826D01*
X161531024Y-104617824D01*
X161404730Y-104569344D01*
X161186671Y-104485639D01*
X160827204Y-104389320D01*
X160823954Y-104388805D01*
X160823948Y-104388804D01*
X160521684Y-104340931D01*
X160459638Y-104331104D01*
X160456353Y-104330932D01*
X160456345Y-104330931D01*
X160091301Y-104311800D01*
X160088000Y-104311627D01*
X160084699Y-104311800D01*
X159719655Y-104330931D01*
X159719647Y-104330932D01*
X159716362Y-104331104D01*
X159654316Y-104340931D01*
X159352052Y-104388804D01*
X159352046Y-104388805D01*
X159348796Y-104389320D01*
X158989329Y-104485639D01*
X158771270Y-104569344D01*
X158644976Y-104617824D01*
X158644972Y-104617826D01*
X158641900Y-104619005D01*
X158638972Y-104620497D01*
X158638965Y-104620500D01*
X158313255Y-104786458D01*
X158313252Y-104786460D01*
X158310314Y-104787957D01*
X158307548Y-104789753D01*
X158307545Y-104789755D01*
X158281366Y-104806756D01*
X157998204Y-104990643D01*
X157708991Y-105224843D01*
X157445843Y-105487991D01*
X157211643Y-105777204D01*
X157199198Y-105796368D01*
X157071968Y-105992286D01*
X157008957Y-106089314D01*
X157007462Y-106092248D01*
X157007458Y-106092255D01*
X156841500Y-106417965D01*
X156840005Y-106420900D01*
X156838826Y-106423972D01*
X156838824Y-106423976D01*
X156829638Y-106447906D01*
X156706639Y-106768329D01*
X156610320Y-107127796D01*
X156609805Y-107131046D01*
X156609804Y-107131052D01*
X156568402Y-107392461D01*
X156552104Y-107495362D01*
X156551932Y-107498647D01*
X156551931Y-107498655D01*
X156537774Y-107768789D01*
X156532627Y-107867000D01*
X151215496Y-107867000D01*
X151159743Y-107727070D01*
X150987022Y-107401284D01*
X150821364Y-107156957D01*
X150782006Y-107098908D01*
X150782000Y-107098901D01*
X150780090Y-107096083D01*
X150541373Y-106815044D01*
X150273670Y-106561462D01*
X150268873Y-106557815D01*
X150154118Y-106470581D01*
X149980119Y-106338310D01*
X149967214Y-106330545D01*
X149667089Y-106149966D01*
X149667087Y-106149965D01*
X149664162Y-106148205D01*
X149412380Y-106031718D01*
X149332601Y-105994808D01*
X149332596Y-105994806D01*
X149329503Y-105993375D01*
X149157600Y-105935454D01*
X148983302Y-105876726D01*
X148983296Y-105876724D01*
X148980066Y-105875636D01*
X148818029Y-105839969D01*
X148623279Y-105797101D01*
X148623275Y-105797100D01*
X148619948Y-105796368D01*
X148616558Y-105795999D01*
X148616556Y-105795999D01*
X148535687Y-105787204D01*
X148253370Y-105756500D01*
X147884630Y-105756500D01*
X147602313Y-105787204D01*
X147521444Y-105795999D01*
X147521442Y-105795999D01*
X147518052Y-105796368D01*
X147514725Y-105797100D01*
X147514721Y-105797101D01*
X147319971Y-105839969D01*
X147157934Y-105875636D01*
X147154704Y-105876724D01*
X147154698Y-105876726D01*
X146980400Y-105935454D01*
X146808497Y-105993375D01*
X146805404Y-105994806D01*
X146805399Y-105994808D01*
X146725620Y-106031718D01*
X146473838Y-106148205D01*
X146470913Y-106149965D01*
X146470911Y-106149966D01*
X146170787Y-106330545D01*
X146157881Y-106338310D01*
X145983882Y-106470581D01*
X145869128Y-106557815D01*
X145864330Y-106561462D01*
X145596627Y-106815044D01*
X145357910Y-107096083D01*
X145356000Y-107098901D01*
X145355994Y-107098908D01*
X145316636Y-107156957D01*
X145150978Y-107401284D01*
X144978257Y-107727070D01*
X144841773Y-108069621D01*
X144840862Y-108072902D01*
X144840860Y-108072908D01*
X144791040Y-108252345D01*
X144743125Y-108424919D01*
X144683469Y-108788801D01*
X144663506Y-109157000D01*
X138710500Y-109157000D01*
X138710500Y-87936000D01*
X144182488Y-87936000D01*
X144202526Y-88331114D01*
X144262434Y-88722174D01*
X144263232Y-88725256D01*
X144359505Y-89097081D01*
X144361598Y-89105166D01*
X144362705Y-89108155D01*
X144496037Y-89468163D01*
X144498999Y-89476162D01*
X144673229Y-89831353D01*
X144674916Y-89834059D01*
X144674919Y-89834065D01*
X144880814Y-90164392D01*
X144882499Y-90167095D01*
X144884443Y-90169607D01*
X144884449Y-90169615D01*
X145067772Y-90406448D01*
X145124661Y-90479943D01*
X145126857Y-90482253D01*
X145317932Y-90683264D01*
X145397231Y-90766687D01*
X145573836Y-90918297D01*
X145693709Y-91021204D01*
X145697413Y-91024384D01*
X146022125Y-91250390D01*
X146368035Y-91442386D01*
X146731595Y-91598402D01*
X146734628Y-91599354D01*
X146734629Y-91599354D01*
X147106041Y-91715886D01*
X147106052Y-91715889D01*
X147109074Y-91716837D01*
X147496597Y-91796475D01*
X147499760Y-91796797D01*
X147499769Y-91796798D01*
X147887010Y-91836176D01*
X147887015Y-91836176D01*
X147890189Y-91836499D01*
X148285811Y-91836499D01*
X148288985Y-91836176D01*
X148288990Y-91836176D01*
X148676231Y-91796798D01*
X148676240Y-91796797D01*
X148679403Y-91796475D01*
X149066926Y-91716837D01*
X149069948Y-91715889D01*
X149069959Y-91715886D01*
X149441371Y-91599354D01*
X149441372Y-91599354D01*
X149444405Y-91598402D01*
X149807965Y-91442386D01*
X150153875Y-91250390D01*
X150478587Y-91024384D01*
X150482292Y-91021204D01*
X150602164Y-90918297D01*
X150778769Y-90766687D01*
X150858069Y-90683264D01*
X151049143Y-90482253D01*
X151051339Y-90479943D01*
X151108228Y-90406448D01*
X151291551Y-90169615D01*
X151291557Y-90169607D01*
X151293501Y-90167095D01*
X151295186Y-90164392D01*
X151501081Y-89834065D01*
X151501084Y-89834059D01*
X151502771Y-89831353D01*
X151677001Y-89476162D01*
X151679964Y-89468163D01*
X151813295Y-89108155D01*
X151814402Y-89105166D01*
X151816496Y-89097081D01*
X151912768Y-88725256D01*
X151913566Y-88722174D01*
X151973474Y-88331114D01*
X151993512Y-87936000D01*
X151993258Y-87931000D01*
X180235488Y-87931000D01*
X180255526Y-88326114D01*
X180315434Y-88717174D01*
X180316232Y-88720256D01*
X180409172Y-89079208D01*
X180414598Y-89100166D01*
X180415705Y-89103155D01*
X180539985Y-89438722D01*
X180551999Y-89471162D01*
X180553406Y-89474030D01*
X180553408Y-89474035D01*
X180554880Y-89477035D01*
X180726229Y-89826353D01*
X180727916Y-89829059D01*
X180727919Y-89829065D01*
X180729789Y-89832065D01*
X180935499Y-90162095D01*
X180937443Y-90164607D01*
X180937449Y-90164615D01*
X181124514Y-90406283D01*
X181177661Y-90474943D01*
X181179857Y-90477253D01*
X181377586Y-90685264D01*
X181450231Y-90761687D01*
X181750413Y-91019384D01*
X182075125Y-91245390D01*
X182421035Y-91437386D01*
X182784595Y-91593402D01*
X182787628Y-91594354D01*
X182787629Y-91594354D01*
X183159041Y-91710886D01*
X183159052Y-91710889D01*
X183162074Y-91711837D01*
X183549597Y-91791475D01*
X183552760Y-91791797D01*
X183552769Y-91791798D01*
X183940010Y-91831176D01*
X183940015Y-91831176D01*
X183943189Y-91831499D01*
X184338811Y-91831499D01*
X184341985Y-91831176D01*
X184341990Y-91831176D01*
X184729231Y-91791798D01*
X184729240Y-91791797D01*
X184732403Y-91791475D01*
X185119926Y-91711837D01*
X185122948Y-91710889D01*
X185122959Y-91710886D01*
X185494371Y-91594354D01*
X185494372Y-91594354D01*
X185497405Y-91593402D01*
X185860965Y-91437386D01*
X186206875Y-91245390D01*
X186531587Y-91019384D01*
X186831769Y-90761687D01*
X186904415Y-90685264D01*
X187102143Y-90477253D01*
X187104339Y-90474943D01*
X187157486Y-90406283D01*
X187344551Y-90164615D01*
X187344557Y-90164607D01*
X187346501Y-90162095D01*
X187552211Y-89832065D01*
X187554081Y-89829065D01*
X187554084Y-89829059D01*
X187555771Y-89826353D01*
X187727120Y-89477035D01*
X187728592Y-89474035D01*
X187728594Y-89474030D01*
X187730001Y-89471162D01*
X187742016Y-89438722D01*
X187866295Y-89103155D01*
X187867402Y-89100166D01*
X187872829Y-89079208D01*
X187965768Y-88720256D01*
X187966566Y-88717174D01*
X188026474Y-88326114D01*
X188046360Y-87934000D01*
X216331488Y-87934000D01*
X216351526Y-88329114D01*
X216352009Y-88332268D01*
X216352010Y-88332276D01*
X216381171Y-88522628D01*
X216411434Y-88720174D01*
X216510598Y-89103166D01*
X216647999Y-89474162D01*
X216822229Y-89829353D01*
X217031499Y-90165095D01*
X217033443Y-90167607D01*
X217033449Y-90167615D01*
X217218320Y-90406448D01*
X217273661Y-90477943D01*
X217275857Y-90480253D01*
X217541181Y-90759374D01*
X217546231Y-90764687D01*
X217722836Y-90916297D01*
X217840505Y-91017312D01*
X217846413Y-91022384D01*
X218171125Y-91248390D01*
X218517035Y-91440386D01*
X218880595Y-91596402D01*
X218883628Y-91597354D01*
X218883629Y-91597354D01*
X219255041Y-91713886D01*
X219255052Y-91713889D01*
X219258074Y-91714837D01*
X219645597Y-91794475D01*
X219648760Y-91794797D01*
X219648769Y-91794798D01*
X220036010Y-91834176D01*
X220036015Y-91834176D01*
X220039189Y-91834499D01*
X220434811Y-91834499D01*
X220437985Y-91834176D01*
X220437990Y-91834176D01*
X220825231Y-91794798D01*
X220825240Y-91794797D01*
X220828403Y-91794475D01*
X221215926Y-91714837D01*
X221218948Y-91713889D01*
X221218959Y-91713886D01*
X221590371Y-91597354D01*
X221590372Y-91597354D01*
X221593405Y-91596402D01*
X221956965Y-91440386D01*
X222302875Y-91248390D01*
X222627587Y-91022384D01*
X222633496Y-91017312D01*
X222751164Y-90916297D01*
X222927769Y-90764687D01*
X222932820Y-90759374D01*
X223198143Y-90480253D01*
X223200339Y-90477943D01*
X223255680Y-90406448D01*
X223440551Y-90167615D01*
X223440557Y-90167607D01*
X223442501Y-90165095D01*
X223651771Y-89829353D01*
X223826001Y-89474162D01*
X223963402Y-89103166D01*
X224062566Y-88720174D01*
X224092829Y-88522628D01*
X224121990Y-88332276D01*
X224121991Y-88332268D01*
X224122474Y-88329114D01*
X224142512Y-87934000D01*
X224122474Y-87538886D01*
X224062566Y-87147826D01*
X223963402Y-86764834D01*
X223839867Y-86431278D01*
X223827112Y-86396837D01*
X223827110Y-86396832D01*
X223826001Y-86393838D01*
X223824530Y-86390838D01*
X223653179Y-86041518D01*
X223651771Y-86038647D01*
X223445433Y-85707608D01*
X223444186Y-85705608D01*
X223444184Y-85705605D01*
X223442501Y-85702905D01*
X223440557Y-85700393D01*
X223440551Y-85700385D01*
X223202291Y-85392579D01*
X223200339Y-85390057D01*
X223102381Y-85287005D01*
X222929968Y-85105626D01*
X222929965Y-85105623D01*
X222927769Y-85103313D01*
X222735251Y-84938042D01*
X222630001Y-84847688D01*
X222629997Y-84847685D01*
X222627587Y-84845616D01*
X222302875Y-84619610D01*
X221956965Y-84427614D01*
X221593405Y-84271598D01*
X221590371Y-84270646D01*
X221218959Y-84154114D01*
X221218948Y-84154111D01*
X221215926Y-84153163D01*
X220828403Y-84073525D01*
X220825240Y-84073203D01*
X220825231Y-84073202D01*
X220437990Y-84033824D01*
X220437985Y-84033824D01*
X220434811Y-84033501D01*
X220039189Y-84033501D01*
X220036015Y-84033824D01*
X220036010Y-84033824D01*
X219648769Y-84073202D01*
X219648760Y-84073203D01*
X219645597Y-84073525D01*
X219258074Y-84153163D01*
X219255052Y-84154111D01*
X219255041Y-84154114D01*
X218883629Y-84270646D01*
X218880595Y-84271598D01*
X218517035Y-84427614D01*
X218171125Y-84619610D01*
X217846413Y-84845616D01*
X217844003Y-84847685D01*
X217843999Y-84847688D01*
X217738749Y-84938042D01*
X217546231Y-85103313D01*
X217544035Y-85105623D01*
X217544032Y-85105626D01*
X217371619Y-85287005D01*
X217273661Y-85390057D01*
X217271709Y-85392579D01*
X217033449Y-85700385D01*
X217033443Y-85700393D01*
X217031499Y-85702905D01*
X217029816Y-85705605D01*
X217029814Y-85705608D01*
X217028568Y-85707608D01*
X216822229Y-86038647D01*
X216820821Y-86041518D01*
X216649471Y-86390838D01*
X216647999Y-86393838D01*
X216646890Y-86396832D01*
X216646888Y-86396837D01*
X216634133Y-86431278D01*
X216510598Y-86764834D01*
X216411434Y-87147826D01*
X216351526Y-87538886D01*
X216331488Y-87934000D01*
X188046360Y-87934000D01*
X188046512Y-87931000D01*
X188026474Y-87535886D01*
X187966566Y-87144826D01*
X187874123Y-86787792D01*
X187868201Y-86764919D01*
X187868200Y-86764915D01*
X187867402Y-86761834D01*
X187865108Y-86755640D01*
X187731112Y-86393837D01*
X187731110Y-86393832D01*
X187730001Y-86390838D01*
X187555771Y-86035647D01*
X187351303Y-85707608D01*
X187348186Y-85702608D01*
X187348184Y-85702605D01*
X187346501Y-85699905D01*
X187344557Y-85697393D01*
X187344551Y-85697385D01*
X187106291Y-85389579D01*
X187104339Y-85387057D01*
X186838721Y-85107626D01*
X186833968Y-85102626D01*
X186833965Y-85102623D01*
X186831769Y-85100313D01*
X186539825Y-84849688D01*
X186534001Y-84844688D01*
X186533997Y-84844685D01*
X186531587Y-84842616D01*
X186206875Y-84616610D01*
X185860965Y-84424614D01*
X185497405Y-84268598D01*
X185459697Y-84256767D01*
X185122959Y-84151114D01*
X185122948Y-84151111D01*
X185119926Y-84150163D01*
X184732403Y-84070525D01*
X184729240Y-84070203D01*
X184729231Y-84070202D01*
X184341990Y-84030824D01*
X184341985Y-84030824D01*
X184338811Y-84030501D01*
X183943189Y-84030501D01*
X183940015Y-84030824D01*
X183940010Y-84030824D01*
X183552769Y-84070202D01*
X183552760Y-84070203D01*
X183549597Y-84070525D01*
X183162074Y-84150163D01*
X183159052Y-84151111D01*
X183159041Y-84151114D01*
X182822303Y-84256767D01*
X182784595Y-84268598D01*
X182421035Y-84424614D01*
X182075125Y-84616610D01*
X181750413Y-84842616D01*
X181748003Y-84844685D01*
X181747999Y-84844688D01*
X181742175Y-84849688D01*
X181450231Y-85100313D01*
X181448035Y-85102623D01*
X181448032Y-85102626D01*
X181443279Y-85107626D01*
X181177661Y-85387057D01*
X181175709Y-85389579D01*
X180937449Y-85697385D01*
X180937443Y-85697393D01*
X180935499Y-85699905D01*
X180933816Y-85702605D01*
X180933814Y-85702608D01*
X180930698Y-85707608D01*
X180726229Y-86035647D01*
X180551999Y-86390838D01*
X180550890Y-86393832D01*
X180550888Y-86393837D01*
X180416892Y-86755640D01*
X180414598Y-86761834D01*
X180413800Y-86764915D01*
X180413799Y-86764919D01*
X180407877Y-86787792D01*
X180315434Y-87144826D01*
X180255526Y-87535886D01*
X180235488Y-87931000D01*
X151993258Y-87931000D01*
X151973474Y-87540886D01*
X151972684Y-87535724D01*
X151916171Y-87166831D01*
X151913566Y-87149826D01*
X151820605Y-86790792D01*
X151815201Y-86769919D01*
X151815200Y-86769915D01*
X151814402Y-86766834D01*
X151811443Y-86758845D01*
X151678112Y-86398837D01*
X151678110Y-86398832D01*
X151677001Y-86395838D01*
X151674549Y-86390838D01*
X151504179Y-86043518D01*
X151502771Y-86040647D01*
X151499655Y-86035647D01*
X151295186Y-85707608D01*
X151295184Y-85707605D01*
X151293501Y-85704905D01*
X151291557Y-85702393D01*
X151291551Y-85702385D01*
X151053291Y-85394579D01*
X151051339Y-85392057D01*
X150854266Y-85184736D01*
X150780968Y-85107626D01*
X150780965Y-85107623D01*
X150778769Y-85105313D01*
X150478587Y-84847616D01*
X150153875Y-84621610D01*
X149807965Y-84429614D01*
X149444405Y-84273598D01*
X149438031Y-84271598D01*
X149069959Y-84156114D01*
X149069948Y-84156111D01*
X149066926Y-84155163D01*
X148679403Y-84075525D01*
X148676240Y-84075203D01*
X148676231Y-84075202D01*
X148288990Y-84035824D01*
X148288985Y-84035824D01*
X148285811Y-84035501D01*
X147890189Y-84035501D01*
X147887015Y-84035824D01*
X147887010Y-84035824D01*
X147499769Y-84075202D01*
X147499760Y-84075203D01*
X147496597Y-84075525D01*
X147109074Y-84155163D01*
X147106052Y-84156111D01*
X147106041Y-84156114D01*
X146737969Y-84271598D01*
X146731595Y-84273598D01*
X146368035Y-84429614D01*
X146022125Y-84621610D01*
X145697413Y-84847616D01*
X145397231Y-85105313D01*
X145395035Y-85107623D01*
X145395032Y-85107626D01*
X145321734Y-85184736D01*
X145124661Y-85392057D01*
X145122709Y-85394579D01*
X144884449Y-85702385D01*
X144884443Y-85702393D01*
X144882499Y-85704905D01*
X144880816Y-85707605D01*
X144880814Y-85707608D01*
X144676346Y-86035647D01*
X144673229Y-86040647D01*
X144671821Y-86043518D01*
X144501452Y-86390838D01*
X144498999Y-86395838D01*
X144497890Y-86398832D01*
X144497888Y-86398837D01*
X144364557Y-86758845D01*
X144361598Y-86766834D01*
X144360800Y-86769915D01*
X144360799Y-86769919D01*
X144355395Y-86790792D01*
X144262434Y-87149826D01*
X144259829Y-87166831D01*
X144203317Y-87535724D01*
X144202526Y-87540886D01*
X144182488Y-87936000D01*
X138710500Y-87936000D01*
X138710500Y-71109000D01*
X162474487Y-71109000D01*
X162494525Y-71504114D01*
X162495008Y-71507268D01*
X162495009Y-71507276D01*
X162524170Y-71697628D01*
X162554433Y-71895174D01*
X162653597Y-72278167D01*
X162654704Y-72281156D01*
X162777873Y-72613722D01*
X162790998Y-72649162D01*
X162792405Y-72652030D01*
X162792407Y-72652035D01*
X162796394Y-72660162D01*
X162965228Y-73004353D01*
X162966915Y-73007059D01*
X162966918Y-73007065D01*
X163139229Y-73283512D01*
X163174498Y-73340095D01*
X163176443Y-73342607D01*
X163176448Y-73342615D01*
X163184963Y-73353615D01*
X163416660Y-73652944D01*
X163418856Y-73655254D01*
X163611832Y-73858264D01*
X163689231Y-73939688D01*
X163989412Y-74197385D01*
X164314124Y-74423391D01*
X164660035Y-74615387D01*
X165023595Y-74771403D01*
X165401073Y-74889838D01*
X165788597Y-74969476D01*
X165791760Y-74969798D01*
X165791769Y-74969799D01*
X166179010Y-75009177D01*
X166179015Y-75009177D01*
X166182189Y-75009500D01*
X166577811Y-75009500D01*
X166580985Y-75009177D01*
X166580990Y-75009177D01*
X166968231Y-74969799D01*
X166968240Y-74969798D01*
X166971403Y-74969476D01*
X167358927Y-74889838D01*
X167736405Y-74771403D01*
X168099965Y-74615387D01*
X168445876Y-74423391D01*
X168770588Y-74197385D01*
X169070769Y-73939688D01*
X169148169Y-73858264D01*
X169341144Y-73655254D01*
X169343340Y-73652944D01*
X169575037Y-73353615D01*
X169583552Y-73342615D01*
X169583557Y-73342607D01*
X169585502Y-73340095D01*
X169620771Y-73283512D01*
X169793082Y-73007065D01*
X169793085Y-73007059D01*
X169794772Y-73004353D01*
X169963606Y-72660162D01*
X169967593Y-72652035D01*
X169967595Y-72652030D01*
X169969002Y-72649162D01*
X169982128Y-72613722D01*
X170105296Y-72281156D01*
X170106403Y-72278167D01*
X170205567Y-71895174D01*
X170235830Y-71697628D01*
X170264991Y-71507276D01*
X170264992Y-71507268D01*
X170265475Y-71504114D01*
X170284955Y-71120000D01*
X198024487Y-71120000D01*
X198044525Y-71515114D01*
X198104433Y-71906174D01*
X198105231Y-71909256D01*
X198194028Y-72252208D01*
X198203597Y-72289167D01*
X198204704Y-72292156D01*
X198327873Y-72624722D01*
X198340998Y-72660162D01*
X198515228Y-73015353D01*
X198516915Y-73018059D01*
X198516918Y-73018065D01*
X198719212Y-73342615D01*
X198724498Y-73351095D01*
X198726443Y-73353607D01*
X198726448Y-73353615D01*
X198905127Y-73584449D01*
X198966660Y-73663944D01*
X198968856Y-73666254D01*
X199228775Y-73939688D01*
X199239231Y-73950688D01*
X199415409Y-74101932D01*
X199528719Y-74199205D01*
X199539412Y-74208385D01*
X199864124Y-74434391D01*
X199961900Y-74488661D01*
X200192478Y-74616642D01*
X200210035Y-74626387D01*
X200573595Y-74782403D01*
X200856050Y-74871024D01*
X200916014Y-74889838D01*
X200951073Y-74900838D01*
X201338597Y-74980476D01*
X201341760Y-74980798D01*
X201341769Y-74980799D01*
X201729010Y-75020177D01*
X201729015Y-75020177D01*
X201732189Y-75020500D01*
X202127811Y-75020500D01*
X202130985Y-75020177D01*
X202130990Y-75020177D01*
X202518231Y-74980799D01*
X202518240Y-74980798D01*
X202521403Y-74980476D01*
X202908927Y-74900838D01*
X202943987Y-74889838D01*
X203003950Y-74871024D01*
X203286405Y-74782403D01*
X203649965Y-74626387D01*
X203667523Y-74616642D01*
X203898100Y-74488661D01*
X203995876Y-74434391D01*
X204320588Y-74208385D01*
X204331282Y-74199205D01*
X204444591Y-74101932D01*
X204620769Y-73950688D01*
X204631226Y-73939688D01*
X204891144Y-73666254D01*
X204893340Y-73663944D01*
X204954873Y-73584449D01*
X205133552Y-73353615D01*
X205133557Y-73353607D01*
X205135502Y-73351095D01*
X205140788Y-73342615D01*
X205343082Y-73018065D01*
X205343085Y-73018059D01*
X205344772Y-73015353D01*
X205519002Y-72660162D01*
X205532128Y-72624722D01*
X205655296Y-72292156D01*
X205656403Y-72289167D01*
X205665973Y-72252208D01*
X205754769Y-71909256D01*
X205755567Y-71906174D01*
X205815475Y-71515114D01*
X205835513Y-71120000D01*
X205815475Y-70724886D01*
X205813306Y-70710724D01*
X205763806Y-70387608D01*
X205755567Y-70333826D01*
X205705971Y-70142275D01*
X205657202Y-69953918D01*
X205657201Y-69953914D01*
X205656403Y-69950833D01*
X205608267Y-69820862D01*
X205520113Y-69582837D01*
X205520111Y-69582832D01*
X205519002Y-69579838D01*
X205515078Y-69571837D01*
X205367141Y-69270250D01*
X205344772Y-69224647D01*
X205339706Y-69216518D01*
X205137187Y-68891608D01*
X205137185Y-68891605D01*
X205135502Y-68888905D01*
X205133557Y-68886393D01*
X205133552Y-68886385D01*
X204895292Y-68578578D01*
X204893340Y-68576056D01*
X204796608Y-68474294D01*
X204622968Y-68291625D01*
X204622965Y-68291622D01*
X204620769Y-68289312D01*
X204320588Y-68031615D01*
X203995876Y-67805609D01*
X203717124Y-67650889D01*
X203652749Y-67615158D01*
X203652745Y-67615156D01*
X203649965Y-67613613D01*
X203286405Y-67457597D01*
X202908927Y-67339162D01*
X202562648Y-67268000D01*
X216683627Y-67268000D01*
X216683800Y-67271301D01*
X216701245Y-67604158D01*
X216703104Y-67639638D01*
X216761320Y-68007204D01*
X216857639Y-68366671D01*
X216859485Y-68371480D01*
X216964308Y-68644551D01*
X216991005Y-68714100D01*
X216992497Y-68717028D01*
X216992500Y-68717035D01*
X217072160Y-68873375D01*
X217159957Y-69045687D01*
X217362643Y-69357796D01*
X217596843Y-69647009D01*
X217859991Y-69910157D01*
X218149204Y-70144357D01*
X218461313Y-70347043D01*
X218633625Y-70434840D01*
X218789965Y-70514500D01*
X218789972Y-70514503D01*
X218792900Y-70515995D01*
X218795972Y-70517174D01*
X218795976Y-70517176D01*
X218816817Y-70525176D01*
X219140329Y-70649361D01*
X219499796Y-70745680D01*
X219503046Y-70746195D01*
X219503052Y-70746196D01*
X219776231Y-70789463D01*
X219867362Y-70803896D01*
X219870647Y-70804068D01*
X219870655Y-70804069D01*
X220235699Y-70823200D01*
X220239000Y-70823373D01*
X220242301Y-70823200D01*
X220607345Y-70804069D01*
X220607353Y-70804068D01*
X220610638Y-70803896D01*
X220701769Y-70789463D01*
X220974948Y-70746196D01*
X220974954Y-70746195D01*
X220978204Y-70745680D01*
X221337671Y-70649361D01*
X221661183Y-70525176D01*
X221682024Y-70517176D01*
X221682028Y-70517174D01*
X221685100Y-70515995D01*
X221688028Y-70514503D01*
X221688035Y-70514500D01*
X221844375Y-70434840D01*
X222016687Y-70347043D01*
X222328796Y-70144357D01*
X222618009Y-69910157D01*
X222881157Y-69647009D01*
X223115357Y-69357796D01*
X223318043Y-69045687D01*
X223405840Y-68873375D01*
X223485500Y-68717035D01*
X223485503Y-68717028D01*
X223486995Y-68714100D01*
X223513693Y-68644551D01*
X223618515Y-68371480D01*
X223620361Y-68366671D01*
X223716680Y-68007204D01*
X223774896Y-67639638D01*
X223776756Y-67604158D01*
X223794200Y-67271301D01*
X223794373Y-67268000D01*
X223775394Y-66905855D01*
X223775069Y-66899655D01*
X223775068Y-66899647D01*
X223774896Y-66896362D01*
X223716680Y-66528796D01*
X223620361Y-66169329D01*
X223490066Y-65829900D01*
X223488176Y-65824976D01*
X223488174Y-65824972D01*
X223486995Y-65821900D01*
X223445013Y-65739505D01*
X223319542Y-65493255D01*
X223319538Y-65493248D01*
X223318043Y-65490314D01*
X223273593Y-65421866D01*
X223117157Y-65180976D01*
X223115357Y-65178204D01*
X222881157Y-64888991D01*
X222618009Y-64625843D01*
X222328796Y-64391643D01*
X222016687Y-64188957D01*
X221844375Y-64101160D01*
X221688035Y-64021500D01*
X221688028Y-64021497D01*
X221685100Y-64020005D01*
X221682028Y-64018826D01*
X221682024Y-64018824D01*
X221555730Y-63970344D01*
X221337671Y-63886639D01*
X220978204Y-63790320D01*
X220974954Y-63789805D01*
X220974948Y-63789804D01*
X220664400Y-63740619D01*
X220610638Y-63732104D01*
X220607353Y-63731932D01*
X220607345Y-63731931D01*
X220242301Y-63712800D01*
X220239000Y-63712627D01*
X220235699Y-63712800D01*
X219870655Y-63731931D01*
X219870647Y-63731932D01*
X219867362Y-63732104D01*
X219813600Y-63740619D01*
X219503052Y-63789804D01*
X219503046Y-63789805D01*
X219499796Y-63790320D01*
X219140329Y-63886639D01*
X218922270Y-63970344D01*
X218795976Y-64018824D01*
X218795972Y-64018826D01*
X218792900Y-64020005D01*
X218789972Y-64021497D01*
X218789965Y-64021500D01*
X218464255Y-64187458D01*
X218464252Y-64187460D01*
X218461314Y-64188957D01*
X218458548Y-64190753D01*
X218458545Y-64190755D01*
X218451303Y-64195458D01*
X218149204Y-64391643D01*
X217859991Y-64625843D01*
X217596843Y-64888991D01*
X217362643Y-65178204D01*
X217360843Y-65180976D01*
X217204408Y-65421866D01*
X217159957Y-65490314D01*
X217158462Y-65493248D01*
X217158458Y-65493255D01*
X217032987Y-65739505D01*
X216991005Y-65821900D01*
X216989826Y-65824972D01*
X216989824Y-65824976D01*
X216987934Y-65829900D01*
X216857639Y-66169329D01*
X216761320Y-66528796D01*
X216703104Y-66896362D01*
X216702932Y-66899647D01*
X216702931Y-66899655D01*
X216702606Y-66905855D01*
X216683627Y-67268000D01*
X202562648Y-67268000D01*
X202521403Y-67259524D01*
X202518240Y-67259202D01*
X202518231Y-67259201D01*
X202130990Y-67219823D01*
X202130985Y-67219823D01*
X202127811Y-67219500D01*
X201732189Y-67219500D01*
X201729015Y-67219823D01*
X201729010Y-67219823D01*
X201341769Y-67259201D01*
X201341760Y-67259202D01*
X201338597Y-67259524D01*
X200951073Y-67339162D01*
X200573595Y-67457597D01*
X200210035Y-67613613D01*
X200207255Y-67615156D01*
X200207251Y-67615158D01*
X200142876Y-67650889D01*
X199864124Y-67805609D01*
X199539412Y-68031615D01*
X199239231Y-68289312D01*
X199237035Y-68291622D01*
X199237032Y-68291625D01*
X199063392Y-68474294D01*
X198966660Y-68576056D01*
X198964708Y-68578578D01*
X198726448Y-68886385D01*
X198726443Y-68886393D01*
X198724498Y-68888905D01*
X198722815Y-68891605D01*
X198722813Y-68891608D01*
X198520295Y-69216518D01*
X198515228Y-69224647D01*
X198492859Y-69270250D01*
X198344923Y-69571837D01*
X198340998Y-69579838D01*
X198339889Y-69582832D01*
X198339887Y-69582837D01*
X198251733Y-69820862D01*
X198203597Y-69950833D01*
X198202799Y-69953914D01*
X198202798Y-69953918D01*
X198154029Y-70142275D01*
X198104433Y-70333826D01*
X198096194Y-70387608D01*
X198046695Y-70710724D01*
X198044525Y-70724886D01*
X198024487Y-71120000D01*
X170284955Y-71120000D01*
X170285513Y-71109000D01*
X170265475Y-70713886D01*
X170251183Y-70620588D01*
X170234930Y-70514500D01*
X170205567Y-70322826D01*
X170180840Y-70227324D01*
X170107202Y-69942918D01*
X170107201Y-69942914D01*
X170106403Y-69939833D01*
X170000916Y-69655009D01*
X169970113Y-69571837D01*
X169970111Y-69571832D01*
X169969002Y-69568838D01*
X169794772Y-69213647D01*
X169658394Y-68994848D01*
X169587187Y-68880608D01*
X169587185Y-68880605D01*
X169585502Y-68877905D01*
X169583557Y-68875393D01*
X169583552Y-68875385D01*
X169353807Y-68578578D01*
X169343340Y-68565056D01*
X169154761Y-68366671D01*
X169072968Y-68280625D01*
X169072965Y-68280622D01*
X169070769Y-68278312D01*
X168785815Y-68033687D01*
X168773002Y-68022687D01*
X168772998Y-68022684D01*
X168770588Y-68020615D01*
X168445876Y-67794609D01*
X168172529Y-67642889D01*
X168102749Y-67604158D01*
X168102745Y-67604156D01*
X168099965Y-67602613D01*
X167736405Y-67446597D01*
X167397043Y-67340121D01*
X167361984Y-67329121D01*
X167361981Y-67329120D01*
X167358927Y-67328162D01*
X166971403Y-67248524D01*
X166968240Y-67248202D01*
X166968231Y-67248201D01*
X166580990Y-67208823D01*
X166580985Y-67208823D01*
X166577811Y-67208500D01*
X166182189Y-67208500D01*
X166179015Y-67208823D01*
X166179010Y-67208823D01*
X165791769Y-67248201D01*
X165791760Y-67248202D01*
X165788597Y-67248524D01*
X165401073Y-67328162D01*
X165398019Y-67329120D01*
X165398016Y-67329121D01*
X165362957Y-67340121D01*
X165023595Y-67446597D01*
X164660035Y-67602613D01*
X164657255Y-67604156D01*
X164657251Y-67604158D01*
X164587471Y-67642889D01*
X164314124Y-67794609D01*
X163989412Y-68020615D01*
X163987002Y-68022684D01*
X163986998Y-68022687D01*
X163974185Y-68033687D01*
X163689231Y-68278312D01*
X163687035Y-68280622D01*
X163687032Y-68280625D01*
X163605239Y-68366671D01*
X163416660Y-68565056D01*
X163406193Y-68578578D01*
X163176448Y-68875385D01*
X163176443Y-68875393D01*
X163174498Y-68877905D01*
X163172815Y-68880605D01*
X163172813Y-68880608D01*
X163101607Y-68994848D01*
X162965228Y-69213647D01*
X162790998Y-69568838D01*
X162789889Y-69571832D01*
X162789887Y-69571837D01*
X162759084Y-69655009D01*
X162653597Y-69939833D01*
X162652799Y-69942914D01*
X162652798Y-69942918D01*
X162579160Y-70227324D01*
X162554433Y-70322826D01*
X162525070Y-70514500D01*
X162508818Y-70620588D01*
X162494525Y-70713886D01*
X162474487Y-71109000D01*
X138710500Y-71109000D01*
X138710500Y-67276000D01*
X144514627Y-67276000D01*
X144514800Y-67279301D01*
X144533685Y-67639638D01*
X144534104Y-67647638D01*
X144534619Y-67650889D01*
X144574888Y-67905139D01*
X144592320Y-68015204D01*
X144688639Y-68374671D01*
X144689824Y-68377757D01*
X144820061Y-68717035D01*
X144822005Y-68722100D01*
X144990957Y-69053687D01*
X145193643Y-69365796D01*
X145427843Y-69655009D01*
X145690991Y-69918157D01*
X145980204Y-70152357D01*
X146292313Y-70355043D01*
X146464625Y-70442840D01*
X146620965Y-70522500D01*
X146620972Y-70522503D01*
X146623900Y-70523995D01*
X146626972Y-70525174D01*
X146626976Y-70525176D01*
X146752539Y-70573375D01*
X146971329Y-70657361D01*
X147330796Y-70753680D01*
X147334046Y-70754195D01*
X147334052Y-70754196D01*
X147607231Y-70797463D01*
X147698362Y-70811896D01*
X147701647Y-70812068D01*
X147701655Y-70812069D01*
X148066699Y-70831200D01*
X148070000Y-70831373D01*
X148073301Y-70831200D01*
X148438345Y-70812069D01*
X148438353Y-70812068D01*
X148441638Y-70811896D01*
X148532769Y-70797463D01*
X148805948Y-70754196D01*
X148805954Y-70754195D01*
X148809204Y-70753680D01*
X149168671Y-70657361D01*
X149387461Y-70573375D01*
X149513024Y-70525176D01*
X149513028Y-70525174D01*
X149516100Y-70523995D01*
X149519028Y-70522503D01*
X149519035Y-70522500D01*
X149675375Y-70442840D01*
X149847687Y-70355043D01*
X150159796Y-70152357D01*
X150449009Y-69918157D01*
X150712157Y-69655009D01*
X150946357Y-69365796D01*
X151149043Y-69053687D01*
X151317995Y-68722100D01*
X151319940Y-68717035D01*
X151450176Y-68377757D01*
X151451361Y-68374671D01*
X151547680Y-68015204D01*
X151565113Y-67905139D01*
X151605381Y-67650889D01*
X151605896Y-67647638D01*
X151606316Y-67639638D01*
X151625200Y-67279301D01*
X151625373Y-67276000D01*
X151605896Y-66904362D01*
X151547680Y-66536796D01*
X151451361Y-66177329D01*
X151317995Y-65829900D01*
X151316500Y-65826965D01*
X151150542Y-65501255D01*
X151150538Y-65501248D01*
X151149043Y-65498314D01*
X151142317Y-65487956D01*
X150948159Y-65188979D01*
X150946357Y-65186204D01*
X150712157Y-64896991D01*
X150449009Y-64633843D01*
X150159796Y-64399643D01*
X149847687Y-64196957D01*
X149675375Y-64109160D01*
X149519035Y-64029500D01*
X149519028Y-64029497D01*
X149516100Y-64028005D01*
X149513028Y-64026826D01*
X149513024Y-64026824D01*
X149386730Y-63978344D01*
X149168671Y-63894639D01*
X148809204Y-63798320D01*
X148805954Y-63797805D01*
X148805948Y-63797804D01*
X148532769Y-63754537D01*
X148441638Y-63740104D01*
X148438353Y-63739932D01*
X148438345Y-63739931D01*
X148073301Y-63720800D01*
X148070000Y-63720627D01*
X148066699Y-63720800D01*
X147701655Y-63739931D01*
X147701647Y-63739932D01*
X147698362Y-63740104D01*
X147607231Y-63754537D01*
X147334052Y-63797804D01*
X147334046Y-63797805D01*
X147330796Y-63798320D01*
X146971329Y-63894639D01*
X146753270Y-63978344D01*
X146626976Y-64026824D01*
X146626972Y-64026826D01*
X146623900Y-64028005D01*
X146620972Y-64029497D01*
X146620965Y-64029500D01*
X146295255Y-64195458D01*
X146295252Y-64195460D01*
X146292314Y-64196957D01*
X146289548Y-64198753D01*
X146289545Y-64198755D01*
X146260320Y-64217734D01*
X145980204Y-64399643D01*
X145690991Y-64633843D01*
X145427843Y-64896991D01*
X145193643Y-65186204D01*
X145191841Y-65188979D01*
X144997684Y-65487956D01*
X144990957Y-65498314D01*
X144989462Y-65501248D01*
X144989458Y-65501255D01*
X144823500Y-65826965D01*
X144822005Y-65829900D01*
X144688639Y-66177329D01*
X144592320Y-66536796D01*
X144534104Y-66904362D01*
X144514627Y-67276000D01*
X138710500Y-67276000D01*
X138710500Y-61584000D01*
X179987495Y-61584000D01*
X180007505Y-61991311D01*
X180007959Y-61994371D01*
X180065018Y-62379029D01*
X180067342Y-62394699D01*
X180166430Y-62790279D01*
X180303814Y-63174243D01*
X180305130Y-63177026D01*
X180305134Y-63177035D01*
X180458217Y-63500700D01*
X180478172Y-63542891D01*
X180479755Y-63545532D01*
X180686235Y-63890025D01*
X180686241Y-63890034D01*
X180687824Y-63892675D01*
X180689667Y-63895160D01*
X180912385Y-64195460D01*
X180930751Y-64220224D01*
X181204614Y-64522386D01*
X181506776Y-64796249D01*
X181509262Y-64798093D01*
X181509266Y-64798096D01*
X181631824Y-64888991D01*
X181834325Y-65039176D01*
X181836966Y-65040759D01*
X181836975Y-65040765D01*
X182075329Y-65183628D01*
X182184109Y-65248828D01*
X182186888Y-65250142D01*
X182186891Y-65250144D01*
X182549965Y-65421866D01*
X182549974Y-65421870D01*
X182552757Y-65423186D01*
X182754988Y-65495545D01*
X182933816Y-65559531D01*
X182933824Y-65559533D01*
X182936721Y-65560570D01*
X183132724Y-65609666D01*
X183329298Y-65658906D01*
X183329302Y-65658907D01*
X183332301Y-65659658D01*
X183335363Y-65660112D01*
X183335367Y-65660113D01*
X183608535Y-65700633D01*
X183735689Y-65719495D01*
X183738773Y-65719647D01*
X183738778Y-65719647D01*
X184139906Y-65739353D01*
X184143000Y-65739505D01*
X184146094Y-65739353D01*
X184547222Y-65719647D01*
X184547227Y-65719647D01*
X184550311Y-65719495D01*
X184677465Y-65700633D01*
X184950633Y-65660113D01*
X184950637Y-65660112D01*
X184953699Y-65659658D01*
X184956698Y-65658907D01*
X184956702Y-65658906D01*
X185153276Y-65609666D01*
X185349279Y-65560570D01*
X185352176Y-65559533D01*
X185352184Y-65559531D01*
X185531012Y-65495545D01*
X185733243Y-65423186D01*
X185736026Y-65421870D01*
X185736035Y-65421866D01*
X186099109Y-65250144D01*
X186099112Y-65250142D01*
X186101891Y-65248828D01*
X186210671Y-65183628D01*
X186449025Y-65040765D01*
X186449034Y-65040759D01*
X186451675Y-65039176D01*
X186654176Y-64888991D01*
X186776734Y-64798096D01*
X186776738Y-64798093D01*
X186779224Y-64796249D01*
X187081386Y-64522386D01*
X187355249Y-64220224D01*
X187373616Y-64195460D01*
X187596333Y-63895160D01*
X187598176Y-63892675D01*
X187599759Y-63890034D01*
X187599765Y-63890025D01*
X187806245Y-63545532D01*
X187807828Y-63542891D01*
X187827783Y-63500700D01*
X187980866Y-63177035D01*
X187980870Y-63177026D01*
X187982186Y-63174243D01*
X188119570Y-62790279D01*
X188218658Y-62394699D01*
X188220983Y-62379029D01*
X188278041Y-61994371D01*
X188278495Y-61991311D01*
X188298505Y-61584000D01*
X188278495Y-61176689D01*
X188259633Y-61049535D01*
X188219113Y-60776367D01*
X188219112Y-60776363D01*
X188218658Y-60773301D01*
X188119570Y-60377721D01*
X187982186Y-59993757D01*
X187980870Y-59990974D01*
X187980866Y-59990965D01*
X187809144Y-59627891D01*
X187809142Y-59627888D01*
X187807828Y-59625109D01*
X187629614Y-59327776D01*
X187599765Y-59277975D01*
X187599759Y-59277966D01*
X187598176Y-59275325D01*
X187355249Y-58947776D01*
X187081386Y-58645614D01*
X186779224Y-58371751D01*
X186451675Y-58128824D01*
X186449034Y-58127241D01*
X186449025Y-58127235D01*
X186104532Y-57920755D01*
X186104533Y-57920755D01*
X186101891Y-57919172D01*
X186019805Y-57880348D01*
X185736035Y-57746134D01*
X185736026Y-57746130D01*
X185733243Y-57744814D01*
X185439102Y-57639569D01*
X185352184Y-57608469D01*
X185352176Y-57608467D01*
X185349279Y-57607430D01*
X185153276Y-57558334D01*
X184956702Y-57509094D01*
X184956698Y-57509093D01*
X184953699Y-57508342D01*
X184950637Y-57507888D01*
X184950633Y-57507887D01*
X184677465Y-57467367D01*
X184550311Y-57448505D01*
X184547227Y-57448353D01*
X184547222Y-57448353D01*
X184146094Y-57428647D01*
X184143000Y-57428495D01*
X184139906Y-57428647D01*
X183738778Y-57448353D01*
X183738773Y-57448353D01*
X183735689Y-57448505D01*
X183608535Y-57467367D01*
X183335367Y-57507887D01*
X183335363Y-57507888D01*
X183332301Y-57508342D01*
X183329302Y-57509093D01*
X183329298Y-57509094D01*
X183132724Y-57558334D01*
X182936721Y-57607430D01*
X182933824Y-57608467D01*
X182933816Y-57608469D01*
X182846898Y-57639569D01*
X182552757Y-57744814D01*
X182549974Y-57746130D01*
X182549965Y-57746134D01*
X182266195Y-57880348D01*
X182184109Y-57919172D01*
X182181467Y-57920755D01*
X182181468Y-57920755D01*
X181836975Y-58127235D01*
X181836966Y-58127241D01*
X181834325Y-58128824D01*
X181506776Y-58371751D01*
X181204614Y-58645614D01*
X180930751Y-58947776D01*
X180687824Y-59275325D01*
X180686241Y-59277966D01*
X180686235Y-59277975D01*
X180656386Y-59327776D01*
X180478172Y-59625109D01*
X180476858Y-59627888D01*
X180476856Y-59627891D01*
X180305134Y-59990965D01*
X180305130Y-59990974D01*
X180303814Y-59993757D01*
X180166430Y-60377721D01*
X180067342Y-60773301D01*
X180066888Y-60776363D01*
X180066887Y-60776367D01*
X180026367Y-61049535D01*
X180007505Y-61176689D01*
X179987495Y-61584000D01*
X138710500Y-61584000D01*
X138710500Y-47976000D01*
X144153488Y-47976000D01*
X144173526Y-48371114D01*
X144233434Y-48762174D01*
X144234232Y-48765256D01*
X144324841Y-49115205D01*
X144332598Y-49145166D01*
X144333705Y-49148155D01*
X144468471Y-49512035D01*
X144469999Y-49516162D01*
X144471406Y-49519030D01*
X144471408Y-49519035D01*
X144526162Y-49630657D01*
X144644229Y-49871353D01*
X144645916Y-49874059D01*
X144645919Y-49874065D01*
X144851814Y-50204392D01*
X144853499Y-50207095D01*
X144855443Y-50209607D01*
X144855449Y-50209615D01*
X145037224Y-50444449D01*
X145095661Y-50519943D01*
X145368231Y-50806687D01*
X145544836Y-50958297D01*
X145657847Y-51055313D01*
X145668413Y-51064384D01*
X145993125Y-51290390D01*
X146339035Y-51482386D01*
X146702595Y-51638402D01*
X146705628Y-51639354D01*
X146705629Y-51639354D01*
X147077041Y-51755886D01*
X147077052Y-51755889D01*
X147080074Y-51756837D01*
X147467597Y-51836475D01*
X147470760Y-51836797D01*
X147470769Y-51836798D01*
X147858010Y-51876176D01*
X147858015Y-51876176D01*
X147861189Y-51876499D01*
X148256811Y-51876499D01*
X148259985Y-51876176D01*
X148259990Y-51876176D01*
X148647231Y-51836798D01*
X148647240Y-51836797D01*
X148650403Y-51836475D01*
X149037926Y-51756837D01*
X149040948Y-51755889D01*
X149040959Y-51755886D01*
X149412371Y-51639354D01*
X149412372Y-51639354D01*
X149415405Y-51638402D01*
X149778965Y-51482386D01*
X150124875Y-51290390D01*
X150449587Y-51064384D01*
X150460154Y-51055313D01*
X150573164Y-50958297D01*
X150749769Y-50806687D01*
X151022339Y-50519943D01*
X151080776Y-50444449D01*
X151262551Y-50209615D01*
X151262557Y-50209607D01*
X151264501Y-50207095D01*
X151266186Y-50204392D01*
X151472081Y-49874065D01*
X151472084Y-49874059D01*
X151473771Y-49871353D01*
X151591838Y-49630657D01*
X151646592Y-49519035D01*
X151646594Y-49519030D01*
X151648001Y-49516162D01*
X151649530Y-49512035D01*
X151784295Y-49148155D01*
X151785402Y-49145166D01*
X151793160Y-49115205D01*
X151883768Y-48765256D01*
X151884566Y-48762174D01*
X151944474Y-48371114D01*
X151964512Y-47976000D01*
X151944474Y-47580886D01*
X151943892Y-47577083D01*
X151887171Y-47206831D01*
X151884566Y-47189826D01*
X151785402Y-46806834D01*
X151775897Y-46781169D01*
X151649112Y-46438837D01*
X151649110Y-46438832D01*
X151648001Y-46435838D01*
X151646039Y-46431837D01*
X151496141Y-46126251D01*
X151473771Y-46080647D01*
X151471198Y-46076518D01*
X151430983Y-46012000D01*
X168207487Y-46012000D01*
X168227525Y-46407114D01*
X168228008Y-46410268D01*
X168228009Y-46410276D01*
X168257170Y-46600628D01*
X168287433Y-46798174D01*
X168288231Y-46801256D01*
X168383242Y-47168208D01*
X168386597Y-47181167D01*
X168387704Y-47184156D01*
X168510873Y-47516722D01*
X168523998Y-47552162D01*
X168525405Y-47555030D01*
X168525407Y-47555035D01*
X168608287Y-47723996D01*
X168698228Y-47907353D01*
X168699915Y-47910059D01*
X168699918Y-47910065D01*
X168739025Y-47972806D01*
X168907498Y-48243095D01*
X168909443Y-48245607D01*
X168909448Y-48245615D01*
X169009039Y-48374276D01*
X169149660Y-48555944D01*
X169164213Y-48571254D01*
X169345697Y-48762174D01*
X169422231Y-48842688D01*
X169722412Y-49100385D01*
X170047124Y-49326391D01*
X170070546Y-49339391D01*
X170381591Y-49512035D01*
X170393035Y-49518387D01*
X170756595Y-49674403D01*
X171134073Y-49792838D01*
X171521597Y-49872476D01*
X171524760Y-49872798D01*
X171524769Y-49872799D01*
X171912010Y-49912177D01*
X171912015Y-49912177D01*
X171915189Y-49912500D01*
X172310811Y-49912500D01*
X172313985Y-49912177D01*
X172313990Y-49912177D01*
X172701231Y-49872799D01*
X172701240Y-49872798D01*
X172704403Y-49872476D01*
X173091927Y-49792838D01*
X173469405Y-49674403D01*
X173832965Y-49518387D01*
X173844410Y-49512035D01*
X174155454Y-49339391D01*
X174178876Y-49326391D01*
X174503588Y-49100385D01*
X174803769Y-48842688D01*
X174880304Y-48762174D01*
X175061787Y-48571254D01*
X175076340Y-48555944D01*
X175216961Y-48374276D01*
X175316552Y-48245615D01*
X175316557Y-48245607D01*
X175318502Y-48243095D01*
X175486975Y-47972806D01*
X175526082Y-47910065D01*
X175526085Y-47910059D01*
X175527772Y-47907353D01*
X175617713Y-47723996D01*
X175700593Y-47555035D01*
X175700595Y-47555030D01*
X175702002Y-47552162D01*
X175715128Y-47516722D01*
X175838296Y-47184156D01*
X175839403Y-47181167D01*
X175842759Y-47168208D01*
X175937769Y-46801256D01*
X175938567Y-46798174D01*
X175968830Y-46600628D01*
X175997991Y-46410276D01*
X175997992Y-46410268D01*
X175998475Y-46407114D01*
X176017854Y-46025000D01*
X192262487Y-46025000D01*
X192282525Y-46420114D01*
X192283008Y-46423268D01*
X192283009Y-46423276D01*
X192290363Y-46471278D01*
X192342433Y-46811174D01*
X192343231Y-46814256D01*
X192438661Y-47182826D01*
X192441597Y-47194167D01*
X192442704Y-47197156D01*
X192573073Y-47549163D01*
X192578998Y-47565162D01*
X192580405Y-47568030D01*
X192580407Y-47568035D01*
X192585160Y-47577724D01*
X192753228Y-47920353D01*
X192754915Y-47923059D01*
X192754918Y-47923065D01*
X192785922Y-47972806D01*
X192962498Y-48256095D01*
X192964443Y-48258607D01*
X192964448Y-48258615D01*
X193048558Y-48367276D01*
X193204660Y-48568944D01*
X193206856Y-48571254D01*
X193464874Y-48842688D01*
X193477231Y-48855688D01*
X193651110Y-49004958D01*
X193764389Y-49102205D01*
X193777412Y-49113385D01*
X194102124Y-49339391D01*
X194196297Y-49391661D01*
X194426875Y-49519642D01*
X194448035Y-49531387D01*
X194811595Y-49687403D01*
X195094050Y-49776024D01*
X195149689Y-49793481D01*
X195189073Y-49805838D01*
X195576597Y-49885476D01*
X195579760Y-49885798D01*
X195579769Y-49885799D01*
X195967010Y-49925177D01*
X195967015Y-49925177D01*
X195970189Y-49925500D01*
X196365811Y-49925500D01*
X196368985Y-49925177D01*
X196368990Y-49925177D01*
X196756231Y-49885799D01*
X196756240Y-49885798D01*
X196759403Y-49885476D01*
X197146927Y-49805838D01*
X197186312Y-49793481D01*
X197241950Y-49776024D01*
X197524405Y-49687403D01*
X197887965Y-49531387D01*
X197909126Y-49519642D01*
X198139703Y-49391661D01*
X198233876Y-49339391D01*
X198558588Y-49113385D01*
X198571612Y-49102205D01*
X198684890Y-49004958D01*
X198858769Y-48855688D01*
X198871127Y-48842688D01*
X199129144Y-48571254D01*
X199131340Y-48568944D01*
X199287442Y-48367276D01*
X199371552Y-48258615D01*
X199371557Y-48258607D01*
X199373502Y-48256095D01*
X199550078Y-47972806D01*
X199552450Y-47969000D01*
X216343487Y-47969000D01*
X216363525Y-48364114D01*
X216364008Y-48367268D01*
X216364009Y-48367276D01*
X216382419Y-48487449D01*
X216423433Y-48755174D01*
X216424231Y-48758256D01*
X216516652Y-49115205D01*
X216522597Y-49138167D01*
X216523704Y-49141156D01*
X216646873Y-49473722D01*
X216659998Y-49509162D01*
X216661405Y-49512030D01*
X216661407Y-49512035D01*
X216676809Y-49543434D01*
X216834228Y-49864353D01*
X216835915Y-49867059D01*
X216835918Y-49867065D01*
X216846994Y-49884834D01*
X217043498Y-50200095D01*
X217045443Y-50202607D01*
X217045448Y-50202615D01*
X217232641Y-50444449D01*
X217285660Y-50512944D01*
X217287856Y-50515254D01*
X217487486Y-50725264D01*
X217558231Y-50799688D01*
X217858412Y-51057385D01*
X218183124Y-51283391D01*
X218529035Y-51475387D01*
X218892595Y-51631403D01*
X219270073Y-51749838D01*
X219657597Y-51829476D01*
X219660760Y-51829798D01*
X219660769Y-51829799D01*
X220048010Y-51869177D01*
X220048015Y-51869177D01*
X220051189Y-51869500D01*
X220446811Y-51869500D01*
X220449985Y-51869177D01*
X220449990Y-51869177D01*
X220837231Y-51829799D01*
X220837240Y-51829798D01*
X220840403Y-51829476D01*
X221227927Y-51749838D01*
X221605405Y-51631403D01*
X221968965Y-51475387D01*
X222314876Y-51283391D01*
X222639588Y-51057385D01*
X222939769Y-50799688D01*
X223010515Y-50725264D01*
X223210144Y-50515254D01*
X223212340Y-50512944D01*
X223265359Y-50444449D01*
X223452552Y-50202615D01*
X223452557Y-50202607D01*
X223454502Y-50200095D01*
X223651006Y-49884834D01*
X223662082Y-49867065D01*
X223662085Y-49867059D01*
X223663772Y-49864353D01*
X223821191Y-49543434D01*
X223836593Y-49512035D01*
X223836595Y-49512030D01*
X223838002Y-49509162D01*
X223851128Y-49473722D01*
X223974296Y-49141156D01*
X223975403Y-49138167D01*
X223981349Y-49115205D01*
X224073769Y-48758256D01*
X224074567Y-48755174D01*
X224115581Y-48487449D01*
X224133991Y-48367276D01*
X224133992Y-48367268D01*
X224134475Y-48364114D01*
X224154513Y-47969000D01*
X224134475Y-47573886D01*
X224131588Y-47555035D01*
X224076304Y-47194167D01*
X224074567Y-47182826D01*
X223982124Y-46825792D01*
X223976202Y-46802918D01*
X223976201Y-46802914D01*
X223975403Y-46799833D01*
X223853720Y-46471278D01*
X223839113Y-46431837D01*
X223839111Y-46431832D01*
X223838002Y-46428838D01*
X223832155Y-46416917D01*
X223753713Y-46257004D01*
X223663772Y-46073647D01*
X223631460Y-46021806D01*
X223456187Y-45740608D01*
X223456185Y-45740605D01*
X223454502Y-45737905D01*
X223452557Y-45735393D01*
X223452552Y-45735385D01*
X223214292Y-45427578D01*
X223212340Y-45425056D01*
X223025951Y-45228975D01*
X222941968Y-45140625D01*
X222941965Y-45140622D01*
X222939769Y-45138312D01*
X222650157Y-44889688D01*
X222642002Y-44882687D01*
X222641998Y-44882684D01*
X222639588Y-44880615D01*
X222314876Y-44654609D01*
X222003831Y-44481965D01*
X221971749Y-44464158D01*
X221971745Y-44464156D01*
X221968965Y-44462613D01*
X221605405Y-44306597D01*
X221227927Y-44188162D01*
X220840403Y-44108524D01*
X220837240Y-44108202D01*
X220837231Y-44108201D01*
X220449990Y-44068823D01*
X220449985Y-44068823D01*
X220446811Y-44068500D01*
X220051189Y-44068500D01*
X220048015Y-44068823D01*
X220048010Y-44068823D01*
X219660769Y-44108201D01*
X219660760Y-44108202D01*
X219657597Y-44108524D01*
X219270073Y-44188162D01*
X218892595Y-44306597D01*
X218529035Y-44462613D01*
X218526255Y-44464156D01*
X218526251Y-44464158D01*
X218494169Y-44481965D01*
X218183124Y-44654609D01*
X217858412Y-44880615D01*
X217856002Y-44882684D01*
X217855998Y-44882687D01*
X217847843Y-44889688D01*
X217558231Y-45138312D01*
X217556035Y-45140622D01*
X217556032Y-45140625D01*
X217472049Y-45228975D01*
X217285660Y-45425056D01*
X217283708Y-45427578D01*
X217045448Y-45735385D01*
X217045443Y-45735393D01*
X217043498Y-45737905D01*
X217041815Y-45740605D01*
X217041813Y-45740608D01*
X216866541Y-46021806D01*
X216834228Y-46073647D01*
X216744287Y-46257004D01*
X216665846Y-46416917D01*
X216659998Y-46428838D01*
X216658889Y-46431832D01*
X216658887Y-46431837D01*
X216644280Y-46471278D01*
X216522597Y-46799833D01*
X216521799Y-46802914D01*
X216521798Y-46802918D01*
X216515876Y-46825792D01*
X216423433Y-47182826D01*
X216421696Y-47194167D01*
X216366413Y-47555035D01*
X216363525Y-47573886D01*
X216343487Y-47969000D01*
X199552450Y-47969000D01*
X199581082Y-47923065D01*
X199581085Y-47923059D01*
X199582772Y-47920353D01*
X199750840Y-47577724D01*
X199755593Y-47568035D01*
X199755595Y-47568030D01*
X199757002Y-47565162D01*
X199762928Y-47549163D01*
X199893296Y-47197156D01*
X199894403Y-47194167D01*
X199897340Y-47182826D01*
X199992769Y-46814256D01*
X199993567Y-46811174D01*
X200045637Y-46471278D01*
X200052991Y-46423276D01*
X200052992Y-46423268D01*
X200053475Y-46420114D01*
X200073513Y-46025000D01*
X200053475Y-45629886D01*
X200051974Y-45620083D01*
X199996172Y-45255831D01*
X199993567Y-45238826D01*
X199927340Y-44983042D01*
X199895202Y-44858918D01*
X199895201Y-44858914D01*
X199894403Y-44855833D01*
X199819304Y-44653058D01*
X199758113Y-44487837D01*
X199758111Y-44487832D01*
X199757002Y-44484838D01*
X199752097Y-44474837D01*
X199669102Y-44305643D01*
X199582772Y-44129647D01*
X199573769Y-44115202D01*
X199375187Y-43796608D01*
X199375185Y-43796605D01*
X199373502Y-43793905D01*
X199371557Y-43791393D01*
X199371552Y-43791385D01*
X199133292Y-43483578D01*
X199131340Y-43481056D01*
X198987385Y-43329616D01*
X198860968Y-43196625D01*
X198860965Y-43196622D01*
X198858769Y-43194312D01*
X198558588Y-42936615D01*
X198233876Y-42710609D01*
X197887965Y-42518613D01*
X197524405Y-42362597D01*
X197146927Y-42244162D01*
X196759403Y-42164524D01*
X196756240Y-42164202D01*
X196756231Y-42164201D01*
X196368990Y-42124823D01*
X196368985Y-42124823D01*
X196365811Y-42124500D01*
X195970189Y-42124500D01*
X195967015Y-42124823D01*
X195967010Y-42124823D01*
X195579769Y-42164201D01*
X195579760Y-42164202D01*
X195576597Y-42164524D01*
X195189073Y-42244162D01*
X194811595Y-42362597D01*
X194448035Y-42518613D01*
X194102124Y-42710609D01*
X193777412Y-42936615D01*
X193477231Y-43194312D01*
X193475035Y-43196622D01*
X193475032Y-43196625D01*
X193348615Y-43329616D01*
X193204660Y-43481056D01*
X193202708Y-43483578D01*
X192964448Y-43791385D01*
X192964443Y-43791393D01*
X192962498Y-43793905D01*
X192960815Y-43796605D01*
X192960813Y-43796608D01*
X192762232Y-44115202D01*
X192753228Y-44129647D01*
X192666898Y-44305643D01*
X192583904Y-44474837D01*
X192578998Y-44484838D01*
X192577889Y-44487832D01*
X192577887Y-44487837D01*
X192516696Y-44653058D01*
X192441597Y-44855833D01*
X192440799Y-44858914D01*
X192440798Y-44858918D01*
X192408660Y-44983042D01*
X192342433Y-45238826D01*
X192339828Y-45255831D01*
X192284027Y-45620083D01*
X192282525Y-45629886D01*
X192262487Y-46025000D01*
X176017854Y-46025000D01*
X176018513Y-46012000D01*
X175998475Y-45616886D01*
X175980654Y-45500552D01*
X175968734Y-45422746D01*
X175938567Y-45225826D01*
X175849490Y-44881792D01*
X175840202Y-44845918D01*
X175840201Y-44845914D01*
X175839403Y-44842833D01*
X175748112Y-44596339D01*
X175703113Y-44474837D01*
X175703111Y-44474832D01*
X175702002Y-44471838D01*
X175700296Y-44468359D01*
X175602750Y-44269500D01*
X175527772Y-44116647D01*
X175502126Y-44075501D01*
X175320187Y-43783608D01*
X175320185Y-43783605D01*
X175318502Y-43780905D01*
X175316557Y-43778393D01*
X175316552Y-43778385D01*
X175086403Y-43481056D01*
X175076340Y-43468056D01*
X174893526Y-43275736D01*
X174805968Y-43183625D01*
X174805965Y-43183622D01*
X174803769Y-43181312D01*
X174521145Y-42938687D01*
X174506002Y-42925687D01*
X174505998Y-42925684D01*
X174503588Y-42923615D01*
X174178876Y-42697609D01*
X173856387Y-42518613D01*
X173835749Y-42507158D01*
X173835745Y-42507156D01*
X173832965Y-42505613D01*
X173469405Y-42349597D01*
X173186950Y-42260976D01*
X173094984Y-42232121D01*
X173094981Y-42232120D01*
X173091927Y-42231162D01*
X172704403Y-42151524D01*
X172701240Y-42151202D01*
X172701231Y-42151201D01*
X172313990Y-42111823D01*
X172313985Y-42111823D01*
X172310811Y-42111500D01*
X171915189Y-42111500D01*
X171912015Y-42111823D01*
X171912010Y-42111823D01*
X171524769Y-42151201D01*
X171524760Y-42151202D01*
X171521597Y-42151524D01*
X171134073Y-42231162D01*
X171131019Y-42232120D01*
X171131016Y-42232121D01*
X171039050Y-42260976D01*
X170756595Y-42349597D01*
X170393035Y-42505613D01*
X170390255Y-42507156D01*
X170390251Y-42507158D01*
X170369613Y-42518613D01*
X170047124Y-42697609D01*
X169722412Y-42923615D01*
X169720002Y-42925684D01*
X169719998Y-42925687D01*
X169704855Y-42938687D01*
X169422231Y-43181312D01*
X169420035Y-43183622D01*
X169420032Y-43183625D01*
X169332474Y-43275736D01*
X169149660Y-43468056D01*
X169139597Y-43481056D01*
X168909448Y-43778385D01*
X168909443Y-43778393D01*
X168907498Y-43780905D01*
X168905815Y-43783605D01*
X168905813Y-43783608D01*
X168723875Y-44075501D01*
X168698228Y-44116647D01*
X168623250Y-44269500D01*
X168525705Y-44468359D01*
X168523998Y-44471838D01*
X168522889Y-44474832D01*
X168522887Y-44474837D01*
X168477888Y-44596339D01*
X168386597Y-44842833D01*
X168385799Y-44845914D01*
X168385798Y-44845918D01*
X168376510Y-44881792D01*
X168287433Y-45225826D01*
X168257266Y-45422746D01*
X168245347Y-45500552D01*
X168227525Y-45616886D01*
X168207487Y-46012000D01*
X151430983Y-46012000D01*
X151266186Y-45747608D01*
X151266184Y-45747605D01*
X151264501Y-45744905D01*
X151262557Y-45742393D01*
X151262551Y-45742385D01*
X151024291Y-45434579D01*
X151022339Y-45432057D01*
X150749769Y-45145313D01*
X150449587Y-44887616D01*
X150124875Y-44661610D01*
X149778965Y-44469614D01*
X149415405Y-44313598D01*
X149397088Y-44307851D01*
X149040959Y-44196114D01*
X149040948Y-44196111D01*
X149037926Y-44195163D01*
X148650403Y-44115525D01*
X148647240Y-44115203D01*
X148647231Y-44115202D01*
X148259990Y-44075824D01*
X148259985Y-44075824D01*
X148256811Y-44075501D01*
X147861189Y-44075501D01*
X147858015Y-44075824D01*
X147858010Y-44075824D01*
X147470769Y-44115202D01*
X147470760Y-44115203D01*
X147467597Y-44115525D01*
X147080074Y-44195163D01*
X147077052Y-44196111D01*
X147077041Y-44196114D01*
X146720912Y-44307851D01*
X146702595Y-44313598D01*
X146339035Y-44469614D01*
X145993125Y-44661610D01*
X145668413Y-44887616D01*
X145368231Y-45145313D01*
X145095661Y-45432057D01*
X145093709Y-45434579D01*
X144855449Y-45742385D01*
X144855443Y-45742393D01*
X144853499Y-45744905D01*
X144851816Y-45747605D01*
X144851814Y-45747608D01*
X144646803Y-46076518D01*
X144644229Y-46080647D01*
X144621859Y-46126251D01*
X144471962Y-46431837D01*
X144469999Y-46435838D01*
X144468890Y-46438832D01*
X144468888Y-46438837D01*
X144342103Y-46781169D01*
X144332598Y-46806834D01*
X144233434Y-47189826D01*
X144230829Y-47206831D01*
X144174109Y-47577083D01*
X144173526Y-47580886D01*
X144153488Y-47976000D01*
X138710500Y-47976000D01*
X138710500Y-41883000D01*
X158047732Y-41883000D01*
X158048084Y-41887697D01*
X158065901Y-42125452D01*
X158066778Y-42137157D01*
X158067828Y-42141756D01*
X158067828Y-42141758D01*
X158118233Y-42362597D01*
X158123492Y-42385637D01*
X158125215Y-42390028D01*
X158125216Y-42390030D01*
X158165851Y-42493566D01*
X158216607Y-42622888D01*
X158344041Y-42843612D01*
X158346973Y-42847289D01*
X158346976Y-42847293D01*
X158499920Y-43039078D01*
X158502950Y-43042877D01*
X158689783Y-43216232D01*
X158693682Y-43218890D01*
X158893100Y-43354851D01*
X158900366Y-43359805D01*
X158904615Y-43361851D01*
X159120355Y-43465746D01*
X159129996Y-43470389D01*
X159157089Y-43478746D01*
X159369035Y-43544123D01*
X159369038Y-43544124D01*
X159373542Y-43545513D01*
X159470842Y-43560179D01*
X159620905Y-43582798D01*
X159620910Y-43582798D01*
X159625565Y-43583500D01*
X159880435Y-43583500D01*
X159885090Y-43582798D01*
X159885095Y-43582798D01*
X160035158Y-43560179D01*
X160132458Y-43545513D01*
X160136962Y-43544124D01*
X160136965Y-43544123D01*
X160348911Y-43478746D01*
X160376004Y-43470389D01*
X160385646Y-43465746D01*
X160601385Y-43361851D01*
X160605634Y-43359805D01*
X160612901Y-43354851D01*
X160812318Y-43218890D01*
X160816217Y-43216232D01*
X161003050Y-43042877D01*
X161006080Y-43039078D01*
X161159024Y-42847293D01*
X161159027Y-42847289D01*
X161161959Y-42843612D01*
X161289393Y-42622888D01*
X161340149Y-42493566D01*
X161380784Y-42390030D01*
X161380785Y-42390028D01*
X161382508Y-42385637D01*
X161387767Y-42362597D01*
X161438172Y-42141758D01*
X161438172Y-42141756D01*
X161439222Y-42137157D01*
X161440100Y-42125452D01*
X161457916Y-41887697D01*
X161458268Y-41883000D01*
X161457743Y-41876000D01*
X206833732Y-41876000D01*
X206834084Y-41880697D01*
X206851380Y-42111500D01*
X206852778Y-42130157D01*
X206853828Y-42134756D01*
X206853828Y-42134758D01*
X206875685Y-42230519D01*
X206909492Y-42378637D01*
X207002607Y-42615888D01*
X207130041Y-42836612D01*
X207132973Y-42840289D01*
X207132976Y-42840293D01*
X207286015Y-43032197D01*
X207288950Y-43035877D01*
X207475783Y-43209232D01*
X207686366Y-43352805D01*
X207915996Y-43463389D01*
X207973271Y-43481056D01*
X208155035Y-43537123D01*
X208155038Y-43537124D01*
X208159542Y-43538513D01*
X208256842Y-43553179D01*
X208406905Y-43575798D01*
X208406910Y-43575798D01*
X208411565Y-43576500D01*
X208666435Y-43576500D01*
X208671090Y-43575798D01*
X208671095Y-43575798D01*
X208821158Y-43553179D01*
X208918458Y-43538513D01*
X208922962Y-43537124D01*
X208922965Y-43537123D01*
X209104729Y-43481056D01*
X209162004Y-43463389D01*
X209391634Y-43352805D01*
X209602217Y-43209232D01*
X209789050Y-43035877D01*
X209791985Y-43032197D01*
X209945024Y-42840293D01*
X209945027Y-42840289D01*
X209947959Y-42836612D01*
X210075393Y-42615888D01*
X210168508Y-42378637D01*
X210202315Y-42230519D01*
X210224172Y-42134758D01*
X210224172Y-42134756D01*
X210225222Y-42130157D01*
X210226621Y-42111500D01*
X210243916Y-41880697D01*
X210244268Y-41876000D01*
X210243217Y-41861970D01*
X210225575Y-41626548D01*
X210225574Y-41626543D01*
X210225222Y-41621843D01*
X210168508Y-41373363D01*
X210075393Y-41136112D01*
X209947959Y-40915388D01*
X209945027Y-40911711D01*
X209945024Y-40911707D01*
X209791985Y-40719803D01*
X209791983Y-40719801D01*
X209789050Y-40716123D01*
X209602217Y-40542768D01*
X209401901Y-40406195D01*
X209395530Y-40401851D01*
X209395528Y-40401850D01*
X209391634Y-40399195D01*
X209276819Y-40343903D01*
X209166253Y-40290657D01*
X209166251Y-40290656D01*
X209162004Y-40288611D01*
X208945658Y-40221877D01*
X208922965Y-40214877D01*
X208922962Y-40214876D01*
X208918458Y-40213487D01*
X208821158Y-40198821D01*
X208671095Y-40176202D01*
X208671090Y-40176202D01*
X208666435Y-40175500D01*
X208411565Y-40175500D01*
X208406910Y-40176202D01*
X208406905Y-40176202D01*
X208256842Y-40198821D01*
X208159542Y-40213487D01*
X208155038Y-40214876D01*
X208155035Y-40214877D01*
X208132342Y-40221877D01*
X207915996Y-40288611D01*
X207911749Y-40290656D01*
X207911747Y-40290657D01*
X207801181Y-40343903D01*
X207686366Y-40399195D01*
X207682472Y-40401850D01*
X207682470Y-40401851D01*
X207676099Y-40406195D01*
X207475783Y-40542768D01*
X207288950Y-40716123D01*
X207286017Y-40719801D01*
X207286015Y-40719803D01*
X207132976Y-40911707D01*
X207132973Y-40911711D01*
X207130041Y-40915388D01*
X207002607Y-41136112D01*
X206909492Y-41373363D01*
X206852778Y-41621843D01*
X206852426Y-41626543D01*
X206852425Y-41626548D01*
X206834783Y-41861970D01*
X206833732Y-41876000D01*
X161457743Y-41876000D01*
X161439222Y-41628843D01*
X161382508Y-41380363D01*
X161289393Y-41143112D01*
X161161959Y-40922388D01*
X161159027Y-40918711D01*
X161159024Y-40918707D01*
X161005985Y-40726803D01*
X161005983Y-40726801D01*
X161003050Y-40723123D01*
X160816217Y-40549768D01*
X160605634Y-40406195D01*
X160376004Y-40295611D01*
X160254231Y-40258049D01*
X160136965Y-40221877D01*
X160136962Y-40221876D01*
X160132458Y-40220487D01*
X160035158Y-40205821D01*
X159885095Y-40183202D01*
X159885090Y-40183202D01*
X159880435Y-40182500D01*
X159625565Y-40182500D01*
X159620910Y-40183202D01*
X159620905Y-40183202D01*
X159470842Y-40205821D01*
X159373542Y-40220487D01*
X159369038Y-40221876D01*
X159369035Y-40221877D01*
X159251769Y-40258049D01*
X159129996Y-40295611D01*
X158900366Y-40406195D01*
X158689783Y-40549768D01*
X158502950Y-40723123D01*
X158500017Y-40726801D01*
X158500015Y-40726803D01*
X158346976Y-40918707D01*
X158346973Y-40918711D01*
X158344041Y-40922388D01*
X158216607Y-41143112D01*
X158123492Y-41380363D01*
X158066778Y-41628843D01*
X158047732Y-41883000D01*
X138710500Y-41883000D01*
X138710500Y-30338000D01*
X144252451Y-30338000D01*
X144252803Y-30342697D01*
X144271202Y-30588217D01*
X144272617Y-30607103D01*
X144273667Y-30611702D01*
X144273667Y-30611704D01*
X144331616Y-30865595D01*
X144332666Y-30870195D01*
X144334389Y-30874586D01*
X144334390Y-30874588D01*
X144349697Y-30913588D01*
X144431257Y-31121398D01*
X144566185Y-31355102D01*
X144569117Y-31358779D01*
X144569120Y-31358783D01*
X144688131Y-31508017D01*
X144734439Y-31566085D01*
X144932259Y-31749635D01*
X145155226Y-31901651D01*
X145398359Y-32018738D01*
X145656228Y-32098280D01*
X145660878Y-32098981D01*
X145660883Y-32098982D01*
X145775033Y-32116187D01*
X145923071Y-32138500D01*
X146192929Y-32138500D01*
X146340967Y-32116187D01*
X146455117Y-32098982D01*
X146455122Y-32098981D01*
X146459772Y-32098280D01*
X146717641Y-32018738D01*
X146721890Y-32016692D01*
X146956527Y-31903697D01*
X146956530Y-31903695D01*
X146960775Y-31901651D01*
X147183741Y-31749635D01*
X147381561Y-31566085D01*
X147427869Y-31508017D01*
X147546880Y-31358783D01*
X147546883Y-31358779D01*
X147549815Y-31355102D01*
X147684743Y-31121398D01*
X147766303Y-30913588D01*
X147781610Y-30874588D01*
X147781611Y-30874586D01*
X147783334Y-30870195D01*
X147784384Y-30865595D01*
X147842333Y-30611704D01*
X147842333Y-30611702D01*
X147843383Y-30607103D01*
X147844799Y-30588217D01*
X147860627Y-30377000D01*
X220319451Y-30377000D01*
X220319803Y-30381697D01*
X220338202Y-30627217D01*
X220339617Y-30646103D01*
X220340667Y-30650702D01*
X220340667Y-30650704D01*
X220391767Y-30874588D01*
X220399666Y-30909195D01*
X220498257Y-31160398D01*
X220633185Y-31394102D01*
X220636117Y-31397779D01*
X220636120Y-31397783D01*
X220770337Y-31566085D01*
X220801439Y-31605085D01*
X220999259Y-31788635D01*
X221222226Y-31940651D01*
X221465359Y-32057738D01*
X221723228Y-32137280D01*
X221727878Y-32137981D01*
X221727883Y-32137982D01*
X221842033Y-32155187D01*
X221990071Y-32177500D01*
X222259929Y-32177500D01*
X222407967Y-32155187D01*
X222522117Y-32137982D01*
X222522122Y-32137981D01*
X222526772Y-32137280D01*
X222784641Y-32057738D01*
X222788890Y-32055692D01*
X223023527Y-31942697D01*
X223023530Y-31942695D01*
X223027775Y-31940651D01*
X223061280Y-31917808D01*
X223246842Y-31791293D01*
X223250741Y-31788635D01*
X223448561Y-31605085D01*
X223479663Y-31566085D01*
X223613880Y-31397783D01*
X223613883Y-31397779D01*
X223616815Y-31394102D01*
X223751743Y-31160398D01*
X223850334Y-30909195D01*
X223858233Y-30874588D01*
X223909333Y-30650704D01*
X223909333Y-30650702D01*
X223910383Y-30646103D01*
X223911799Y-30627217D01*
X223930197Y-30381697D01*
X223930549Y-30377000D01*
X223927274Y-30333303D01*
X223910736Y-30112602D01*
X223910735Y-30112596D01*
X223910383Y-30107897D01*
X223902556Y-30073602D01*
X223851384Y-29849405D01*
X223851384Y-29849404D01*
X223850334Y-29844805D01*
X223835028Y-29805805D01*
X223753467Y-29597995D01*
X223751743Y-29593602D01*
X223616815Y-29359898D01*
X223613883Y-29356221D01*
X223613880Y-29356217D01*
X223451496Y-29152595D01*
X223451494Y-29152593D01*
X223448561Y-29148915D01*
X223250741Y-28965365D01*
X223027775Y-28813349D01*
X223023530Y-28811305D01*
X223023527Y-28811303D01*
X222788890Y-28698308D01*
X222788888Y-28698307D01*
X222784641Y-28696262D01*
X222526772Y-28616720D01*
X222522122Y-28616019D01*
X222522117Y-28616018D01*
X222407967Y-28598813D01*
X222259929Y-28576500D01*
X221990071Y-28576500D01*
X221842033Y-28598813D01*
X221727883Y-28616018D01*
X221727878Y-28616019D01*
X221723228Y-28616720D01*
X221465359Y-28696262D01*
X221222226Y-28813349D01*
X220999259Y-28965365D01*
X220801439Y-29148915D01*
X220798506Y-29152593D01*
X220798504Y-29152595D01*
X220636120Y-29356217D01*
X220636117Y-29356221D01*
X220633185Y-29359898D01*
X220498257Y-29593602D01*
X220496533Y-29597995D01*
X220414973Y-29805805D01*
X220399666Y-29844805D01*
X220398616Y-29849404D01*
X220398616Y-29849405D01*
X220347445Y-30073602D01*
X220339617Y-30107897D01*
X220339265Y-30112596D01*
X220339264Y-30112602D01*
X220322726Y-30333303D01*
X220319451Y-30377000D01*
X147860627Y-30377000D01*
X147863197Y-30342697D01*
X147863549Y-30338000D01*
X147847721Y-30126783D01*
X147843736Y-30073602D01*
X147843735Y-30073596D01*
X147843383Y-30068897D01*
X147793286Y-29849405D01*
X147784384Y-29810405D01*
X147784384Y-29810404D01*
X147783334Y-29805805D01*
X147684743Y-29554602D01*
X147549815Y-29320898D01*
X147546883Y-29317221D01*
X147546880Y-29317217D01*
X147384496Y-29113595D01*
X147384494Y-29113593D01*
X147381561Y-29109915D01*
X147183741Y-28926365D01*
X147021873Y-28816005D01*
X146964671Y-28777005D01*
X146964669Y-28777004D01*
X146960775Y-28774349D01*
X146956530Y-28772305D01*
X146956527Y-28772303D01*
X146721890Y-28659308D01*
X146721888Y-28659307D01*
X146717641Y-28657262D01*
X146459772Y-28577720D01*
X146455122Y-28577019D01*
X146455117Y-28577018D01*
X146340967Y-28559813D01*
X146192929Y-28537500D01*
X145923071Y-28537500D01*
X145775033Y-28559813D01*
X145660883Y-28577018D01*
X145660878Y-28577019D01*
X145656228Y-28577720D01*
X145398359Y-28657262D01*
X145155226Y-28774349D01*
X144932259Y-28926365D01*
X144734439Y-29109915D01*
X144731506Y-29113593D01*
X144731504Y-29113595D01*
X144569120Y-29317217D01*
X144569117Y-29317221D01*
X144566185Y-29320898D01*
X144431257Y-29554602D01*
X144332666Y-29805805D01*
X144331616Y-29810404D01*
X144331616Y-29810405D01*
X144322715Y-29849405D01*
X144272617Y-30068897D01*
X144272265Y-30073596D01*
X144272264Y-30073602D01*
X144268279Y-30126783D01*
X144252451Y-30338000D01*
X138710500Y-30338000D01*
X138710500Y-27548500D01*
X138730502Y-27480379D01*
X138784158Y-27433886D01*
X138836500Y-27422500D01*
X229483500Y-27422500D01*
X229551621Y-27442502D01*
G37*
G04 #@! TD.AperFunction*
M02*
